<svg width="16" height="16" viewBox="0 0 16 16" fill="none" xmlns="http://www.w3.org/2000/svg">
<g clip-path="url(#clip0_543_3)">
<path d="M12.4348 8C12.4348 5.55074 10.4493 3.56522 8 3.56522C5.55074 3.56522 3.56522 5.55074 3.56522 8C3.56522 10.4493 5.55074 12.4348 8 12.4348C10.4493 12.4348 12.4348 10.4493 12.4348 8ZM7.21739 10.087V8C7.21739 7.56778 7.56778 7.21739 8 7.21739C8.43222 7.21739 8.78261 7.56778 8.78261 8V10.087C8.78261 10.5192 8.43222 10.8696 8 10.8696C7.56778 10.8696 7.21739 10.5192 7.21739 10.087ZM8.0051 5.13043C8.43732 5.13043 8.7877 5.48082 8.7877 5.91304C8.7877 6.34527 8.43732 6.69565 8.0051 6.69565H8C7.56778 6.69565 7.21739 6.34527 7.21739 5.91304C7.21739 5.48082 7.56778 5.13043 8 5.13043H8.0051ZM14 8C14 11.3137 11.3137 14 8 14C4.68629 14 2 11.3137 2 8C2 4.68629 4.68629 2 8 2C11.3137 2 14 4.68629 14 8Z" fill="currentColor"/>
</g>
<defs>
<clipPath id="clip0_543_3">
<rect width="16" height="16" fill="white"/>
</clipPath>
</defs>
</svg>
