<svg width="24" height="24" viewBox="0 0 24 24" fill="none" xmlns="http://www.w3.org/2000/svg">
<g clip-path="url(#clip0_543_9)">
<path d="M19 12C19 8.13401 15.866 5 12 5C8.13401 5 5 8.13401 5 12C5 15.866 8.13401 19 12 19C15.866 19 19 15.866 19 12ZM11 15.2002V12C11 11.4477 11.4477 11 12 11C12.5523 11 13 11.4477 13 12V15.2002C12.9999 15.7524 12.5522 16.2002 12 16.2002C11.4478 16.2002 11.0001 15.7524 11 15.2002ZM12.0078 7.7998C12.56 7.7998 13.0077 8.24761 13.0078 8.7998C13.0078 9.35209 12.5601 9.7998 12.0078 9.7998H12C11.4477 9.7998 11 9.35209 11 8.7998C11.0001 8.24761 11.4478 7.7998 12 7.7998H12.0078ZM21 12C21 16.9706 16.9706 21 12 21C7.02944 21 3 16.9706 3 12C3 7.02944 7.02944 3 12 3C16.9706 3 21 7.02944 21 12Z" fill="currentColor"/>
</g>
<defs>
<clipPath id="clip0_543_9">
<rect width="24" height="24" fill="white"/>
</clipPath>
</defs>
</svg>
