<svg width="16" height="16" viewBox="0 0 16 16" fill="none" xmlns="http://www.w3.org/2000/svg">
<g clip-path="url(#clip0_548_260)">
<path d="M12.5552 8.50688V6.40403C12.5552 6.00955 12.8786 5.68976 13.2776 5.68976C13.6766 5.68976 14 6.00955 14 6.40403V8.50688C13.9998 8.90123 13.6765 9.22116 13.2776 9.22116C12.8787 9.22116 12.5553 8.90123 12.5552 8.50688ZM10.7081 4.61741C10.6539 4.64933 10.593 4.68559 10.5247 4.72622C10.103 4.9771 9.60599 5.24111 9.09114 5.44422C8.58393 5.64431 8.01355 5.80415 7.4582 5.80415L5.03449 5.8042C4.61689 5.8042 4.35124 5.8049 4.1503 5.8228C3.96013 5.83976 3.89502 5.86765 3.86528 5.88419C3.73423 5.95716 3.61488 6.08098 3.53606 6.2497C3.50913 6.30739 3.47946 6.40607 3.46269 6.63009C3.44546 6.86055 3.44482 7.16103 3.44482 7.61315V8.24372C3.44482 8.49736 3.44489 8.65533 3.45234 8.77478C3.45936 8.88698 3.47101 8.91794 3.4721 8.9208C3.50674 9.01211 3.56432 9.06472 3.61217 9.0883C3.6141 9.08924 3.61601 9.09015 3.6179 9.091C3.60792 9.08649 3.60375 9.0864 3.61217 9.0883C3.6214 9.09037 3.64574 9.09482 3.69409 9.09844C3.795 9.10596 3.93192 9.10681 4.16723 9.10681L7.4582 9.10676C8.01355 9.10676 8.58393 9.26568 9.09114 9.46576C9.60614 9.66892 10.1029 9.93374 10.5247 10.1847C10.5927 10.2252 10.6541 10.2598 10.7081 10.2916C10.7086 10.2134 10.709 10.1228 10.709 10.0173V4.8927C10.709 4.78669 10.7086 4.69591 10.7081 4.61741ZM12.1538 10.0173C12.1538 10.2804 12.1542 10.5174 12.1407 10.7037C12.1286 10.8689 12.1005 11.1338 11.9478 11.3668C11.7588 11.6552 11.4716 11.8525 11.105 11.9016C10.7902 11.9436 10.5157 11.816 10.376 11.7472C10.2077 11.6643 10.0027 11.5413 9.77968 11.4086C9.39869 11.1819 8.97445 10.9581 8.55592 10.7929C8.1294 10.6247 7.75356 10.5353 7.4582 10.5353L6.11999 10.5354V12.0216C6.11976 12.562 5.67704 13 5.13044 13C4.58383 13 4.14112 12.562 4.14089 12.0216V10.5344C3.93729 10.5345 3.74674 10.5353 3.58591 10.5233C3.41017 10.5102 3.21473 10.4797 3.01683 10.3903C2.5938 10.199 2.27898 9.8432 2.11946 9.42303C2.04686 9.23168 2.02154 9.04211 2.01035 8.86314C1.99949 8.68936 2 8.47982 2 8.24372V7.61315C2 7.18219 1.99952 6.81954 2.02164 6.52406C2.04424 6.22231 2.09349 5.93116 2.22387 5.65168C2.42202 5.22717 2.74455 4.86828 3.15699 4.63885C3.43631 4.48349 3.7288 4.42584 4.02049 4.39983C4.30134 4.37479 4.64314 4.37565 5.03449 4.37565L7.4582 4.3756C7.75356 4.3756 8.1294 4.28529 8.55592 4.11704C8.97432 3.95195 9.39879 3.72891 9.77968 3.50228C10.0026 3.36964 10.2078 3.24664 10.376 3.16374C10.4983 3.10352 10.724 2.99732 10.9893 3.00005L11.105 3.00842L11.2386 3.03353C11.4986 3.09749 11.7126 3.24113 11.8726 3.43997L11.9478 3.54413L11.9996 3.63249C12.1074 3.84155 12.1302 4.0627 12.1407 4.20726C12.1542 4.39337 12.1538 4.62983 12.1538 4.8927V10.0173Z" fill="currentColor"/>
<path d="M10.7081 4.61741C10.6539 4.64933 10.593 4.68559 10.5247 4.72622C10.103 4.9771 9.60599 5.24111 9.09114 5.44422C8.58393 5.64431 8.01355 5.80415 7.4582 5.80415L5.03449 5.8042C4.61689 5.8042 4.35124 5.8049 4.1503 5.8228C3.96013 5.83976 3.89502 5.86765 3.86528 5.88419C3.73423 5.95716 3.61488 6.08098 3.53606 6.2497C3.50913 6.30739 3.47946 6.40607 3.46269 6.63009C3.44546 6.86055 3.44482 7.16103 3.44482 7.61315V8.24372C3.44482 8.49736 3.44489 8.65533 3.45234 8.77478C3.45936 8.88698 3.47101 8.91794 3.4721 8.9208C3.50674 9.01211 3.56432 9.06472 3.61217 9.0883C3.6214 9.09037 3.64574 9.09482 3.69409 9.09844C3.795 9.10596 3.93192 9.10681 4.16723 9.10681L7.4582 9.10676C8.01355 9.10676 8.58393 9.26568 9.09114 9.46576C9.60614 9.66892 10.1029 9.93374 10.5247 10.1847C10.5927 10.2252 10.6541 10.2598 10.7081 10.2916C10.7086 10.2134 10.709 10.1228 10.709 10.0173V4.8927C10.709 4.78669 10.7086 4.69591 10.7081 4.61741Z" fill="currentColor"/>
</g>
<defs>
<clipPath id="clip0_548_260">
<rect width="16" height="16" fill="white"/>
</clipPath>
</defs>
</svg>
