<svg width="16" height="16" viewBox="0 0 16 16" fill="none" xmlns="http://www.w3.org/2000/svg">
<g clip-path="url(#clip0_542_882)">
<path d="M12.065 5.68836C12.0649 5.68127 12.0642 5.67443 12.0641 5.66839C12.0392 5.65397 12.0094 5.6377 11.9716 5.61631L8.04016 3.39136C8.02554 3.38309 8.01217 3.37566 8 3.36879C7.98783 3.37566 7.97446 3.38309 7.95984 3.39136L4.02839 5.61631C3.99024 5.63789 3.96004 5.65388 3.93498 5.66839V10.331C3.96013 10.3455 3.99003 10.3622 4.02839 10.3839L7.95984 12.6089C7.9743 12.6171 7.98794 12.6238 8 12.6306C8.01206 12.6238 8.0257 12.6171 8.04016 12.6089L11.9716 10.3839C12.0096 10.3624 12.0391 10.3455 12.0641 10.331C12.0642 10.3252 12.0649 10.3186 12.065 10.3119V5.68836ZM7.28264 10.1643V8.00012C7.28264 7.63191 7.60382 7.33341 8 7.33341C8.39618 7.33341 8.71736 7.63191 8.71736 8.00012V10.1643C8.71736 10.5325 8.39618 10.831 8 10.831C7.60382 10.831 7.28264 10.5325 7.28264 10.1643ZM8.0056 5.16924C8.40166 5.16938 8.72296 5.46782 8.72296 5.83594C8.72271 6.20386 8.4015 6.5025 8.0056 6.50264H8C7.60397 6.50264 7.28289 6.20395 7.28264 5.83594C7.28264 5.46773 7.60382 5.16924 8 5.16924H8.0056ZM13.4997 10.1964C13.4997 10.3393 13.5073 10.5502 13.4428 10.7494C13.3918 10.9065 13.3066 11.0552 13.1906 11.1834C13.0394 11.3505 12.836 11.4561 12.7179 11.5229L8.78554 13.7478C8.67865 13.8083 8.48617 13.9262 8.26434 13.9727C8.09008 14.0091 7.90992 14.0091 7.73566 13.9727C7.51383 13.9262 7.32135 13.8083 7.21446 13.7478L3.28208 11.5229C3.16403 11.4561 2.96065 11.3505 2.80944 11.1834C2.69339 11.0552 2.60821 10.9065 2.55725 10.7494C2.49272 10.5502 2.50027 10.3393 2.50027 10.1964V5.80382C2.50027 5.66089 2.49272 5.45004 2.55725 5.25084L2.60208 5.13451C2.65281 5.02055 2.72241 4.91297 2.80944 4.81679C2.96065 4.64978 3.16403 4.54415 3.28208 4.47736L7.21446 2.25241C7.32135 2.19191 7.51383 2.07404 7.73566 2.02757L7.86736 2.00674C7.99973 1.99309 8.13369 2.00024 8.26434 2.02757C8.48617 2.07404 8.67865 2.19191 8.78554 2.25241L12.7179 4.47736C12.836 4.54415 13.0394 4.64978 13.1906 4.81679C13.2776 4.91297 13.3472 5.02054 13.3979 5.13451L13.4428 5.25084L13.4782 5.40102C13.5035 5.55114 13.4997 5.69656 13.4997 5.80382V10.1964Z" fill="currentColor"/>
</g>
<defs>
<clipPath id="clip0_542_882">
<rect width="16" height="16" fill="white"/>
</clipPath>
</defs>
</svg>
