<svg width="24" height="24" viewBox="0 0 24 24" fill="none" xmlns="http://www.w3.org/2000/svg">
<g clip-path="url(#clip0_99_281)">
<path fill-rule="evenodd" clip-rule="evenodd" d="M17.999 8.53223C17.999 8.52961 17.9988 8.52705 17.9985 8.52454C17.9983 8.52218 17.9981 8.51986 17.9981 8.51758C17.9602 8.49504 17.9162 8.46902 17.8584 8.43555L12.1026 5.09863C12.0765 5.08351 12.0532 5.07029 12.0321 5.05831C12.0208 5.0519 12.0102 5.04584 12 5.04004C11.9899 5.04585 11.9792 5.05191 11.9679 5.05832C11.9468 5.0703 11.9236 5.08351 11.8975 5.09863L6.14162 8.43555L6.12268 8.44653C6.07367 8.47493 6.0348 8.49746 6.00099 8.51758V8.53223C6.00046 8.57948 6.00002 8.6349 6.00002 8.70605V15.2939C6.00002 15.3651 6.00046 15.4205 6.00099 15.4678V15.4814C6.00687 15.4849 6.01289 15.4885 6.01909 15.4922C6.05308 15.5125 6.09228 15.5359 6.14162 15.5645L11.8975 18.9014C11.9236 18.9165 11.9468 18.9297 11.9679 18.9417C11.9792 18.9481 11.9899 18.9542 12 18.96C12.0101 18.9542 12.0208 18.9481 12.0321 18.9417C12.0532 18.9297 12.0765 18.9165 12.1026 18.9014L17.8584 15.5645C17.8988 15.541 17.9323 15.5209 17.9618 15.5032C17.9746 15.4955 17.9866 15.4883 17.9981 15.4814C17.9981 15.4793 17.9983 15.4771 17.9985 15.4749C17.9988 15.4726 17.999 15.4702 17.999 15.4678C17.9996 15.4205 18 15.3651 18 15.2939V8.70605C18 8.6349 17.9996 8.57949 17.999 8.53223ZM11 12V15C11.0002 15.5521 11.4478 16 12 16C12.5522 16 12.9998 15.5521 13 15V12C13 11.4477 12.5523 11 12 11C11.4477 11 11 11.4477 11 12ZM13 9C12.9998 8.44788 12.5522 8.00002 12 8H11.9922C11.44 8 10.9924 8.44787 10.9922 9C10.9922 9.55228 11.4399 10 11.9922 10H12C12.5523 9.99998 13 9.55227 13 9Z" fill="currentColor"/>
<path fill-rule="evenodd" clip-rule="evenodd" d="M17.9985 8.52454C17.9983 8.52218 17.9981 8.51986 17.9981 8.51758C17.9602 8.49504 17.9162 8.46902 17.8584 8.43555L12.1026 5.09863C12.0765 5.08351 12.0532 5.07029 12.0321 5.05831L12 5.04004L11.9679 5.05832C11.9468 5.0703 11.9236 5.08351 11.8975 5.09863L6.14162 8.43555L6.12268 8.44653C6.07367 8.47493 6.0348 8.49746 6.00099 8.51758V8.53223C6.00046 8.57948 6.00002 8.6349 6.00002 8.70605V15.2939C6.00002 15.3651 6.00046 15.4205 6.00099 15.4678V15.4814L6.01909 15.4922C6.05308 15.5125 6.09228 15.5359 6.14162 15.5645L11.8975 18.9014C11.9236 18.9165 11.9468 18.9297 11.9679 18.9417L12 18.96L12.0321 18.9417C12.0532 18.9297 12.0765 18.9165 12.1026 18.9014L17.8584 15.5645C17.8988 15.541 17.9323 15.5209 17.9618 15.5032L17.9981 15.4814C17.9981 15.4793 17.9983 15.4771 17.9985 15.4749C17.9988 15.4726 17.999 15.4702 17.999 15.4678C17.9996 15.4205 18 15.3651 18 15.2939V8.70605C18 8.6349 17.9996 8.57949 17.999 8.53223C17.999 8.52961 17.9988 8.52705 17.9985 8.52454ZM20 15.2939L20.0002 15.3532C20.0011 15.5636 20.0024 15.8586 19.9141 16.1377C19.8379 16.3781 19.7126 16.602 19.544 16.793C19.346 17.0172 19.0874 17.1653 18.9112 17.2662L18.8613 17.2949L13.1055 20.6318L13.06 20.6584C12.8956 20.7549 12.6471 20.9007 12.3662 20.9609C12.1247 21.0127 11.8753 21.0127 11.6338 20.9609C11.353 20.9007 11.1044 20.7549 10.9401 20.6584L10.8945 20.6318L5.13869 17.2949L5.0888 17.2662C4.91267 17.1653 4.65407 17.0172 4.45607 16.793C4.2874 16.602 4.16213 16.3781 4.08595 16.1377C3.99759 15.8586 3.9989 15.5636 3.99984 15.3532L4.00002 15.2939V8.70605L3.99984 8.64678C3.9989 8.43638 3.99759 8.14142 4.08595 7.8623C4.16213 7.62189 4.2874 7.39804 4.45607 7.20703L4.54103 7.11914C4.72446 6.94268 4.93844 6.81999 5.09043 6.73284L5.13869 6.70508L10.8945 3.36816L10.9401 3.34156C11.1045 3.24512 11.353 3.09934 11.6338 3.03906L11.8164 3.00977C11.9997 2.99038 12.1852 3.00023 12.3662 3.03906C12.6471 3.09934 12.8956 3.24512 13.06 3.34156L13.1055 3.36816L18.8613 6.70508L18.9096 6.73284C19.0616 6.81999 19.2756 6.94268 19.459 7.11914L19.544 7.20703L19.6621 7.35644C19.7721 7.51118 19.857 7.68202 19.9141 7.8623C20.0024 8.14142 20.0011 8.43638 20.0002 8.64678L20 8.70605V15.2939Z" fill="currentColor"/>
</g>
<defs>
<clipPath id="clip0_99_281">
<rect width="24" height="24" fill="white"/>
</clipPath>
</defs>
</svg>
