<svg width="16" height="16" viewBox="0 0 16 16" fill="none" xmlns="http://www.w3.org/2000/svg">
<g clip-path="url(#clip0_542_885)">
<path fill-rule="evenodd" clip-rule="evenodd" d="M12.065 5.68836C12.065 5.68455 12.0647 5.6808 12.0645 5.67722C12.0643 5.67414 12.0641 5.67118 12.0641 5.66839C12.0496 5.66 12.0334 5.65097 12.015 5.64068C12.0018 5.63329 11.9874 5.62525 11.9716 5.61631L8.04016 3.39136L8 3.36879L7.95984 3.39136L4.02839 5.61631C4.01036 5.62651 3.99411 5.63546 3.97934 5.64359C3.96285 5.65267 3.9482 5.66074 3.93498 5.66839V10.331C3.9524 10.3411 3.9721 10.3522 3.99532 10.3653C4.00561 10.3711 4.0166 10.3773 4.02839 10.3839L7.95984 12.6089C7.96748 12.6132 7.9749 12.6171 7.98197 12.6208C7.98828 12.6242 7.99432 12.6274 8 12.6306C8.00568 12.6274 8.01172 12.6242 8.01803 12.6208C8.0251 12.6171 8.03252 12.6132 8.04016 12.6089L11.9716 10.3839C12.0096 10.3624 12.0391 10.3455 12.0641 10.331C12.0641 10.3283 12.0643 10.3254 12.0645 10.3225C12.0647 10.319 12.065 10.3155 12.065 10.3119V5.68836ZM7.28264 8.00012V10.1643C7.28264 10.5325 7.60382 10.831 8 10.831C8.39618 10.831 8.71736 10.5325 8.71736 10.1643V8.00012C8.71736 7.63191 8.39618 7.33341 8 7.33341C7.60382 7.33341 7.28264 7.63191 7.28264 8.00012ZM8.72296 5.83594C8.72296 5.46782 8.40166 5.16938 8.0056 5.16924H8C7.60382 5.16924 7.28264 5.46773 7.28264 5.83594C7.28289 6.20395 7.60397 6.50264 8 6.50264H8.0056C8.4015 6.5025 8.72271 6.20386 8.72296 5.83594Z" fill="currentColor"/>
<path fill-rule="evenodd" clip-rule="evenodd" d="M12.0645 5.67722L12.0641 5.66839C12.0496 5.66 12.0334 5.65097 12.015 5.64068L11.9716 5.61631L8.04016 3.39136L8 3.36879L7.95984 3.39136L4.02839 5.61631C4.01036 5.62651 3.99411 5.63546 3.97934 5.64359C3.96285 5.65267 3.9482 5.66074 3.93498 5.66839V10.331C3.9524 10.3411 3.9721 10.3522 3.99532 10.3653L4.02839 10.3839L7.95984 12.6089C7.96748 12.6132 7.9749 12.6171 7.98197 12.6208C7.98828 12.6242 7.99432 12.6274 8 12.6306C8.00568 12.6274 8.01172 12.6242 8.01803 12.6208C8.0251 12.6171 8.03252 12.6132 8.04016 12.6089L11.9716 10.3839C12.0096 10.3624 12.0391 10.3455 12.0641 10.331L12.0645 10.3225C12.0647 10.319 12.065 10.3155 12.065 10.3119V5.68836C12.065 5.68455 12.0647 5.6808 12.0645 5.67722ZM13.4997 10.1964L13.4999 10.2372C13.5005 10.3778 13.5014 10.5684 13.4428 10.7494C13.3918 10.9065 13.3066 11.0552 13.1906 11.1834C13.0528 11.3356 12.8718 11.4368 12.7514 11.5041L12.7179 11.5229L8.78554 13.7478L8.75593 13.7647C8.64514 13.8282 8.46699 13.9302 8.26434 13.9727C8.09008 14.0091 7.90992 14.0091 7.73566 13.9727C7.53301 13.9302 7.35485 13.8282 7.24406 13.7647L7.21446 13.7478L3.28208 11.5229L3.24855 11.5041C3.12816 11.4368 2.94716 11.3356 2.80944 11.1834C2.69339 11.0552 2.60821 10.9065 2.55725 10.7494C2.49861 10.5684 2.49949 10.3778 2.50014 10.2372L2.50027 10.1964V5.80382L2.50014 5.76302C2.49949 5.62247 2.49861 5.43185 2.55725 5.25084L2.60208 5.13451C2.65281 5.02055 2.72241 4.91297 2.80944 4.81679C2.94716 4.66467 3.12817 4.56348 3.24855 4.49617L3.28208 4.47736L7.21446 2.25241L7.24406 2.23552C7.35485 2.17207 7.53301 2.07002 7.73566 2.02757L7.86736 2.00674C7.99973 1.99309 8.13369 2.00024 8.26434 2.02757C8.46699 2.07002 8.64515 2.17207 8.75594 2.23552L8.78554 2.25241L12.7179 4.47736L12.7514 4.49617C12.8718 4.56348 13.0528 4.66468 13.1906 4.81679C13.2776 4.91297 13.3472 5.02054 13.3979 5.13451L13.4428 5.25084L13.4782 5.40102C13.5007 5.53454 13.5002 5.66435 13.4998 5.7669L13.4997 5.80382V10.1964Z" fill="currentColor"/>
</g>
<defs>
<clipPath id="clip0_542_885">
<rect width="16" height="16" fill="white"/>
</clipPath>
</defs>
</svg>
