<svg width="32" height="32" viewBox="0 0 32 32" fill="none" xmlns="http://www.w3.org/2000/svg">
<g clip-path="url(#clip0_99_272)">
<path fill-rule="evenodd" clip-rule="evenodd" d="M24.3155 11.3717L24.315 11.3666C24.2742 11.3432 24.2282 11.3174 24.1724 11.2863L24.1169 11.2552L16.175 6.8063L16.111 6.77032C16.0689 6.74666 16.0328 6.72636 16 6.70838C15.9672 6.72637 15.9311 6.74667 15.889 6.77034L15.825 6.8063L7.8831 11.2552L7.79869 11.3022C7.75514 11.3264 7.7177 11.3472 7.68397 11.3666V11.3771C7.68324 11.4397 7.68293 11.5125 7.68293 11.6073V20.3925C7.68293 20.4873 7.68324 20.5601 7.68397 20.6227V20.6321L7.8831 20.7446L15.825 25.1935C15.896 25.2333 15.9518 25.2639 16 25.2904C16.0482 25.2639 16.104 25.2333 16.175 25.1935L24.1169 20.7446C24.1992 20.6985 24.2623 20.6631 24.316 20.6321H24.315L24.3155 20.6275L24.316 20.6227C24.3168 20.5601 24.3171 20.4873 24.3171 20.3925V11.6073C24.3171 11.5125 24.3168 11.4397 24.316 11.3771L24.3155 11.3717ZM27 20.629C26.9981 20.8904 26.9814 21.2159 26.8795 21.5269C26.7732 21.8512 26.5995 22.1505 26.368 22.404C26.0975 22.7001 25.7454 22.895 25.5025 23.0296L25.4343 23.0675L17.4924 27.5164L17.4258 27.554C17.1975 27.6834 16.8651 27.872 16.4905 27.9497C16.1671 28.0168 15.8329 28.0168 15.5095 27.9497C15.1349 27.872 14.8025 27.6834 14.5742 27.554L14.5076 27.5164L6.56574 23.0675L6.49754 23.0296C6.25457 22.895 5.90254 22.7001 5.63196 22.404C5.40046 22.1505 5.22683 21.8512 5.12052 21.5269C5.01863 21.2159 5.00194 20.8904 5 20.629V11.3708C5.00194 11.1094 5.01863 10.7839 5.12052 10.4729C5.22683 10.1486 5.40046 9.84926 5.63196 9.59584L5.74829 9.47917C5.99813 9.24689 6.28888 9.08582 6.49841 8.96974L6.56574 8.93231L14.5076 4.48342L14.5742 4.44579C14.8025 4.31634 15.1349 4.12782 15.5095 4.0501L15.7537 4.0126C15.9175 3.9958 16.0825 3.9958 16.2463 4.0126L16.4905 4.0501L16.6424 4.08864C16.9556 4.17944 17.2309 4.33543 17.428 4.44706L17.4924 4.48342L25.4343 8.93231L25.5016 8.96973C25.7111 9.08581 26.0019 9.24689 26.2517 9.47917L26.368 9.59584L26.5305 9.79375C26.6823 10.0001 26.7997 10.2295 26.8795 10.4729C26.9814 10.7839 26.9981 11.1094 27 11.3708V20.629Z" fill="currentColor"/>
<path fill-rule="evenodd" clip-rule="evenodd" d="M24.1169 11.2552L16.175 6.8063L16.111 6.77032C16.0689 6.74666 16.0328 6.72636 16 6.70838C15.9672 6.72637 15.9311 6.74667 15.889 6.77034L15.825 6.8063L7.8831 11.2552L7.79869 11.3022C7.75514 11.3264 7.7177 11.3472 7.68397 11.3666V11.3771C7.68324 11.4397 7.68293 11.5125 7.68293 11.6073V20.3925C7.68293 20.4873 7.68324 20.5601 7.68397 20.6227V20.6321L7.8831 20.7446L15.825 25.1935C15.896 25.2333 15.9518 25.2639 16 25.2904C16.0482 25.2639 16.104 25.2333 16.175 25.1935L24.1169 20.7446C24.1992 20.6985 24.2623 20.6631 24.316 20.6321H24.315L24.3155 20.6275L24.316 20.6227C24.3168 20.5601 24.3171 20.4873 24.3171 20.3925V11.6073C24.3171 11.5125 24.3168 11.4397 24.316 11.3771L24.3155 11.3717L24.315 11.3666C24.2742 11.3432 24.2282 11.3174 24.1724 11.2863L24.1169 11.2552ZM14.6585 15.9999V20.329C14.6586 21.0653 15.2592 21.6623 16 21.6623C16.7408 21.6623 17.3414 21.0653 17.3415 20.329V15.9999C17.3415 15.2635 16.7409 14.6666 16 14.6666C15.2591 14.6666 14.6585 15.2635 14.6585 15.9999ZM17.3519 11.6708C17.3518 10.9345 16.7513 10.3375 16.0105 10.3375H16C15.2592 10.3375 14.6586 10.9345 14.6585 11.6708C14.6585 12.4072 15.2591 13.0041 16 13.0041H16.0105C16.7514 13.0041 17.3519 12.4072 17.3519 11.6708Z" fill="currentColor"/>
</g>
<defs>
<clipPath id="clip0_99_272">
<rect width="32" height="32" fill="white"/>
</clipPath>
</defs>
</svg>
