<svg width="32" height="32" viewBox="0 0 32 32" fill="none" xmlns="http://www.w3.org/2000/svg">
<g clip-path="url(#clip0_543_15)">
<path d="M25.3333 16C25.3333 10.8453 21.1547 6.66667 16 6.66667C10.8453 6.66667 6.66667 10.8453 6.66667 16C6.66667 21.1547 10.8453 25.3333 16 25.3333C21.1547 25.3333 25.3333 21.1547 25.3333 16ZM14.6667 20.2667V16C14.6667 15.2636 15.2636 14.6667 16 14.6667C16.7364 14.6667 17.3333 15.2636 17.3333 16V20.2667C17.3333 21.003 16.7364 21.6 16 21.6C15.2636 21.6 14.6667 21.003 14.6667 20.2667ZM16.0104 10.4C16.7468 10.4 17.3438 10.997 17.3438 11.7333C17.3438 12.4697 16.7468 13.0667 16.0104 13.0667H16C15.2636 13.0667 14.6667 12.4697 14.6667 11.7333C14.6667 10.997 15.2636 10.4 16 10.4H16.0104ZM28 16C28 22.6274 22.6274 28 16 28C9.37258 28 4 22.6274 4 16C4 9.37258 9.37258 4 16 4C22.6274 4 28 9.37258 28 16Z" fill="currentColor"/>
</g>
<defs>
<clipPath id="clip0_543_15">
<rect width="32" height="32" fill="white"/>
</clipPath>
</defs>
</svg>
