<svg width="32" height="32" viewBox="0 0 32 32" fill="none" xmlns="http://www.w3.org/2000/svg">
<g clip-path="url(#clip0_99_266)">
<path d="M24.316 11.3771C24.316 11.3735 24.315 11.37 24.315 11.3666C24.2614 11.3358 24.1988 11.301 24.1169 11.2552L16.175 6.8063C16.1038 6.76639 16.0483 6.73487 16 6.70838C15.9517 6.73487 15.8962 6.76639 15.825 6.8063L7.8831 11.2552C7.80083 11.3013 7.7377 11.3357 7.68397 11.3666C7.68393 11.37 7.68402 11.3735 7.68397 11.3771C7.68324 11.4397 7.68293 11.5125 7.68293 11.6073V20.3925C7.68293 20.4873 7.68324 20.5601 7.68397 20.6227C7.68401 20.6259 7.68393 20.629 7.68397 20.6321L7.8831 20.7446L15.825 25.1935C15.896 25.2333 15.9518 25.2639 16 25.2904C16.0482 25.2639 16.104 25.2333 16.175 25.1935L24.1169 20.7446C24.1992 20.6985 24.2623 20.6631 24.316 20.6321H24.315C24.315 20.629 24.316 20.6259 24.316 20.6227C24.3168 20.5601 24.3171 20.4873 24.3171 20.3925V11.6073C24.3171 11.5125 24.3168 11.4397 24.316 11.3771ZM14.6585 20.329V15.9999C14.6585 15.2635 15.2591 14.6666 16 14.6666C16.7409 14.6666 17.3415 15.2635 17.3415 15.9999V20.329C17.3414 21.0653 16.7408 21.6623 16 21.6623C15.2592 21.6623 14.6586 21.0653 14.6585 20.329ZM16.0105 10.3375C16.7513 10.3375 17.3518 10.9345 17.3519 11.6708C17.3519 12.4072 16.7514 13.0041 16.0105 13.0041H16C15.2591 13.0041 14.6585 12.4072 14.6585 11.6708C14.6586 10.9345 15.2592 10.3375 16 10.3375H16.0105ZM27 20.629C26.9981 20.8904 26.9814 21.2159 26.8795 21.5269C26.7732 21.8512 26.5995 22.1505 26.368 22.404C26.0709 22.7291 25.6756 22.9323 25.4343 23.0675L17.4924 27.5164C17.265 27.6438 16.9033 27.864 16.4905 27.9497C16.1671 28.0168 15.8329 28.0168 15.5095 27.9497C15.0967 27.864 14.735 27.6438 14.5076 27.5164L6.56574 23.0675C6.32444 22.9323 5.92909 22.7291 5.63196 22.404C5.40046 22.1505 5.22683 21.8512 5.12052 21.5269C5.01863 21.2159 5.00194 20.8904 5 20.629V11.3708C5.00194 11.1094 5.01863 10.7839 5.12052 10.4729C5.22683 10.1486 5.40046 9.84926 5.63196 9.59584L5.74829 9.47917C6.02618 9.22081 6.35468 9.05055 6.56574 8.93231L14.5076 4.48342C14.735 4.35601 15.0967 4.13576 15.5095 4.0501L15.7537 4.0126C15.9175 3.9958 16.0825 3.9958 16.2463 4.0126L16.4905 4.0501L16.6424 4.08864C16.9914 4.18982 17.2934 4.37192 17.4924 4.48342L25.4343 8.93231C25.6453 9.05055 25.9738 9.22081 26.2517 9.47917L26.368 9.59584L26.5305 9.79375C26.6823 10.0001 26.7997 10.2295 26.8795 10.4729C26.9814 10.7839 26.9981 11.1094 27 11.3708V20.629Z" fill="currentColor"/>
</g>
<defs>
<clipPath id="clip0_99_266">
<rect width="32" height="32" fill="white"/>
</clipPath>
</defs>
</svg>
