<svg width="24" height="24" viewBox="0 0 24 24" fill="none" xmlns="http://www.w3.org/2000/svg">
<g clip-path="url(#clip0_77_1282)">
<path d="M17.999 8.53223C17.999 8.52714 17.9981 8.52227 17.9981 8.51758C17.9602 8.49504 17.9162 8.46902 17.8584 8.43555L12.1026 5.09863C12.0625 5.07542 12.0291 5.0567 12 5.04004C11.9709 5.0567 11.9375 5.07542 11.8975 5.09863L6.14162 8.43555C6.08351 8.46924 6.03904 8.49494 6.00099 8.51758C6.00093 8.52227 6.00105 8.52715 6.00099 8.53223C6.00046 8.57949 6.00002 8.6349 6.00002 8.70606V15.2939C6.00002 15.3651 6.00046 15.4205 6.00099 15.4678C6.00105 15.4725 6.00093 15.4771 6.00099 15.4814C6.03913 15.5041 6.0833 15.5306 6.14162 15.5645L11.8975 18.9014C11.9375 18.9246 11.9709 18.9433 12 18.96C12.0291 18.9433 12.0625 18.9246 12.1026 18.9014L17.8584 15.5645C17.9164 15.5309 17.9601 15.504 17.9981 15.4814C17.9981 15.4771 17.999 15.4725 17.999 15.4678C17.9996 15.4205 18 15.3651 18 15.2939V8.70606C18 8.6349 17.9996 8.57949 17.999 8.53223ZM11 15V12C11 11.4477 11.4477 11 12 11C12.5523 11 13 11.4477 13 12V15C12.9998 15.5521 12.5522 16 12 16C11.4478 16 11.0002 15.5521 11 15ZM12 8C12.5522 8.00002 12.9998 8.44788 13 9C13 9.55228 12.5523 9.99998 12 10H11.9922C11.4399 10 10.9922 9.55229 10.9922 9C10.9924 8.44787 11.44 8 11.9922 8H12ZM20 15.2939C20 15.5057 20.0111 15.8313 19.9141 16.1377C19.8379 16.3781 19.7126 16.602 19.544 16.793C19.3263 17.0395 19.0354 17.194 18.8613 17.2949L13.1055 20.6318C12.9436 20.7257 12.6744 20.8948 12.3662 20.9609C12.1247 21.0127 11.8753 21.0127 11.6338 20.9609C11.3257 20.8948 11.0564 20.7257 10.8945 20.6318L5.13869 17.2949C4.96462 17.194 4.67373 17.0395 4.45607 16.793C4.2874 16.602 4.16213 16.3781 4.08595 16.1377C3.98893 15.8313 4.00002 15.5057 4.00002 15.2939V8.70606C4.00002 8.49429 3.98893 8.16875 4.08595 7.86231C4.16213 7.62189 4.2874 7.39804 4.45607 7.20703L4.54103 7.11914C4.74484 6.92307 4.98638 6.79339 5.13869 6.70508L10.8945 3.36817C11.0564 3.27428 11.3257 3.1052 11.6338 3.03906L11.8164 3.00977C11.9997 2.99038 12.1852 3.00024 12.3662 3.03906C12.6744 3.1052 12.9436 3.27428 13.1055 3.36817L18.8613 6.70508C19.0137 6.79339 19.2552 6.92307 19.459 7.11914L19.544 7.20703L19.6621 7.35645C19.7721 7.51119 19.857 7.68203 19.9141 7.86231C20.0111 8.16875 20 8.4943 20 8.70606V15.2939Z" fill="currentColor"/>
</g>
<defs>
<clipPath id="clip0_77_1282">
<rect width="24" height="24" fill="white"/>
</clipPath>
</defs>
</svg>
