<svg width="32" height="32" viewBox="0 0 32 32" fill="none" xmlns="http://www.w3.org/2000/svg">
<g clip-path="url(#clip0_548_269)">
<path d="M25.551 16.0619V11.7439C25.5512 11.069 26.0993 10.5217 26.7755 10.5217C27.4517 10.5217 27.9998 11.069 28 11.7439V16.0619C28 16.7369 27.4518 17.2841 26.7755 17.2841C26.0992 17.2841 25.551 16.7369 25.551 16.0619ZM21.78 8.64248C21.78 8.1504 21.777 7.8138 21.7647 7.56633C21.5228 7.68267 21.201 7.85749 20.7306 8.11443C18.9257 9.10009 16.3561 10.2676 14.1145 10.2677H10.397C9.47157 10.2677 8.85112 10.2687 8.37373 10.3078C7.91099 10.3457 7.69117 10.4129 7.5472 10.4863C7.16981 10.679 6.86216 10.9871 6.66901 11.3667C6.59488 11.5125 6.52707 11.7346 6.48916 12.1994C6.45013 12.6782 6.44899 13.3 6.44899 14.2266V15.5224C6.44899 16.0417 6.44921 16.3705 6.4662 16.6205C6.48249 16.8596 6.51037 16.9373 6.52073 16.9623C6.61598 17.1924 6.79771 17.3741 7.02488 17.4684C7.0485 17.4782 7.12401 17.5047 7.36161 17.5209C7.61059 17.5379 7.93818 17.5391 8.45696 17.5391H14.1145C16.3561 17.5391 18.9257 18.7067 20.7306 19.6923C21.2008 19.9491 21.5229 20.1231 21.7647 20.2395C21.777 19.9921 21.78 19.6559 21.78 19.1643V8.64248ZM24.229 19.1643C24.229 19.7065 24.2292 20.1873 24.1993 20.5641C24.1721 20.9077 24.1088 21.4145 23.8004 21.8465C23.4151 22.3861 22.8666 22.7128 22.2066 22.7938C21.6679 22.8598 21.175 22.6588 20.8587 22.5159C20.5016 22.3544 20.0605 22.1122 19.5548 21.836C17.7672 20.8597 15.6796 19.9836 14.1145 19.9836H12.4356V25.18C12.4356 26.185 11.6191 27 10.6122 27C9.60536 27 8.78891 26.185 8.78891 25.18V19.9836H8.45696C7.97178 19.9836 7.54623 19.9838 7.1942 19.9597C6.83108 19.9349 6.45699 19.8794 6.08451 19.7248C5.25591 19.3808 4.59859 18.7219 4.25638 17.8943C4.10278 17.5227 4.04769 17.1496 4.02297 16.7866C3.99899 16.4345 4.00001 16.0087 4.00001 15.5224V14.2266C4.00001 13.34 3.99882 12.6018 4.04784 12.0008C4.09802 11.3855 4.20682 10.807 4.48502 10.26C4.91171 9.42127 5.59294 8.73841 6.43177 8.31018C6.9793 8.03069 7.55866 7.92224 8.17379 7.87189C8.77444 7.82275 9.5122 7.82319 10.397 7.82319H14.1145C15.6796 7.82312 17.7672 6.94606 19.5548 5.96977C20.0605 5.69361 20.5016 5.45135 20.8587 5.2899C21.175 5.14696 21.6679 4.94697 22.2066 5.01299C22.7841 5.08384 23.2763 5.34227 23.6483 5.76734L23.8004 5.96023L23.9047 6.12542C24.1237 6.51622 24.1754 6.9411 24.1993 7.24167C24.2292 7.61857 24.229 8.10019 24.229 8.64248V19.1643Z" fill="currentColor"/>
</g>
<defs>
<clipPath id="clip0_548_269">
<rect width="32" height="32" fill="white"/>
</clipPath>
</defs>
</svg>
