<svg width="24" height="24" viewBox="0 0 24 24" fill="none" xmlns="http://www.w3.org/2000/svg">
<g clip-path="url(#clip0_548_266)">
<path d="M19.2 12.045V8.90512C19.2 8.41419 19.6029 8.01621 20.1 8.01621C20.5971 8.01621 21 8.41419 21 8.90512V12.045C21 12.5359 20.5971 12.9339 20.1 12.9339C19.6029 12.9339 19.2 12.5359 19.2 12.045ZM16.3646 6.64899C16.3646 6.28219 16.3614 6.03505 16.3515 5.8547C16.1649 5.93953 15.914 6.07038 15.5385 6.26877C14.1809 6.98605 12.2565 7.83131 10.5823 7.83131H7.78828C7.09348 7.83131 6.6251 7.83141 6.26426 7.85996C5.91378 7.88771 5.74308 7.93772 5.62969 7.99364C5.34039 8.13651 5.10784 8.36314 4.96348 8.63775C4.9087 8.74201 4.85823 8.90127 4.82988 9.23759C4.80063 9.58488 4.8 10.0364 4.8 10.7107V11.6526C4.8 12.0308 4.80044 12.2693 4.81319 12.4503C4.82534 12.6229 4.84577 12.6771 4.85274 12.6934C4.92297 12.8574 5.05973 12.993 5.23858 13.0649C5.26111 13.074 5.32289 13.0938 5.50401 13.1057C5.69285 13.1182 5.94085 13.1188 6.33018 13.1188H10.5823C12.2565 13.1188 14.1809 13.964 15.5385 14.6813C15.9137 14.8796 16.1649 15.0097 16.3515 15.0945C16.3613 14.9142 16.3646 14.6673 16.3646 14.3011V6.64899ZM18.1646 14.3011C18.1646 14.6951 18.1661 15.046 18.1436 15.3211C18.1229 15.5725 18.0741 15.9439 17.8412 16.2595C17.5518 16.6516 17.1447 16.8835 16.6608 16.9409C16.2679 16.9875 15.906 16.8463 15.6677 16.7421C15.4005 16.6253 15.0699 16.4501 14.6895 16.249C13.3464 15.5394 11.7698 14.8966 10.5823 14.8966H9.3V18.6666C9.3 19.403 8.69559 20 7.95 20C7.20442 20 6.6 19.403 6.6 18.6666V14.8966H6.33018C5.96491 14.8966 5.64653 14.8975 5.3836 14.8801C5.11287 14.8622 4.83611 14.8222 4.56094 14.7117C3.94638 14.4649 3.45283 13.9894 3.19424 13.3844C3.07792 13.1122 3.03626 12.8388 3.01758 12.5736C2.99949 12.3167 3 12.006 3 11.6526V10.7107C3 10.0662 2.99912 9.52817 3.03604 9.09002C3.07389 8.64096 3.15646 8.21786 3.36651 7.81829C3.6881 7.20669 4.19954 6.71202 4.82461 6.40333C5.23091 6.20276 5.66073 6.12459 6.12012 6.08822C6.56963 6.05262 7.12242 6.05349 7.78828 6.05349H10.5823C11.7698 6.05349 13.3464 5.41068 14.6895 4.70103C15.0699 4.49999 15.4005 4.32482 15.6677 4.20796C15.906 4.10373 16.2679 3.96253 16.6608 4.00917C17.0842 4.05944 17.4486 4.243 17.727 4.55085L17.8412 4.69061L17.9203 4.81128C18.0858 5.09719 18.1255 5.40901 18.1436 5.629C18.1661 5.90408 18.1646 6.25499 18.1646 6.64899V14.3011Z" fill="currentColor"/>
<path d="M16.3646 6.64899C16.3646 6.28219 16.3614 6.03505 16.3515 5.8547C16.1649 5.93953 15.914 6.07038 15.5385 6.26877C14.1809 6.98605 12.2565 7.83131 10.5823 7.83131H7.78828C7.09348 7.83131 6.6251 7.83141 6.26426 7.85996C5.91378 7.88771 5.74308 7.93772 5.62969 7.99364C5.34039 8.13651 5.10784 8.36314 4.96348 8.63775C4.9087 8.74201 4.85823 8.90127 4.82988 9.23759C4.80063 9.58488 4.8 10.0364 4.8 10.7107V11.6526C4.8 12.0308 4.80044 12.2693 4.81319 12.4503C4.82534 12.6229 4.84577 12.6771 4.85274 12.6934C4.92297 12.8574 5.05973 12.993 5.23858 13.0649C5.26111 13.074 5.32289 13.0938 5.50401 13.1057C5.69285 13.1182 5.94085 13.1188 6.33018 13.1188H10.5823C12.2565 13.1188 14.1809 13.964 15.5385 14.6813C15.9137 14.8796 16.1649 15.0097 16.3515 15.0945C16.3613 14.9142 16.3646 14.6673 16.3646 14.3011V6.64899Z" fill="currentColor"/>
</g>
<defs>
<clipPath id="clip0_548_266">
<rect width="24" height="24" fill="white"/>
</clipPath>
</defs>
</svg>
