<svg width="16" height="16" viewBox="0 0 16 16" fill="none" xmlns="http://www.w3.org/2000/svg">
<g clip-path="url(#clip0_544_100)">
<path d="M12.4348 8C12.4348 5.55074 10.4493 3.56522 8 3.56522C5.55074 3.56522 3.56522 5.55074 3.56522 8C3.56522 10.4493 5.55074 12.4348 8 12.4348C10.4493 12.4348 12.4348 10.4493 12.4348 8ZM14 8C14 11.3137 11.3137 14 8 14C4.68629 14 2 11.3137 2 8C2 4.68629 4.68629 2 8 2C11.3137 2 14 4.68629 14 8Z" fill="currentColor"/>
<path d="M8.00025 9.8C8.36343 9.8 8.65809 10.0933 8.66023 10.456C8.65809 10.8187 8.36343 11.112 8.00025 11.112C7.63707 11.112 7.3424 10.8187 7.34026 10.456C7.3424 10.0933 7.63707 9.8 8.00025 9.8Z" fill="currentColor"/>
<path d="M7.57445 6.29894C7.33659 6.50515 7.08481 6.79997 6.77001 6.79997C6.45521 6.79997 6.19547 6.53927 6.2938 6.24021C6.49861 5.61734 7.04625 4.99766 8.00926 4.99766C9.15937 4.99766 9.80001 5.81608 9.80001 6.79997C9.80001 7.35425 9.46778 7.82255 9.15157 8.09845C9.12312 8.12327 9.09314 8.14848 9.06247 8.17427C8.84826 8.3544 8.60001 8.56316 8.60001 8.86916C8.60001 9.05188 8.45189 9.2 8.26918 9.2H7.85964C7.60938 9.2 7.40158 8.99089 7.40158 8.74063C7.40158 8.24105 7.71242 7.97446 8.00805 7.7209C8.01478 7.71514 8.02149 7.70938 8.02819 7.70363C8.3438 7.43267 8.66001 7.16119 8.66001 6.79997C8.66001 6.35091 8.35615 6.14006 8.00001 6.14006C7.83227 6.14006 7.68622 6.20205 7.57445 6.29894Z" fill="currentColor"/>
</g>
<defs>
<clipPath id="clip0_544_100">
<rect width="16" height="16" fill="white"/>
</clipPath>
</defs>
</svg>
