<svg width="32" height="32" viewBox="0 0 32 32" fill="none" xmlns="http://www.w3.org/2000/svg">
<g clip-path="url(#clip0_99_275)">
<path d="M25.0732 16C25.0732 10.989 21.011 6.92683 16 6.92683C10.989 6.92683 6.92683 10.989 6.92683 16C6.92683 21.011 10.989 25.0732 16 25.0732C21.011 25.0732 25.0732 21.011 25.0732 16ZM28 16C28 22.6274 22.6274 28 16 28C9.37258 28 4 22.6274 4 16C4 9.37258 9.37258 4 16 4C22.6274 4 28 9.37258 28 16Z" fill="currentColor"/>
<path fill-rule="evenodd" clip-rule="evenodd" d="M25.0732 16C25.0732 10.989 21.011 6.92683 16 6.92683C10.989 6.92683 6.92683 10.989 6.92683 16C6.92683 21.011 10.989 25.0732 16 25.0732C21.011 25.0732 25.0732 21.011 25.0732 16ZM17.3204 20.912C17.3162 20.1867 16.7268 19.6 16.0005 19.6C15.2741 19.6 14.6848 20.1867 14.6805 20.912C14.6848 21.6374 15.2741 22.2241 16.0005 22.2241C16.7268 22.2241 17.3162 21.6374 17.3204 20.912ZM16.0185 9.99531C14.0925 9.99531 12.9972 11.2347 12.5876 12.4804C12.3909 13.0785 12.9104 13.5999 13.54 13.5999C14.1696 13.5999 14.6732 13.0103 15.1489 12.5979C15.3724 12.4041 15.6645 12.2801 16 12.2801C16.7123 12.2801 17.32 12.7018 17.32 13.5999C17.32 14.3224 16.6876 14.8653 16.0564 15.4072L16.0161 15.4418C15.4248 15.9489 14.8031 16.4821 14.8031 17.4813C14.8031 17.9818 15.2187 18.4 15.7193 18.4H16.5383C16.9038 18.4 17.2 18.1038 17.2 17.7383C17.2 17.1263 17.6965 16.7088 18.1249 16.3485C18.1498 16.3276 18.1745 16.3068 18.1989 16.2862C18.2345 16.2561 18.2693 16.2264 18.3031 16.1969C18.9355 15.6451 19.6 14.7085 19.6 13.5999C19.6 11.6322 18.3187 9.99531 16.0185 9.99531Z" fill="currentColor"/>
</g>
<defs>
<clipPath id="clip0_99_275">
<rect width="32" height="32" fill="white"/>
</clipPath>
</defs>
</svg>
