<svg width="24" height="24" viewBox="0 0 24 24" fill="none" xmlns="http://www.w3.org/2000/svg">
<g clip-path="url(#clip0_99_278)">
<path d="M19.2 12C19.2 8.02355 15.9765 4.8 12 4.8C8.02355 4.8 4.8 8.02355 4.8 12C4.8 15.9765 8.02355 19.2 12 19.2C15.9765 19.2 19.2 15.9765 19.2 12ZM21 12C21 16.9706 16.9706 21 12 21C7.02944 21 3 16.9706 3 12C3 7.02944 7.02944 3 12 3C16.9706 3 21 7.02944 21 12Z" fill="currentColor"/>
<path fill-rule="evenodd" clip-rule="evenodd" d="M19.2 12C19.2 8.02355 15.9765 4.8 12 4.8C8.02355 4.8 4.8 8.02355 4.8 12C4.8 15.9765 8.02355 19.2 12 19.2C15.9765 19.2 19.2 15.9765 19.2 12ZM12.9903 15.684C12.9871 15.14 12.5451 14.7 12.0003 14.7C11.4556 14.7 11.0136 15.14 11.0104 15.684C11.0136 16.228 11.4556 16.6681 12.0003 16.6681C12.5451 16.6681 12.9871 16.228 12.9903 15.684ZM10.1 10.2H10.21C10.6518 10.2 11.0034 9.79264 11.3211 9.48554C11.4933 9.31909 11.7276 9.21008 12 9.21008C12.5342 9.21008 12.99 9.52637 12.99 10.2C12.99 10.7418 12.5157 11.149 12.0423 11.5554L12.012 11.5814C11.5686 11.9617 11.1023 12.3616 11.1023 13.1109C11.1023 13.4863 11.414 13.8 11.7894 13.8H12.4037C12.6778 13.8 12.9 13.5778 12.9 13.3037C12.9 12.8447 13.2724 12.5316 13.5937 12.2614C13.6397 12.2227 13.6846 12.1849 13.7273 12.1477C14.2016 11.7338 14.7 11.0314 14.7 10.2C14.7 8.72412 13.739 7.49648 12.0139 7.49648C10.5424 7.49648 9.71746 8.461 9.42402 9.4126C9.29383 9.83481 9.65816 10.2 10.1 10.2Z" fill="currentColor"/>
</g>
<defs>
<clipPath id="clip0_99_278">
<rect width="24" height="24" fill="white"/>
</clipPath>
</defs>
</svg>
