<svg width="16" height="16" viewBox="0 0 16 16" fill="none" xmlns="http://www.w3.org/2000/svg">
<g clip-path="url(#clip0_544_109)">
<path fill-rule="evenodd" clip-rule="evenodd" d="M12.4348 8C12.4348 5.55074 10.4493 3.56522 8 3.56522C5.55074 3.56522 3.56522 5.55074 3.56522 8C3.56522 10.4493 5.55074 12.4348 8 12.4348C10.4493 12.4348 12.4348 10.4493 12.4348 8ZM8.7877 10.2826C8.7877 9.85039 8.43732 9.5 8.0051 9.5H8C7.56778 9.5 7.21739 9.85039 7.21739 10.2826C7.21739 10.7148 7.56778 11.0652 8 11.0652H8.0051C8.43732 11.0652 8.7877 10.7148 8.7877 10.2826ZM7.21739 5.78261V7.86957C7.21739 8.30179 7.56778 8.65217 8 8.65217C8.43222 8.65217 8.78261 8.30179 8.78261 7.86957V5.78261C8.78261 5.35039 8.43222 5 8 5C7.56778 5 7.21739 5.35039 7.21739 5.78261Z" fill="currentColor"/>
<path fill-rule="evenodd" clip-rule="evenodd" d="M12.4348 8C12.4348 5.55074 10.4493 3.56522 8 3.56522C5.55074 3.56522 3.56522 5.55074 3.56522 8C3.56522 10.4493 5.55074 12.4348 8 12.4348C10.4493 12.4348 12.4348 10.4493 12.4348 8ZM14 8C14 11.3137 11.3137 14 8 14C4.68629 14 2 11.3137 2 8C2 4.68629 4.68629 2 8 2C11.3137 2 14 4.68629 14 8Z" fill="currentColor"/>
</g>
<defs>
<clipPath id="clip0_544_109">
<rect width="16" height="16" fill="white"/>
</clipPath>
</defs>
</svg>
