<svg width="16" height="16" viewBox="0 0 16 16" fill="none" xmlns="http://www.w3.org/2000/svg">
<g clip-path="url(#clip0_547_169)">
<path fill-rule="evenodd" clip-rule="evenodd" d="M7.84982 4.6658L3.57523 11.5274L3.56237 11.5481C3.52799 11.6033 3.49801 11.6514 3.47193 11.6939C3.48286 11.694 3.49412 11.6941 3.50572 11.6942C3.56831 11.6949 3.64072 11.6956 3.72542 11.6956H12.2746C12.3581 11.6956 12.4296 11.6949 12.4916 11.6942C12.5038 11.6941 12.5157 11.694 12.5272 11.6939C12.5199 11.6821 12.5124 11.6698 12.5046 11.657C12.4809 11.6184 12.4546 11.5754 12.4248 11.5274L8.15018 4.6658C8.13808 4.64637 8.1265 4.62776 8.11542 4.60994C8.0696 4.53629 8.0321 4.47599 8 4.42633C7.9679 4.476 7.93039 4.53629 7.88458 4.60995C7.87349 4.62777 7.86192 4.64638 7.84982 4.6658ZM8.67192 10.657C8.67176 10.2969 8.37332 10.0048 8.00521 10.0048H8C7.63189 10.0048 7.33345 10.2969 7.33329 10.657C7.33329 11.0172 7.63179 11.3092 8 11.3092H8.00521C8.37342 11.3092 8.67192 11.0172 8.67192 10.657ZM7.33329 6.79308V8.72505C7.33329 9.08524 7.63179 9.37724 8 9.37724C8.36821 9.37724 8.66671 9.08524 8.66671 8.72505V6.79308C8.66658 6.433 8.36813 6.14089 8 6.14089C7.63187 6.14089 7.33342 6.433 7.33329 6.79308Z" fill="currentColor"/>
<path fill-rule="evenodd" clip-rule="evenodd" d="M7.64407 3.0523C7.91449 2.97093 8.20783 2.9845 8.47052 3.09306C8.71255 3.1931 8.86783 3.36905 8.96881 3.50153C9.06894 3.63292 9.17532 3.80369 9.28503 3.97983L9.28915 3.98643L13.5629 10.8481L13.5815 10.878C13.6864 11.0463 13.788 11.2093 13.858 11.35C13.93 11.4946 14.0242 11.7197 13.9943 11.986C13.9571 12.3175 13.7716 12.608 13.4995 12.7919C13.2846 12.9371 13.0476 12.9722 12.8814 12.9864C12.7205 13.0001 12.5236 13 12.3145 13L12.2746 13H3.72542L3.68549 13C3.47641 13 3.2795 13.0001 3.11861 12.9864C2.95239 12.9722 2.71536 12.9371 2.50051 12.7919C2.22839 12.608 2.04289 12.3175 2.00569 11.986C1.97581 11.7196 2.06997 11.4946 2.14198 11.35C2.21199 11.2093 2.31359 11.0463 2.41854 10.8779L2.43714 10.8481L6.71085 3.98643L6.71496 3.97985C6.82467 3.80371 6.93106 3.63292 7.03119 3.50153C7.13217 3.36905 7.28746 3.1931 7.52948 3.09306L7.64407 3.0523ZM7.84982 4.6658L3.57523 11.5274L3.56237 11.5481C3.52799 11.6033 3.49801 11.6514 3.47193 11.6939L3.50572 11.6942C3.56831 11.6949 3.64072 11.6956 3.72542 11.6956H12.2746C12.3581 11.6956 12.4296 11.6949 12.4916 11.6942L12.5272 11.6939L12.5046 11.657C12.4809 11.6184 12.4546 11.5754 12.4248 11.5274L8.15018 4.6658L8.11542 4.60994C8.0696 4.53629 8.0321 4.47599 8 4.42633C7.9679 4.476 7.93039 4.53629 7.88458 4.60995L7.84982 4.6658Z" fill="currentColor"/>
</g>
<defs>
<clipPath id="clip0_547_169">
<rect width="16" height="16" fill="white"/>
</clipPath>
</defs>
</svg>
