<svg width="24" height="24" viewBox="0 0 24 24" fill="none" xmlns="http://www.w3.org/2000/svg">
<g clip-path="url(#clip0_94_209)">
<path d="M19 12C19 8.13401 15.866 5 12 5C8.13401 5 5 8.13401 5 12C5 15.866 8.13401 19 12 19C15.866 19 19 15.866 19 12ZM12.0078 14.2002C12.5601 14.2002 13.0078 14.6479 13.0078 15.2002C13.0077 15.7524 12.56 16.2002 12.0078 16.2002H12C11.4478 16.2002 11.0001 15.7524 11 15.2002C11 14.6479 11.4477 14.2002 12 14.2002H12.0078ZM11 12V8.7998C11.0001 8.24761 11.4478 7.7998 12 7.7998C12.5522 7.7998 12.9999 8.24761 13 8.7998V12C13 12.5523 12.5523 13 12 13C11.4477 13 11 12.5523 11 12ZM21 12C21 16.9706 16.9706 21 12 21C7.02944 21 3 16.9706 3 12C3 7.02944 7.02944 3 12 3C16.9706 3 21 7.02944 21 12Z" fill="currentColor"/>
</g>
<defs>
<clipPath id="clip0_94_209">
<rect width="24" height="24" fill="white"/>
</clipPath>
</defs>
</svg>
