<svg width="24" height="24" viewBox="0 0 24 24" fill="none" xmlns="http://www.w3.org/2000/svg">
<g clip-path="url(#clip0_544_78)">
<path fill-rule="evenodd" clip-rule="evenodd" d="M12 5.86369C11.9222 5.97637 11.8217 6.13277 11.6757 6.36777L5.18497 16.8113C5.07475 16.9887 4.99244 17.1225 4.93009 17.2284C5.07122 17.2327 5.25555 17.2353 5.50929 17.2353H18.4916C18.7446 17.2353 18.9281 17.2327 19.069 17.2284C19.0067 17.1225 18.9251 16.9885 18.815 16.8113L12.3243 6.36777C12.1783 6.13277 12.0778 5.97637 12 5.86369ZM12.9079 15.5447C12.9079 15.0574 12.505 14.6623 12.0079 14.6623H12C11.5029 14.6623 11.1 15.0574 11.1 15.5447C11.1 16.032 11.5029 16.427 12 16.427H12.0079C12.505 16.427 12.9079 16.032 12.9079 15.5447ZM11.1 9.66369V12.6037C11.1 13.0911 11.5029 13.4861 12 13.4861C12.4971 13.4861 12.9 13.0911 12.9 12.6037V9.66369C12.9 9.17638 12.4971 8.78133 12 8.78133C11.5029 8.78133 11.1 9.17638 11.1 9.66369Z" fill="currentColor"/>
<path fill-rule="evenodd" clip-rule="evenodd" d="M11.492 4.07484C11.8226 3.97505 12.1774 3.97505 12.508 4.07484L12.6706 4.13257L12.7928 4.1903C13.0649 4.33501 13.2508 4.54728 13.3816 4.71937C13.5259 4.90908 13.6791 5.15565 13.8418 5.41741L13.8615 5.44922L20.3522 15.8928L20.3758 15.9307C20.5376 16.1909 20.6906 16.4369 20.7952 16.6476C20.902 16.8627 21.0339 17.1816 20.9921 17.555C20.9393 18.0264 20.6755 18.4403 20.2881 18.7027C19.9866 18.9069 19.6511 18.9582 19.4039 18.9793C19.1609 19.0001 18.8608 19 18.5355 19L18.4916 19H5.50929L5.46503 19C5.13959 19 4.83909 19.0001 4.59611 18.9793C4.34888 18.9582 4.01342 18.9069 3.71193 18.7027C3.32454 18.4403 3.0607 18.0264 3.00793 17.555C2.96615 17.1816 3.098 16.8627 3.2048 16.6476C3.30946 16.4369 3.46242 16.1909 3.62425 15.9306L3.64777 15.8928L10.1385 5.44922L10.1583 5.4174C10.3209 5.15564 10.4741 4.90908 10.6184 4.71937C10.7679 4.52273 10.9895 4.27335 11.3294 4.13257L11.492 4.07484ZM12 5.86369C11.9222 5.97637 11.8217 6.13277 11.6757 6.36777L5.18497 16.8113C5.07475 16.9887 4.99244 17.1225 4.93009 17.2284C5.07122 17.2327 5.25555 17.2353 5.50929 17.2353H18.4916C18.7446 17.2353 18.9281 17.2327 19.069 17.2284C19.0067 17.1225 18.9251 16.9885 18.815 16.8113L12.3243 6.36777C12.1783 6.13277 12.0778 5.97637 12 5.86369Z" fill="currentColor"/>
</g>
<defs>
<clipPath id="clip0_544_78">
<rect width="24" height="24" fill="white"/>
</clipPath>
</defs>
</svg>
