<svg width="32" height="32" viewBox="0 0 32 32" fill="none" xmlns="http://www.w3.org/2000/svg">
<g clip-path="url(#clip0_77_1284)">
<path d="M25.3333 16C25.3333 10.8453 21.1547 6.66667 16 6.66667C10.8453 6.66667 6.66667 10.8453 6.66667 16C6.66667 21.1547 10.8453 25.3333 16 25.3333C21.1547 25.3333 25.3333 21.1547 25.3333 16ZM16.0104 18.9333C16.7468 18.9333 17.3438 19.5303 17.3438 20.2667C17.3438 21.003 16.7468 21.6 16.0104 21.6H16C15.2636 21.6 14.6667 21.003 14.6667 20.2667C14.6667 19.5303 15.2636 18.9333 16 18.9333H16.0104ZM14.6667 16V11.7333C14.6667 10.997 15.2636 10.4 16 10.4C16.7364 10.4 17.3333 10.997 17.3333 11.7333V16C17.3333 16.7364 16.7364 17.3333 16 17.3333C15.2636 17.3333 14.6667 16.7364 14.6667 16ZM28 16C28 22.6274 22.6274 28 16 28C9.37258 28 4 22.6274 4 16C4 9.37258 9.37258 4 16 4C22.6274 4 28 9.37258 28 16Z" fill="currentColor"/>
</g>
<defs>
<clipPath id="clip0_77_1284">
<rect width="32" height="32" fill="white"/>
</clipPath>
</defs>
</svg>
