<svg width="32" height="32" viewBox="0 0 32 32" fill="none" xmlns="http://www.w3.org/2000/svg">
<g clip-path="url(#clip0_544_84)">
<path fill-rule="evenodd" clip-rule="evenodd" d="M16 7.33607C15.8843 7.5049 15.7388 7.74832 15.5127 8.13282L6.80354 22.9404C6.57891 23.3223 6.43702 23.5673 6.34539 23.7502C6.55272 23.7641 6.84037 23.7659 7.29087 23.7659H24.7091C25.159 23.7659 25.4465 23.764 25.6537 23.7502C25.5621 23.5673 25.421 23.3221 25.1965 22.9404L16.4873 8.13282C16.2612 7.74832 16.1157 7.5049 16 7.33607ZM17.1427 21.2352C17.1427 20.6183 16.6358 20.1182 16.0106 20.1182H16C15.3748 20.1182 14.8679 20.6183 14.8679 21.2352C14.8681 21.8519 15.3749 22.3522 16 22.3522H16.0106C16.6357 22.3522 17.1425 21.8519 17.1427 21.2352ZM14.8679 12.8959V17.0655C14.8679 17.6825 15.3748 18.1826 16 18.1826C16.6252 18.1826 17.1321 17.6825 17.1321 17.0655V12.8959C17.1319 12.2792 16.6251 11.7789 16 11.7789C15.3749 11.7789 14.8681 12.2792 14.8679 12.8959Z" fill="currentColor"/>
<path fill-rule="evenodd" clip-rule="evenodd" d="M15.3261 5.10463C15.8368 4.94189 16.3934 4.96903 16.8889 5.18579C17.33 5.37888 17.615 5.71784 17.8087 5.98691C17.9968 6.24837 18.1975 6.5896 18.4152 6.95995L18.4455 7.01143L27.1546 21.819L27.481 22.3801C27.5809 22.5572 27.6702 22.7233 27.7419 22.8758C27.8827 23.1754 28.0408 23.5897 27.9904 24.0653C27.9257 24.675 27.6014 25.2285 27.0989 25.5881C26.7075 25.8682 26.2659 25.9402 25.9323 25.9703C25.6031 26.0001 25.195 26 24.7516 26H24.7091H7.29087H7.24844C6.80501 26 6.39691 26.0001 6.06768 25.9703C5.73412 25.9402 5.29253 25.8682 4.90109 25.5881C4.39865 25.2285 4.07428 24.675 4.00957 24.0653C3.9592 23.5897 4.11728 23.1754 4.2581 22.8758C4.39515 22.5842 4.5963 22.2423 4.81491 21.8708L4.84537 21.819L13.5545 7.01143L13.5848 6.95999C13.8025 6.58963 14.0032 6.24838 14.1913 5.98691C14.385 5.71784 14.67 5.37888 15.1111 5.18579L15.3261 5.10463ZM16 7.33607C15.8843 7.5049 15.7388 7.74832 15.5127 8.13282L6.80354 22.9404C6.57891 23.3223 6.43702 23.5673 6.34539 23.7502C6.55272 23.7641 6.84037 23.7659 7.29087 23.7659H24.7091C25.159 23.7659 25.4465 23.764 25.6537 23.7502C25.5621 23.5673 25.421 23.3221 25.1965 22.9404L16.4873 8.13282C16.2612 7.74832 16.1157 7.5049 16 7.33607Z" fill="currentColor"/>
</g>
<defs>
<clipPath id="clip0_544_84">
<rect width="32" height="32" fill="white"/>
</clipPath>
</defs>
</svg>
