<svg width="16" height="16" viewBox="0 0 16 16" fill="none" xmlns="http://www.w3.org/2000/svg">
<g clip-path="url(#clip0_547_155)">
<path d="M7.64407 3.0523C7.91449 2.97093 8.20783 2.9845 8.47052 3.09306C8.71255 3.1931 8.86783 3.36905 8.96881 3.50153C9.07019 3.63456 9.17798 3.80797 9.28915 3.98643L13.5629 10.8481C13.6743 11.027 13.7839 11.201 13.858 11.35C13.93 11.4946 14.0242 11.7197 13.9943 11.986C13.9571 12.3175 13.7716 12.608 13.4995 12.7919C13.2846 12.9371 13.0476 12.9722 12.8814 12.9864C12.7103 13.001 12.4985 13 12.2746 13H3.72542C3.50153 13 3.2897 13.001 3.11861 12.9864C2.95239 12.9722 2.71536 12.9371 2.50051 12.7919C2.22839 12.608 2.04289 12.3175 2.00569 11.986C1.97581 11.7196 2.06997 11.4946 2.14198 11.35C2.21612 11.201 2.32568 11.027 2.43714 10.8481L6.71085 3.98643C6.82202 3.80797 6.92981 3.63456 7.03119 3.50153C7.13217 3.36905 7.28746 3.1931 7.52948 3.09306L7.64407 3.0523ZM7.84982 4.6658L3.57523 11.5274C3.53542 11.5914 3.50121 11.6462 3.47193 11.6939C3.54192 11.6946 3.62503 11.6956 3.72542 11.6956H12.2746C12.3746 11.6956 12.4574 11.6946 12.5272 11.6939C12.498 11.6463 12.4645 11.5912 12.4248 11.5274L8.15018 4.6658C8.08807 4.5661 8.03987 4.48801 8 4.42633C7.96014 4.48801 7.91193 4.5661 7.84982 4.6658ZM8.00521 10.0048C8.37332 10.0048 8.67176 10.2969 8.67192 10.657C8.67192 11.0172 8.37342 11.3092 8.00521 11.3092H8C7.63179 11.3092 7.33329 11.0172 7.33329 10.657C7.33345 10.2969 7.63189 10.0048 8 10.0048H8.00521ZM7.33329 8.72505V6.79308C7.33342 6.433 7.63187 6.14089 8 6.14089C8.36813 6.14089 8.66658 6.433 8.66671 6.79308V8.72505C8.66671 9.08524 8.36821 9.37724 8 9.37724C7.63179 9.37724 7.33329 9.08524 7.33329 8.72505Z" fill="currentColor"/>
</g>
<defs>
<clipPath id="clip0_547_155">
<rect width="16" height="16" fill="white"/>
</clipPath>
</defs>
</svg>
