<svg width="24" height="24" viewBox="0 0 24 24" fill="none" xmlns="http://www.w3.org/2000/svg">
<g clip-path="url(#clip0_544_75)">
<path d="M11.492 4.07484C11.8226 3.97505 12.1774 3.97505 12.508 4.07484L12.6706 4.13257L12.7928 4.1903C13.0649 4.33501 13.2508 4.54728 13.3816 4.71937C13.5317 4.91675 13.6915 5.17567 13.8615 5.44922L20.3522 15.8928C20.5227 16.167 20.6855 16.4267 20.7952 16.6476C20.902 16.8627 21.0339 17.1816 20.9921 17.555C20.9393 18.0264 20.6755 18.4403 20.2881 18.7027C19.9866 18.9069 19.6511 18.9582 19.4039 18.9793C19.15 19.001 18.8338 19 18.4916 19H5.50929C5.16686 19 4.85007 19.001 4.59611 18.9793C4.34888 18.9582 4.01342 18.9069 3.71193 18.7027C3.32455 18.4403 3.0607 18.0264 3.00793 17.555C2.96615 17.1816 3.098 16.8627 3.2048 16.6476C3.31452 16.4267 3.47731 16.167 3.64777 15.8928L10.1385 5.44922C10.3085 5.17567 10.4683 4.91675 10.6184 4.71937C10.7679 4.52273 10.9895 4.27335 11.3294 4.13257L11.492 4.07484ZM12 5.86369C11.9222 5.97637 11.8217 6.13277 11.6757 6.36777L5.18497 16.8113C5.07475 16.9887 4.99244 17.1225 4.93009 17.2284C5.07122 17.2327 5.25555 17.2353 5.50929 17.2353H18.4916C18.7446 17.2353 18.9281 17.2327 19.069 17.2284C19.0067 17.1225 18.9251 16.9885 18.815 16.8113L12.3243 6.36777C12.1783 6.13277 12.0778 5.97637 12 5.86369ZM12.0079 14.6623C12.505 14.6623 12.9079 15.0574 12.9079 15.5447C12.9079 16.032 12.505 16.427 12.0079 16.427H12C11.5029 16.427 11.1 16.032 11.1 15.5447C11.1 15.0574 11.503 14.6623 12 14.6623H12.0079ZM11.1 12.6037V9.66369C11.1 9.17638 11.5029 8.78133 12 8.78133C12.4971 8.78133 12.9 9.17638 12.9 9.66369V12.6037C12.9 13.0911 12.4971 13.4861 12 13.4861C11.5029 13.4861 11.1 13.0911 11.1 12.6037Z" fill="currentColor"/>
</g>
<defs>
<clipPath id="clip0_544_75">
<rect width="24" height="24" fill="white"/>
</clipPath>
</defs>
</svg>
