<svg width="24" height="24" viewBox="0 0 24 24" fill="none" xmlns="http://www.w3.org/2000/svg">
<g clip-path="url(#clip0_94_231)">
<path fill-rule="evenodd" clip-rule="evenodd" d="M19 12C19 8.13401 15.866 5 12 5C8.13401 5 5 8.13401 5 12C5 15.866 8.13401 19 12 19C15.866 19 19 15.866 19 12ZM13.0078 15.2002C13.0078 14.6479 12.5601 14.2002 12.0078 14.2002H12C11.4477 14.2002 11 14.6479 11 15.2002C11.0001 15.7524 11.4478 16.2002 12 16.2002H12.0078C12.56 16.2002 13.0077 15.7524 13.0078 15.2002ZM11 8.7998V12C11 12.5523 11.4477 13 12 13C12.5523 13 13 12.5523 13 12V8.7998C12.9999 8.24761 12.5522 7.7998 12 7.7998C11.4478 7.7998 11.0001 8.24761 11 8.7998Z" fill="currentColor"/>
<path fill-rule="evenodd" clip-rule="evenodd" d="M19 12C19 8.13401 15.866 5 12 5C8.13401 5 5 8.13401 5 12C5 15.866 8.13401 19 12 19C15.866 19 19 15.866 19 12ZM21 12C21 16.9706 16.9706 21 12 21C7.02944 21 3 16.9706 3 12C3 7.02944 7.02944 3 12 3C16.9706 3 21 7.02944 21 12Z" fill="currentColor"/>
</g>
<defs>
<clipPath id="clip0_94_231">
<rect width="24" height="24" fill="white"/>
</clipPath>
</defs>
</svg>
