<svg width="32" height="32" viewBox="0 0 32 32" fill="none" xmlns="http://www.w3.org/2000/svg">
<path d="M11.25 17.25C10.8358 16.8358 10.8358 16.1642 11.25 15.75C11.6642 15.3358 12.3358 15.3358 12.75 15.75L15 18.0001L19.2734 12.9236C19.6492 12.4772 20.3205 12.4318 20.753 12.8235C21.1682 13.1995 21.2068 13.8384 20.8399 14.2617L16.4068 19.3769C15.7478 20.1372 15.4183 20.5174 14.9833 20.5329C14.5484 20.5484 14.1926 20.1927 13.4812 19.4812L11.25 17.25Z" fill="#1C1C1C"/>
<path fill-rule="evenodd" clip-rule="evenodd" d="M26 16C26 21.5228 21.5228 26 16 26C10.4772 26 6 21.5228 6 16C6 10.4772 10.4772 6 16 6C21.5228 6 26 10.4772 26 16ZM24 16C24 20.4183 20.4183 24 16 24C11.5817 24 8 20.4183 8 16C8 11.5817 11.5817 8 16 8C20.4183 8 24 11.5817 24 16Z" fill="#1C1C1C"/>
</svg>
