<svg width="32" height="32" viewBox="0 0 32 32" fill="none" xmlns="http://www.w3.org/2000/svg">
<path fill-rule="evenodd" clip-rule="evenodd" d="M25.0732 16C25.0732 10.989 21.011 6.92683 16 6.92683C10.989 6.92683 6.92683 10.989 6.92683 16C6.92683 21.011 10.989 25.0732 16 25.0732C21.011 25.0732 25.0732 21.011 25.0732 16ZM21.7759 11.8041C21.2044 11.2328 20.278 11.2327 19.7066 11.8041L14.4188 17.0907L12.2934 14.9653C11.722 14.3939 10.7956 14.3939 10.2241 14.9653C9.65259 15.5368 9.65259 16.4632 10.2241 17.0347L13.3853 20.1959C13.9568 20.767 14.8833 20.7673 15.4546 20.1959L21.7759 13.8735C22.3474 13.302 22.3474 12.3756 21.7759 11.8041Z" fill="currentColor"/>
<path fill-rule="evenodd" clip-rule="evenodd" d="M16 6.92683C21.011 6.92683 25.0732 10.989 25.0732 16C25.0732 21.011 21.011 25.0732 16 25.0732C10.989 25.0732 6.92683 21.011 6.92683 16C6.92683 10.989 10.989 6.92683 16 6.92683ZM16 28C22.6274 28 28 22.6274 28 16C28 9.37258 22.6274 4 16 4C9.37258 4 4 9.37258 4 16C4 22.6274 9.37258 28 16 28Z" fill="currentColor"/>
</svg>
