<svg width="24" height="24" viewBox="0 0 24 24" fill="none" xmlns="http://www.w3.org/2000/svg">
<path d="M8.19998 13C7.86862 12.6686 7.86862 12.1314 8.19999 11.8C8.53136 11.4686 9.06863 11.4686 9.4 11.8L11.2 13.6001L14.6187 9.53889C14.9194 9.18174 15.4564 9.14541 15.8024 9.45881C16.1345 9.75963 16.1654 10.2707 15.872 10.6093L12.3254 14.7015C11.7982 15.3098 11.5347 15.6139 11.1867 15.6263C10.8387 15.6387 10.5541 15.3542 9.98493 14.785L8.19998 13Z" fill="#1C1C1C"/>
<path fill-rule="evenodd" clip-rule="evenodd" d="M20 12C20 16.4183 16.4183 20 12 20C7.58172 20 4 16.4183 4 12C4 7.58172 7.58172 4 12 4C16.4183 4 20 7.58172 20 12ZM18.4 12C18.4 15.5346 15.5346 18.4 12 18.4C8.46538 18.4 5.6 15.5346 5.6 12C5.6 8.46538 8.46538 5.6 12 5.6C15.5346 5.6 18.4 8.46538 18.4 12Z" fill="#1C1C1C"/>
</svg>
