<svg width="16" height="16" viewBox="0 0 16 16" fill="none" xmlns="http://www.w3.org/2000/svg">
<path d="M12.4348 8C12.4348 5.55074 10.4493 3.56522 8 3.56522C5.55074 3.56522 3.56522 5.55074 3.56522 8C3.56522 10.4493 5.55074 12.4348 8 12.4348C10.4493 12.4348 12.4348 10.4493 12.4348 8ZM9.7945 5.88145C10.1001 5.57583 10.5955 5.57583 10.9012 5.88145C11.2068 6.18708 11.2068 6.68248 10.9012 6.98811L7.77072 10.1185C7.46509 10.4242 6.96969 10.4242 6.66406 10.1185L5.09885 8.55333C4.79322 8.2477 4.79322 7.7523 5.09885 7.44667C5.40447 7.14104 5.89987 7.14104 6.2055 7.44667L7.21739 8.45856L9.7945 5.88145ZM14 8C14 11.3137 11.3137 14 8 14C4.68629 14 2 11.3137 2 8C2 4.68629 4.68629 2 8 2C11.3137 2 14 4.68629 14 8Z" fill="currentColor"/>
</svg>
