<svg width="24" height="24" viewBox="0 0 24 24" fill="none" xmlns="http://www.w3.org/2000/svg">
<path fill-rule="evenodd" clip-rule="evenodd" d="M11 4C9.34315 4 8 5.34315 8 7V8H7.00047C5.34392 8 4 9.34284 4 11V17C4 18.6569 5.34315 20 7 20H13C14.6569 20 16 18.6569 16 17V16H17C18.6569 16 20 14.6569 20 13V7C20 5.34315 18.6569 4 17 4H11ZM14 16H11C9.34315 16 8 14.6569 8 13V10H7.00047C6.44788 10 6 10.448 6 11V17C6 17.5523 6.44772 18 7 18H13C13.5523 18 14 17.5523 14 17V16ZM10 7C10 6.44772 10.4477 6 11 6H17C17.5523 6 18 6.44772 18 7V13C18 13.5523 17.5523 14 17 14H11C10.4477 14 10 13.5523 10 13V7Z" fill="currentColor"/>
</svg>
