<svg width="32" height="32" viewBox="0 0 32 32" fill="none" xmlns="http://www.w3.org/2000/svg">
<path fill-rule="evenodd" clip-rule="evenodd" d="M11 9.75C11 7.67893 12.6789 6 14.75 6H22.25C24.3211 6 26 7.67893 26 9.75V17.25C26 19.3211 24.3211 21 22.25 21H21V22.25C21 24.3211 19.3211 26 17.25 26H9.75C7.67893 26 6 24.3211 6 22.25V14.75C6 12.6785 7.6799 11 9.75059 11H11V9.75ZM18.5 21V22.25C18.5 22.9404 17.9404 23.5 17.25 23.5H9.75C9.05964 23.5 8.5 22.9404 8.5 22.25V14.75C8.5 14.06 9.05985 13.5 9.75059 13.5H11H13.5V11V9.75C13.5 9.05964 14.0596 8.5 14.75 8.5H22.25C22.9404 8.5 23.5 9.05964 23.5 9.75V17.25C23.5 17.9404 22.9404 18.5 22.25 18.5H21H18.5V21Z" fill="currentColor"/>
<path d="M14.75 21H18.5V18.5H14.75C14.0596 18.5 13.5 17.9404 13.5 17.25V13.5H11V17.25C11 19.3211 12.6789 21 14.75 21Z" fill="currentColor"/>
<path d="M18.5 21H14.75C12.6789 21 11 19.3211 11 17.25V13.5H9.75059C9.05985 13.5 8.5 14.06 8.5 14.75V22.25C8.5 22.9404 9.05964 23.5 9.75 23.5H17.25C17.9404 23.5 18.5 22.9404 18.5 22.25V21Z" fill="currentColor"/>
<path d="M17.25 11H13.5V13.5H17.25C17.875 13.5 18.5 14.125 18.5 14.75V18.5H21V14.75C21 12.875 19.125 11 17.25 11Z" fill="currentColor"/>
<path d="M13.5 17.25C13.5 17.9404 14.0596 18.5 14.75 18.5H18.5V14.75C18.5 14.125 17.875 13.5 17.25 13.5H13.5V17.25Z" fill="currentColor"/>
</svg>
