<svg width="16" height="16" viewBox="0 0 16 16" fill="none" xmlns="http://www.w3.org/2000/svg">
<path fill-rule="evenodd" clip-rule="evenodd" d="M5 4.25C5 3.00736 6.00736 2 7.25 2H11.75C12.9926 2 14 3.00736 14 4.25V8.75C14 9.99264 12.9926 11 11.75 11H11V11.75C11 12.9926 9.99264 14 8.75 14H4.25C3.00736 14 2 12.9926 2 11.75V7.25C2 6.00713 3.00794 5 4.25035 5H5V4.25ZM9.5 11V11.75C9.5 12.1642 9.16421 12.5 8.75 12.5H4.25C3.83579 12.5 3.5 12.1642 3.5 11.75V7.25C3.5 6.83602 3.83591 6.5 4.25035 6.5H5H6.5V5V4.25C6.5 3.83579 6.83579 3.5 7.25 3.5H11.75C12.1642 3.5 12.5 3.83579 12.5 4.25V8.75C12.5 9.16421 12.1642 9.5 11.75 9.5H11H9.5V11Z" fill="currentColor"/>
<path d="M7.25 11H9.5V9.5H7.25C6.83579 9.5 6.5 9.16421 6.5 8.75V6.5H5V8.75C5 9.99264 6.00736 11 7.25 11Z" fill="currentColor"/>
<path d="M9.5 11H7.25C6.00736 11 5 9.99264 5 8.75V6.5H4.25035C3.83591 6.5 3.5 6.83602 3.5 7.25V11.75C3.5 12.1642 3.83579 12.5 4.25 12.5H8.75C9.16421 12.5 9.5 12.1642 9.5 11.75V11Z" fill="currentColor"/>
<path d="M8.75 5H6.5V6.5H8.75C9.125 6.5 9.5 6.875 9.5 7.25V9.5H11V7.25C11 6.125 9.875 5 8.75 5Z" fill="currentColor"/>
<path d="M6.5 8.75C6.5 9.16421 6.83579 9.5 7.25 9.5H9.5V7.25C9.5 6.875 9.125 6.5 8.75 6.5H6.5V8.75Z" fill="currentColor"/>
</svg>
