<svg width="16" height="16" viewBox="0 0 16 16" fill="none" xmlns="http://www.w3.org/2000/svg">
<path fill-rule="evenodd" clip-rule="evenodd" d="M7.25 2C6.00736 2 5 3.00736 5 4.25V5H4.25035C3.00794 5 2 6.00713 2 7.25V11.75C2 12.9926 3.00736 14 4.25 14H8.75C9.99264 14 11 12.9926 11 11.75V11H11.75C12.9926 11 14 9.99264 14 8.75V4.25C14 3.00736 12.9926 2 11.75 2H7.25ZM9.5 11H7.25C6.00736 11 5 9.99264 5 8.75V6.5H4.25035C3.83591 6.5 3.5 6.83602 3.5 7.25V11.75C3.5 12.1642 3.83579 12.5 4.25 12.5H8.75C9.16421 12.5 9.5 12.1642 9.5 11.75V11ZM6.5 4.25C6.5 3.83579 6.83579 3.5 7.25 3.5H11.75C12.1642 3.5 12.5 3.83579 12.5 4.25V8.75C12.5 9.16421 12.1642 9.5 11.75 9.5H7.25C6.83579 9.5 6.5 9.16421 6.5 8.75V4.25Z" fill="currentColor"/>
</svg>
