<svg width="24" height="24" viewBox="0 0 24 24" fill="none" xmlns="http://www.w3.org/2000/svg">
<path fill-rule="evenodd" clip-rule="evenodd" d="M8 7C8 5.34315 9.34315 4 11 4H17C18.6569 4 20 5.34315 20 7V13C20 14.6569 18.6569 16 17 16H16V17C16 18.6569 14.6569 20 13 20H7C5.34315 20 4 18.6569 4 17V11C4 9.34284 5.34392 8 7.00047 8H8V7ZM14 16V17C14 17.5523 13.5523 18 13 18H7C6.44772 18 6 17.5523 6 17V11C6 10.448 6.44788 10 7.00047 10H8H10V8V7C10 6.44772 10.4477 6 11 6H17C17.5523 6 18 6.44772 18 7V13C18 13.5523 17.5523 14 17 14H16H14V16Z" fill="#1C1C1C"/>
<path d="M11 16H14V14H11C10.4477 14 10 13.5523 10 13V10H8V13C8 14.6569 9.34315 16 11 16Z" fill="#1C1C1C"/>
<path d="M14 16H11C9.34315 16 8 14.6569 8 13V10H7.00047C6.44788 10 6 10.448 6 11V17C6 17.5523 6.44772 18 7 18H13C13.5523 18 14 17.5523 14 17V16Z" fill="#1C1C1C"/>
<path d="M13 8H10V10H13C13.5 10 14 10.5 14 11V14H16V11C16 9.5 14.5 8 13 8Z" fill="#1C1C1C"/>
<path d="M10 13C10 13.5523 10.4477 14 11 14H14V11C14 10.5 13.5 10 13 10H10V13Z" fill="#1C1C1C"/>
</svg>
