<svg width="32" height="32" viewBox="0 0 32 32" fill="none" xmlns="http://www.w3.org/2000/svg">
<path fill-rule="evenodd" clip-rule="evenodd" d="M14.75 6C12.6789 6 11 7.67893 11 9.75V11H9.75059C7.6799 11 6 12.6785 6 14.75V22.25C6 24.3211 7.67893 26 9.75 26H17.25C19.3211 26 21 24.3211 21 22.25V21H22.25C24.3211 21 26 19.3211 26 17.25V9.75C26 7.67893 24.3211 6 22.25 6H14.75ZM18.5 21H14.75C12.6789 21 11 19.3211 11 17.25V13.5H9.75059C9.05985 13.5 8.5 14.06 8.5 14.75V22.25C8.5 22.9404 9.05964 23.5 9.75 23.5H17.25C17.9404 23.5 18.5 22.9404 18.5 22.25V21ZM13.5 9.75C13.5 9.05964 14.0596 8.5 14.75 8.5H22.25C22.9404 8.5 23.5 9.05964 23.5 9.75V17.25C23.5 17.9404 22.9404 18.5 22.25 18.5H14.75C14.0596 18.5 13.5 17.9404 13.5 17.25V9.75Z" fill="#1C1C1C"/>
</svg>
