<svg width="24" height="24" viewBox="0 0 24 24" fill="none" xmlns="http://www.w3.org/2000/svg">
<path fill-rule="evenodd" clip-rule="evenodd" d="M10.875 3C9.01104 3 7.5 4.51104 7.5 6.375V7.5H6.37553C4.51191 7.5 3 9.01069 3 10.875V17.625C3 19.489 4.51104 21 6.375 21H13.125C14.989 21 16.5 19.489 16.5 17.625V16.5H17.625C19.489 16.5 21 14.989 21 13.125V6.375C21 4.51104 19.489 3 17.625 3H10.875ZM14.25 16.5H10.875C9.01104 16.5 7.5 14.989 7.5 13.125V9.75H6.37553C5.75386 9.75 5.25 10.254 5.25 10.875V17.625C5.25 18.2463 5.75368 18.75 6.375 18.75H13.125C13.7463 18.75 14.25 18.2463 14.25 17.625V16.5ZM9.75 6.375C9.75 5.75368 10.2537 5.25 10.875 5.25H17.625C18.2463 5.25 18.75 5.75368 18.75 6.375V13.125C18.75 13.7463 18.2463 14.25 17.625 14.25H10.875C10.2537 14.25 9.75 13.7463 9.75 13.125V6.375Z" fill="currentColor"/>
</svg>
