<svg width="24" height="24" viewBox="0 0 24 24" fill="none" xmlns="http://www.w3.org/2000/svg">
<path fill-rule="evenodd" clip-rule="evenodd" d="M20 12C20 16.4183 16.4183 20 12 20C7.58172 20 4 16.4183 4 12C4 7.58172 7.58172 4 12 4C16.4183 4 20 7.58172 20 12ZM18.4 12C18.4 15.5346 15.5346 18.4 12 18.4C8.46538 18.4 5.6 15.5346 5.6 12C5.6 8.46538 8.46538 5.6 12 5.6C15.5346 5.6 18.4 8.46538 18.4 12Z" fill="#1C1C1C"/>
<path fill-rule="evenodd" clip-rule="evenodd" d="M12 18.4C15.5346 18.4 18.4 15.5346 18.4 12C18.4 8.46538 15.5346 5.6 12 5.6C8.46538 5.6 5.6 8.46538 5.6 12C5.6 15.5346 8.46538 18.4 12 18.4ZM14.9805 10.0918L13.1279 11.9999L14.9805 13.9081C15.2841 14.2208 15.2805 14.7194 14.9723 15.0276C14.6575 15.3423 14.1461 15.3385 13.8361 15.0192L11.9999 13.1279L10.1637 15.0192C9.85366 15.3385 9.34226 15.3423 9.02755 15.0276C8.71934 14.7194 8.71566 14.2208 9.01928 13.9081L10.8719 11.9999L9.01929 10.0918C8.71566 9.77909 8.71934 9.28053 9.02755 8.97232C9.34226 8.65761 9.85366 8.66139 10.1637 8.9807L11.9999 10.8719L13.8361 8.98071C14.1462 8.66139 14.6576 8.65761 14.9723 8.97232C15.2805 9.28053 15.2842 9.77909 14.9805 10.0918Z" fill="#1C1C1C"/>
</svg>
