<svg width="24" height="24" viewBox="0 0 24 24" fill="none" xmlns="http://www.w3.org/2000/svg">
<path d="M17.7046 6.29537C18.0985 6.68919 18.0985 7.3277 17.7046 7.72152L13.4262 12L17.7046 16.2785C18.0985 16.6723 18.0985 17.3108 17.7046 17.7046C17.3108 18.0985 16.6723 18.0985 16.2785 17.7046L12 13.4262L7.72153 17.7046C7.3277 18.0985 6.68919 18.0985 6.29537 17.7046C5.90154 17.3108 5.90154 16.6723 6.29537 16.2785L10.5738 12L6.29537 7.72153C5.90154 7.3277 5.90154 6.68919 6.29537 6.29537C6.68919 5.90154 7.3277 5.90154 7.72153 6.29537L12 10.5738L16.2785 6.29537C16.6723 5.90154 17.3108 5.90154 17.7046 6.29537Z" fill="#1C1C1C"/>
</svg>
