<svg width="16" height="16" viewBox="0 0 16 16" fill="none" xmlns="http://www.w3.org/2000/svg">
<path d="M12.6667 8C12.6667 5.42267 10.5773 3.33333 8 3.33333C5.42267 3.33333 3.33333 5.42267 3.33333 8C3.33333 10.5773 5.42267 12.6667 8 12.6667C10.5773 12.6667 12.6667 10.5773 12.6667 8ZM9.12847 5.92882C9.38882 5.66847 9.81083 5.66847 10.0712 5.92882C10.3315 6.18917 10.3315 6.61118 10.0712 6.87153L8.94271 8L10.0712 9.12847C10.3315 9.38882 10.3315 9.81083 10.0712 10.0712C9.81083 10.3315 9.38882 10.3315 9.12847 10.0712L8 8.94271L6.87153 10.0712C6.61118 10.3315 6.18917 10.3315 5.92882 10.0712C5.66847 9.81083 5.66847 9.38882 5.92882 9.12847L7.05729 8L5.92882 6.87153C5.66847 6.61118 5.66847 6.18917 5.92882 5.92882C6.18917 5.66847 6.61118 5.66847 6.87153 5.92882L8 7.05729L9.12847 5.92882ZM14 8C14 11.3137 11.3137 14 8 14C4.68629 14 2 11.3137 2 8C2 4.68629 4.68629 2 8 2C11.3137 2 14 4.68629 14 8Z" fill="currentColor"/>
</svg>
