<svg width="32" height="32" viewBox="0 0 32 32" fill="none" xmlns="http://www.w3.org/2000/svg">
<path fill-rule="evenodd" clip-rule="evenodd" d="M26 16C26 21.5228 21.5228 26 16 26C10.4772 26 6 21.5228 6 16C6 10.4772 10.4772 6 16 6C21.5228 6 26 10.4772 26 16ZM24 16C24 20.4183 20.4183 24 16 24C11.5817 24 8 20.4183 8 16C8 11.5817 11.5817 8 16 8C20.4183 8 24 11.5817 24 16Z" fill="currentColor"/>
<path fill-rule="evenodd" clip-rule="evenodd" d="M16 24C20.4183 24 24 20.4183 24 16C24 11.5817 20.4183 8 16 8C11.5817 8 8 11.5817 8 16C8 20.4183 11.5817 24 16 24ZM19.7257 13.6148L17.4099 15.9999L19.7257 18.3851C20.1052 18.7761 20.1006 19.3992 19.7153 19.7845C19.3219 20.1779 18.6827 20.1732 18.2951 19.774L15.9999 17.4099L13.7046 19.774C13.3171 20.1732 12.6778 20.1779 12.2844 19.7845C11.8992 19.3993 11.8946 18.7761 12.2741 18.3851L14.5899 15.9999L12.2741 13.6148C11.8946 13.2239 11.8992 12.6007 12.2844 12.2154C12.6778 11.822 13.3171 11.8267 13.7046 12.2259L15.9999 14.5899L18.2952 12.2259C18.6827 11.8267 19.3219 11.822 19.7153 12.2154C20.1006 12.6007 20.1052 13.2239 19.7257 13.6148Z" fill="currentColor"/>
</svg>
