<svg width="32" height="32" viewBox="0 0 32 32" fill="none" xmlns="http://www.w3.org/2000/svg">
<path fill-rule="evenodd" clip-rule="evenodd" d="M24.4468 12.5124C24.4468 11.5761 24.4461 10.9509 24.4069 10.4702C24.369 10.0048 24.3017 9.78858 24.2314 9.64984C24.0416 9.27602 23.7385 8.9711 23.3657 8.78045C23.2271 8.7096 23.0112 8.64224 22.5469 8.60417C22.0677 8.56488 21.4445 8.5641 20.5113 8.5641H12.2584C11.5477 8.5641 11.441 8.57618 11.3608 8.59916C11.254 8.62977 11.154 8.68009 11.0655 8.7474C10.9992 8.79791 10.9257 8.87565 10.4991 9.44651L5.80759 15.7236C5.73608 15.8192 5.68118 15.894 5.63405 15.9589C5.62781 15.9675 5.62203 15.9758 5.61651 15.9838C5.61261 15.9894 5.60883 15.9948 5.60513 16C5.60883 16.0052 5.61261 16.0106 5.61651 16.0162C5.62203 16.0242 5.62781 16.0325 5.63405 16.0411C5.68118 16.106 5.73608 16.1808 5.80759 16.2764L10.4991 22.5535C10.9257 23.1243 10.9992 23.2021 11.0655 23.2526C11.154 23.3199 11.254 23.3702 11.3608 23.4008C11.441 23.4238 11.5477 23.4359 12.2584 23.4359H20.5113C21.4445 23.4359 22.0677 23.4351 22.5469 23.3958C23.0112 23.3578 23.2271 23.2904 23.3657 23.2196C23.7385 23.0289 24.0416 22.724 24.2314 22.3502C24.3017 22.2114 24.369 21.9952 24.4069 21.5298C24.4461 21.0491 24.4468 20.4239 24.4468 19.4876V12.5124ZM21.1965 11.8243C20.6981 11.3238 19.8899 11.3239 19.3913 11.8243L17.0356 14.1871L14.6809 11.8243C14.1823 11.3239 13.3741 11.3238 12.8757 11.8243C12.3775 12.325 12.3774 13.1367 12.8757 13.6372L15.2294 16L12.8757 18.3628C12.3774 18.8633 12.3775 19.675 12.8757 20.1757C13.3741 20.6762 14.1823 20.6761 14.6809 20.1757L17.0356 17.8119L19.3913 20.1757C19.8899 20.6761 20.6981 20.6762 21.1965 20.1757C21.6947 19.6749 21.6949 18.8633 21.1965 18.3628L18.8418 16L21.1965 13.6372C21.6949 13.1367 21.6947 12.3251 21.1965 11.8243Z" fill="currentColor"/>
<path fill-rule="evenodd" clip-rule="evenodd" d="M24.4069 10.4702C24.4461 10.9509 24.4468 11.5761 24.4468 12.5124V19.4876C24.4468 20.4239 24.4461 21.0491 24.4069 21.5298C24.369 21.9952 24.3017 22.2114 24.2314 22.3502C24.0416 22.724 23.7385 23.0289 23.3657 23.2196C23.2271 23.2904 23.0112 23.3578 22.5469 23.3958C22.0677 23.4351 21.4445 23.4359 20.5113 23.4359H12.2584C11.5477 23.4359 11.441 23.4238 11.3608 23.4008C11.254 23.3702 11.154 23.3199 11.0655 23.2526C10.9992 23.2021 10.9257 23.1243 10.4991 22.5535L5.80759 16.2764C5.73608 16.1808 5.68118 16.106 5.63405 16.0411C5.62781 16.0325 5.62203 16.0242 5.61651 16.0162C5.61261 16.0106 5.60883 16.0052 5.60513 16C5.60883 15.9948 5.61261 15.9894 5.61651 15.9838C5.62203 15.9758 5.62781 15.9675 5.63405 15.9589C5.68118 15.894 5.73608 15.8192 5.80759 15.7236L10.4991 9.44651C10.9257 8.87565 10.9992 8.79791 11.0655 8.7474C11.154 8.68009 11.254 8.62977 11.3608 8.59916C11.441 8.57618 11.5477 8.5641 12.2584 8.5641H20.5113C21.4445 8.5641 22.0677 8.56488 22.5469 8.60417C23.0112 8.64224 23.2271 8.7096 23.3657 8.78045C23.7385 8.9711 24.0416 9.27602 24.2314 9.64984C24.3017 9.78858 24.369 10.0048 24.4069 10.4702ZM27 19.5267V19.4876V12.5124V12.4733C27 11.5964 27 10.8613 26.9511 10.2608C26.9003 9.63646 26.7899 9.04545 26.5053 8.48498C26.0705 7.62852 25.3767 6.93201 24.5236 6.49579C23.9654 6.21041 23.3763 6.10008 22.7543 6.04908C22.1554 5.99998 21.4223 5.99999 20.5471 6L20.5113 6H11.8415C11.4311 6.00353 11.0379 6.0248 10.6596 6.13321C10.2487 6.25103 9.86323 6.44479 9.52267 6.70413C9.13282 7.001 8.83735 7.39746 8.52532 7.81616C8.50281 7.84635 8.48023 7.87666 8.45751 7.90705L3.76604 14.1841C3.74664 14.2101 3.72614 14.2372 3.70481 14.2654C3.52204 14.507 3.27793 14.8298 3.13672 15.2097L3.07788 15.396C2.97404 15.7919 2.97404 16.2081 3.07788 16.604C3.19896 17.0656 3.49366 17.4554 3.7056 17.7357C3.72664 17.7635 3.74687 17.7903 3.76604 17.8159L8.45751 24.0929C8.48023 24.1233 8.50282 24.1537 8.52533 24.1839C8.83736 24.6025 9.13283 24.999 9.52267 25.2959C9.86323 25.5552 10.2487 25.749 10.6596 25.8668C11.0379 25.9752 11.4311 25.9965 11.8415 26H20.5113H20.5472C21.4223 26 22.1554 26 22.7543 25.9509C23.3763 25.8999 23.9654 25.7896 24.5236 25.5042C25.3767 25.068 26.0705 24.3715 26.5053 23.515C26.7899 22.9545 26.9003 22.3635 26.9511 21.7392C27 21.1387 27 20.4036 27 19.5267Z" fill="currentColor"/>
</svg>
