<svg width="24" height="24" viewBox="0 0 24 24" fill="none" xmlns="http://www.w3.org/2000/svg">
<path fill-rule="evenodd" clip-rule="evenodd" d="M18.4368 9.511C18.4368 8.84493 18.4365 8.39208 18.4078 8.04206C18.3798 7.70107 18.3289 7.52645 18.2666 7.40481C18.1167 7.11217 17.8775 6.87415 17.5835 6.72502C17.4612 6.66304 17.2857 6.61237 16.9431 6.58451C16.5913 6.55592 16.1362 6.55565 15.4669 6.55565H9.5263C9.02318 6.55565 8.9236 6.56245 8.84316 6.58527C8.75001 6.61174 8.66236 6.65537 8.58518 6.71363C8.51849 6.76398 8.45317 6.83889 8.15087 7.23999L4.77413 11.7197C4.6667 11.8623 4.61105 11.9378 4.57415 11.9947L4.57219 11.9974L4.57033 12L4.57219 12.0026L4.57415 12.0053C4.61105 12.0622 4.66671 12.1377 4.77413 12.2803L8.15087 16.76C8.45317 17.1611 8.51849 17.236 8.58518 17.2864C8.66236 17.3446 8.75001 17.3883 8.84316 17.4147C8.9236 17.4376 9.02318 17.4444 9.5263 17.4444H15.4669C16.1362 17.4444 16.5913 17.4441 16.9431 17.4155C17.2857 17.3876 17.4612 17.337 17.5835 17.275C17.8775 17.1259 18.1167 16.8878 18.2666 16.5952C18.3289 16.4735 18.3798 16.2989 18.4078 15.9579C18.4365 15.6079 18.4368 15.1551 18.4368 14.489V9.511ZM15.863 9.1168C15.5578 8.81307 15.063 8.81307 14.7578 9.1168L12.9656 10.9002L11.1735 9.1168C10.8682 8.81307 10.3735 8.81307 10.0682 9.1168C9.76299 9.42054 9.76299 9.91287 10.0682 10.2166L11.8604 12L10.0682 13.7834C9.76299 14.0871 9.76299 14.5795 10.0682 14.8832C10.3735 15.1869 10.8682 15.1869 11.1735 14.8832L12.9656 13.0998L14.7578 14.8832C15.063 15.1869 15.5578 15.1869 15.863 14.8832C16.1683 14.5795 16.1683 14.0871 15.863 13.7834L14.0709 12L15.863 10.2166C16.1683 9.91287 16.1683 9.42054 15.863 9.1168Z" fill="currentColor"/>
<path fill-rule="evenodd" clip-rule="evenodd" d="M18.4078 8.04206C18.4365 8.39208 18.4368 8.84493 18.4368 9.511V14.489C18.4368 15.1551 18.4365 15.6079 18.4078 15.9579C18.3798 16.2989 18.3289 16.4735 18.2666 16.5952C18.1167 16.8878 17.8775 17.1259 17.5835 17.275C17.4612 17.337 17.2857 17.3876 16.9431 17.4155C16.5913 17.4441 16.1362 17.4444 15.4669 17.4444H9.5263C9.02318 17.4444 8.9236 17.4376 8.84316 17.4147C8.75001 17.3883 8.66236 17.3446 8.58518 17.2864C8.51849 17.236 8.45317 17.1611 8.15087 16.76L4.77413 12.2803C4.66671 12.1377 4.61105 12.0622 4.57415 12.0053L4.57219 12.0026L4.57033 12L4.57219 11.9974L4.57415 11.9947C4.61105 11.9378 4.6667 11.8623 4.77413 11.7197L8.15087 7.23999C8.45317 6.83889 8.51849 6.76398 8.58518 6.71363C8.66236 6.65537 8.75001 6.61174 8.84316 6.58527C8.9236 6.56245 9.02318 6.55565 9.5263 6.55565H15.4669C16.1362 6.55565 16.5913 6.55592 16.9431 6.58451C17.2857 6.61237 17.4612 6.66304 17.5835 6.72502C17.8775 6.87415 18.1167 7.11217 18.2666 7.40481C18.3289 7.52645 18.3798 7.70107 18.4078 8.04206ZM20 14.5308V14.489V9.511V9.46921C20 8.84754 20 8.33394 19.9657 7.91522C19.9298 7.47807 19.8528 7.07589 19.6596 6.69844C19.3599 6.11317 18.8815 5.63712 18.2933 5.33887C17.914 5.14655 17.5098 5.07002 17.0705 5.0343C16.6498 5.00008 16.1336 5.0001 15.5089 5.00012L15.4669 5.00012H9.5263C9.49972 5.00012 9.47336 5.00009 9.44721 5.00006C9.06701 4.99963 8.73183 4.99926 8.41344 5.08974C8.13397 5.1692 7.87178 5.29999 7.64024 5.47483C7.37608 5.67432 7.17511 5.94156 6.94692 6.245C6.93162 6.26535 6.91619 6.28586 6.90062 6.30652L3.52388 10.787C3.50981 10.8057 3.49523 10.8248 3.48029 10.8445C3.32529 11.0482 3.13096 11.3036 3.05141 11.6043C2.98286 11.8636 2.98286 12.1364 3.05141 12.3957C3.13096 12.6964 3.32529 12.9518 3.48029 13.1555C3.49523 13.1751 3.50981 13.1943 3.52388 13.213L6.90062 17.6935C6.9162 17.7141 6.93162 17.7347 6.94692 17.755C7.17512 18.0584 7.37609 18.3257 7.64024 18.5252C7.87178 18.7 8.13397 18.8308 8.41344 18.9103C8.73183 19.0007 9.06702 19.0004 9.44722 18.9999C9.47336 18.9999 9.49972 18.9999 9.5263 18.9999H15.4669H15.5089C16.1336 18.9999 16.6498 18.9999 17.0705 18.9657C17.5098 18.93 17.914 18.8535 18.2933 18.6611C18.8815 18.3629 19.3599 17.8868 19.6596 17.3016C19.8528 16.9241 19.9298 16.5219 19.9657 16.0848C20 15.6661 20 15.1525 20 14.5308Z" fill="currentColor"/>
</svg>
