<svg width="32" height="32" viewBox="0 0 32 32" fill="none" xmlns="http://www.w3.org/2000/svg">
<path d="M24.4468 12.5124C24.4468 11.5761 24.4461 10.9509 24.4069 10.4702C24.369 10.0048 24.3017 9.78858 24.2314 9.64984C24.0416 9.27602 23.7385 8.9711 23.3657 8.78045C23.2271 8.7096 23.0112 8.64224 22.5469 8.60417C22.0677 8.56488 21.4445 8.5641 20.5113 8.5641H12.2584C11.5477 8.5641 11.441 8.57618 11.3608 8.59916C11.254 8.62977 11.154 8.68009 11.0655 8.7474C10.9992 8.79791 10.9257 8.87565 10.4991 9.44651L5.80759 15.7236C5.73608 15.8192 5.68118 15.894 5.63405 15.9589C5.6234 15.9736 5.61407 15.9875 5.60513 16C5.61407 16.0125 5.6234 16.0264 5.63405 16.0411C5.68118 16.106 5.73608 16.1808 5.80759 16.2764L10.4991 22.5535C10.9257 23.1243 10.9992 23.2021 11.0655 23.2526C11.154 23.3199 11.254 23.3702 11.3608 23.4008C11.441 23.4238 11.5477 23.4359 12.2584 23.4359H20.5113C21.4445 23.4359 22.0677 23.4351 22.5469 23.3958C23.0112 23.3578 23.2271 23.2904 23.3657 23.2196C23.7385 23.0289 24.0416 22.724 24.2314 22.3502C24.3017 22.2114 24.369 21.9952 24.4069 21.5298C24.4461 21.0491 24.4468 20.4239 24.4468 19.4876V12.5124ZM19.3913 11.8243C19.8899 11.3239 20.6981 11.3238 21.1965 11.8243C21.6947 12.3251 21.6949 13.1367 21.1965 13.6372L18.8418 16L21.1965 18.3628C21.6949 18.8633 21.6947 19.6749 21.1965 20.1757C20.6981 20.6762 19.8899 20.6761 19.3913 20.1757L17.0356 17.8119L14.6809 20.1757C14.1823 20.6761 13.3741 20.6762 12.8757 20.1757C12.3775 19.675 12.3774 18.8633 12.8757 18.3628L15.2294 16L12.8757 13.6372C12.3774 13.1367 12.3775 12.3251 12.8757 11.8243C13.3741 11.3238 14.1823 11.3239 14.6809 11.8243L17.0356 14.1871L19.3913 11.8243ZM27 19.4876C27 20.3817 27.0007 21.1298 26.9511 21.7392C26.9003 22.3635 26.7899 22.9545 26.5053 23.515C26.0705 24.3715 25.3767 25.068 24.5236 25.5042C23.9654 25.7896 23.3764 25.8999 22.7543 25.9509C22.1472 26.0007 21.4023 26 20.5113 26H11.8415C11.4311 25.9965 11.0379 25.9752 10.6596 25.8668C10.2487 25.749 9.86323 25.5552 9.52267 25.2959C9.10471 24.9776 8.79523 24.5448 8.45751 24.0929L3.76604 17.8159C3.55391 17.5321 3.21099 17.1114 3.07788 16.604C2.97404 16.2081 2.97404 15.7919 3.07788 15.396L3.13672 15.2097C3.29442 14.7854 3.58043 14.4324 3.76604 14.1841L8.45751 7.90705C8.79523 7.45516 9.10471 7.02241 9.52267 6.70413C9.86323 6.44479 10.2487 6.25103 10.6596 6.13321C11.0379 6.0248 11.4311 6.00353 11.8415 6H20.5113C21.4023 6 22.1472 5.99932 22.7543 6.04908C23.3764 6.10008 23.9654 6.21041 24.5236 6.49579C25.3767 6.93201 26.0705 7.62852 26.5053 8.48498C26.7899 9.04545 26.9003 9.63646 26.9511 10.2608C27.0007 10.8702 27 11.6183 27 12.5124V19.4876Z" fill="currentColor"/>
</svg>
