<svg width="16" height="16" viewBox="0 0 16 16" fill="none" xmlns="http://www.w3.org/2000/svg">
<path fill-rule="evenodd" clip-rule="evenodd" d="M12.4348 6.31626C12.4348 5.86094 12.4337 5.56702 12.4154 5.34384C12.3979 5.13055 12.3687 5.05209 12.3492 5.01387C12.2736 4.86618 12.1524 4.74349 12.0007 4.66644C11.959 4.64528 11.876 4.6152 11.6593 4.59756C11.4338 4.57922 11.1375 4.57906 10.681 4.57906H6.66607C6.50353 4.57906 6.41096 4.57948 6.341 4.58317C6.28226 4.58629 6.26825 4.59097 6.27069 4.59037C6.23727 4.59995 6.20584 4.61529 6.17898 4.6356C6.17507 4.63904 6.16172 4.65211 6.13414 4.68494C6.08957 4.73803 6.0341 4.8112 5.93645 4.94089L3.65383 7.97225C3.65006 7.97725 3.64631 7.98206 3.64266 7.98674C3.63914 7.99126 3.6357 7.99565 3.63243 8C3.6357 8.00435 3.63914 8.00875 3.64266 8.01326C3.64631 8.01794 3.65007 8.02275 3.65383 8.02775L5.93645 11.0591C6.0341 11.1888 6.08957 11.262 6.13414 11.3151C6.16172 11.3479 6.17507 11.361 6.17898 11.3644C6.20584 11.3847 6.23727 11.4001 6.27069 11.4096C6.26825 11.409 6.28226 11.4137 6.341 11.4168C6.41096 11.4205 6.50353 11.4209 6.66607 11.4209H10.681C11.1375 11.4209 11.4338 11.4208 11.6593 11.4024C11.876 11.3848 11.959 11.3547 12.0007 11.3336C12.1524 11.2565 12.2736 11.1338 12.3492 10.9861C12.3687 10.9479 12.3979 10.8694 12.4154 10.6562C12.4337 10.433 12.4348 10.1391 12.4348 9.68374V6.31626ZM11.1325 5.86603C10.8287 5.55601 10.3333 5.55358 10.0258 5.85986L8.99047 6.89087L7.95514 5.85986C7.64762 5.55353 7.15219 5.55586 6.84848 5.86603C6.54487 6.17616 6.54834 6.67598 6.85561 6.98235L7.87668 8L6.85561 9.01765C6.54834 9.32402 6.54487 9.82384 6.84848 10.134C7.15219 10.4441 7.64762 10.4465 7.95514 10.1401L8.99047 9.1081L10.0258 10.1401C10.3333 10.4464 10.8287 10.444 11.1325 10.134C11.4361 9.82378 11.4328 9.32401 11.1253 9.01765L10.1032 8L11.1253 6.98235C11.4328 6.67599 11.4361 6.17622 11.1325 5.86603Z" fill="currentColor"/>
<path fill-rule="evenodd" clip-rule="evenodd" d="M12.4154 5.34384C12.4337 5.56702 12.4348 5.86094 12.4348 6.31626V9.68374C12.4348 10.1391 12.4337 10.433 12.4154 10.6562C12.3979 10.8694 12.3687 10.9479 12.3492 10.9861C12.2736 11.1338 12.1524 11.2565 12.0007 11.3336C11.959 11.3547 11.876 11.3848 11.6593 11.4024C11.4338 11.4208 11.1375 11.4209 10.681 11.4209H6.66607C6.50353 11.4209 6.41096 11.4205 6.341 11.4168C6.28226 11.4137 6.26825 11.409 6.27069 11.4096C6.23727 11.4001 6.20584 11.3847 6.17898 11.3644C6.17507 11.361 6.16172 11.3479 6.13414 11.3151C6.08957 11.262 6.0341 11.1888 5.93645 11.0591L3.65383 8.02775C3.65007 8.02275 3.64631 8.01794 3.64266 8.01326C3.63914 8.00875 3.6357 8.00435 3.63243 8C3.6357 7.99565 3.63914 7.99126 3.64266 7.98674C3.64631 7.98206 3.65006 7.97725 3.65383 7.97225L5.93645 4.94089C6.0341 4.8112 6.08957 4.73803 6.13414 4.68494C6.16172 4.65211 6.17507 4.63904 6.17898 4.6356C6.20584 4.61529 6.23727 4.59995 6.27069 4.59037C6.26825 4.59097 6.28226 4.58629 6.341 4.58317C6.41096 4.57948 6.50353 4.57906 6.66607 4.57906H10.681C11.1375 4.57906 11.4338 4.57922 11.6593 4.59756C11.876 4.6152 11.959 4.64528 12.0007 4.66644C12.1524 4.74349 12.2736 4.86618 12.3492 5.01387C12.3687 5.05209 12.3979 5.13055 12.4154 5.34384ZM14 9.70506V9.68374V6.31626V6.29494C14 5.87503 14 5.51164 13.9755 5.21329C13.9499 4.90069 13.8932 4.58953 13.7401 4.29021C13.5118 3.8438 13.1485 3.48182 12.7038 3.25612C12.4065 3.10527 12.0975 3.04921 11.7857 3.02381C11.4943 3.00009 11.1406 3.00013 10.7306 3.00016L10.681 3.00017H6.66607C6.64571 3.00017 6.62524 3.00013 6.60468 3.00008C6.35763 2.99958 6.09674 2.99906 5.84678 3.07007C5.62843 3.13218 5.4222 3.2349 5.24046 3.37228C5.03213 3.52987 4.87489 3.73963 4.72728 3.93654C4.71485 3.95311 4.7025 3.96959 4.69018 3.98595L2.40757 7.0173C2.39885 7.02887 2.38927 7.0414 2.379 7.05482C2.29256 7.16781 2.15712 7.34485 2.0774 7.55799L2.04377 7.66284C1.98541 7.8838 1.98541 8.1162 2.04377 8.33716C2.11237 8.59675 2.27853 8.81388 2.37882 8.94494C2.38916 8.95846 2.3988 8.97106 2.40757 8.9827L4.69018 12.0141C4.70249 12.0304 4.71485 12.0469 4.72727 12.0635C4.87488 12.2604 5.03213 12.4701 5.24046 12.6277C5.4222 12.7651 5.62843 12.8678 5.84678 12.9299C6.09675 13.0009 6.35763 13.0004 6.60468 12.9999C6.62525 12.9999 6.64572 12.9998 6.66607 12.9998H10.681C10.6977 12.9998 10.7142 12.9998 10.7306 12.9998C11.1406 12.9999 11.4943 12.9999 11.7857 12.9762C12.0975 12.9508 12.4065 12.8947 12.7038 12.7439C13.1485 12.5182 13.5118 12.1562 13.7401 11.7098C13.8932 11.4105 13.9499 11.0993 13.9755 10.7867C14 10.4884 14 10.125 14 9.70506Z" fill="currentColor"/>
</svg>
