<svg width="24" height="24" viewBox="0 0 24 24" fill="none" xmlns="http://www.w3.org/2000/svg">
<path d="M18.4368 9.511C18.4368 8.84493 18.4365 8.39208 18.4078 8.04206C18.3798 7.70107 18.3289 7.52645 18.2666 7.40481C18.1167 7.11217 17.8775 6.87415 17.5835 6.72502C17.4612 6.66304 17.2857 6.61237 16.9431 6.58451C16.5913 6.55592 16.1362 6.55565 15.4669 6.55565H9.5263C9.02318 6.55565 8.9236 6.56245 8.84316 6.58527C8.75001 6.61174 8.66236 6.65537 8.58518 6.71363C8.51849 6.76398 8.45317 6.83889 8.15087 7.23999L4.77413 11.7197C4.6667 11.8623 4.61105 11.9378 4.57415 11.9947C4.57291 11.9966 4.57145 11.9983 4.57033 12C4.57145 12.0017 4.57291 12.0034 4.57415 12.0053C4.61105 12.0622 4.66671 12.1377 4.77413 12.2803L8.15087 16.76C8.45317 17.1611 8.51849 17.236 8.58518 17.2864C8.66236 17.3446 8.75001 17.3883 8.84316 17.4147C8.9236 17.4376 9.02318 17.4444 9.5263 17.4444H15.4669C16.1362 17.4444 16.5913 17.4441 16.9431 17.4155C17.2857 17.3876 17.4612 17.337 17.5835 17.275C17.8775 17.1259 18.1167 16.8878 18.2666 16.5952C18.3289 16.4736 18.3798 16.2989 18.4078 15.9579C18.4365 15.6079 18.4368 15.1551 18.4368 14.489V9.511ZM14.7578 9.1168C15.063 8.81307 15.5578 8.81307 15.863 9.1168C16.1683 9.42054 16.1683 9.91287 15.863 10.2166L14.0709 12L15.863 13.7834C16.1683 14.0871 16.1683 14.5795 15.863 14.8832C15.5578 15.1869 15.063 15.1869 14.7578 14.8832L12.9656 13.0998L11.1735 14.8832C10.8682 15.1869 10.3735 15.1869 10.0682 14.8832C9.76299 14.5795 9.76299 14.0871 10.0682 13.7834L11.8604 12L10.0682 10.2166C9.76299 9.91287 9.76299 9.42054 10.0682 9.1168C10.3735 8.81307 10.8682 8.81307 11.1735 9.1168L12.9656 10.9002L14.7578 9.1168ZM20 14.489C20 15.1295 20.0008 15.6567 19.9657 16.0848C19.9298 16.5219 19.8528 16.9241 19.6596 17.3016C19.3599 17.8868 18.8815 18.3629 18.2933 18.6611C17.914 18.8535 17.5098 18.93 17.0705 18.9657C16.6404 19.0007 16.1105 18.9999 15.4669 18.9999H9.5263C9.11319 18.9999 8.75373 19.007 8.41344 18.9103C8.13397 18.8308 7.87178 18.7 7.64024 18.5252C7.35837 18.3123 7.14845 18.0223 6.90062 17.6935L3.52388 13.213C3.36382 13.0006 3.13863 12.7254 3.05141 12.3957C2.98286 12.1364 2.98286 11.8636 3.05141 11.6043C3.13863 11.2746 3.36382 10.9994 3.52388 10.787L6.90062 6.30652C7.14845 5.9777 7.35837 5.68769 7.64024 5.47483C7.87178 5.29999 8.13397 5.1692 8.41344 5.08974C8.75373 4.99303 9.11319 5.00011 9.5263 5.00012H15.4669C16.1105 5.00012 16.6404 4.99932 17.0705 5.0343C17.5098 5.07002 17.914 5.14655 18.2933 5.33887C18.8815 5.63712 19.3599 6.11317 19.6596 6.69844C19.8528 7.07589 19.9298 7.47807 19.9657 7.91522C20.0008 8.34328 20 8.87052 20 9.511V14.489Z" fill="currentColor"/>
</svg>
