<svg width="32" height="32" viewBox="0 0 32 32" fill="none" xmlns="http://www.w3.org/2000/svg">
<path fill-rule="evenodd" clip-rule="evenodd" d="M15.7343 10.7404C15.3624 10.3534 15.3624 9.74173 15.7343 9.35468L17.8803 7.12137C19.317 5.62621 21.6463 5.62621 23.083 7.12137L23.9066 7.97845C25.3433 9.47359 25.3433 11.8977 23.9066 13.3929L21.0949 16.3191L15.7343 10.7404ZM19.2028 9.35467C18.8309 9.74172 18.8309 10.3534 19.2028 10.7404L20.3738 11.959C20.7673 12.3685 21.4224 12.3685 21.8159 11.959L22.1724 11.5881C22.6513 11.0897 22.6512 10.2816 22.1723 9.78326L21.3488 8.92618C20.8699 8.4278 20.0934 8.4278 19.6145 8.92618L19.2028 9.35467Z" fill="currentColor"/>
<path fill-rule="evenodd" clip-rule="evenodd" d="M15.8277 9.25745C16.2212 8.84794 16.8764 8.84794 17.2699 9.25745L17.6173 9.61899C17.9892 10.006 17.9892 10.6177 17.6173 11.0047L10.7227 18.1798C10.6044 18.3029 10.5197 18.4541 10.4764 18.6192L9.21106 23.4476H25C25.5523 23.4476 26 23.8953 26 24.4476V25C26 25.5523 25.5523 26 25 26H7.29583C6.64058 26 6.16239 25.3803 6.3285 24.7465L8.28161 17.2937C8.32487 17.1286 8.40965 16.9774 8.52788 16.8543L15.8277 9.25745Z" fill="currentColor"/>
<path fill-rule="evenodd" clip-rule="evenodd" d="M14.1488 21.3238C13.7769 20.9367 13.7769 20.3251 14.1488 19.938L19.5066 14.3622C19.9001 13.9527 20.5553 13.9527 20.9487 14.3622L21.9619 15.4166L15.9384 21.6853C15.5449 22.0948 14.8897 22.0948 14.4962 21.6853L14.1488 21.3238Z" fill="currentColor"/>
</svg>
