<svg width="24" height="24" viewBox="0 0 24 24" fill="none" xmlns="http://www.w3.org/2000/svg">
<path d="M6.6447 15.8729C6.4041 16.1135 6.38345 16.1396 6.37127 16.1581C6.34902 16.1918 6.33196 16.229 6.31951 16.2674C6.31271 16.2885 6.30444 16.32 6.26678 16.659L6.13202 17.867L7.34097 17.7332C7.67996 17.6956 7.71153 17.6873 7.73256 17.6805C7.77102 17.668 7.80819 17.651 7.84193 17.6287C7.86037 17.6166 7.8865 17.5959 8.12708 17.3553L14.8125 10.6699L13.3301 9.18755L6.6447 15.8729ZM17.6923 6.30774C17.2827 5.89822 16.6194 5.89822 16.2099 6.30774L14.7441 7.77255L16.2265 9.25493L17.6923 7.79013C18.1018 7.3806 18.1018 6.71727 17.6923 6.30774Z" fill="currentColor"/>
<path d="M8.94249 19.2986C9.16949 19.1489 9.3565 18.9549 9.54111 18.7703L16.227 12.0844L14.8125 10.6699L8.12708 17.3553C7.8865 17.5959 7.86037 17.6166 7.84193 17.6287C7.80819 17.651 7.77102 17.668 7.73256 17.6805C7.71153 17.6873 7.67996 17.6956 7.34097 17.7332L6.13202 17.867L6.26678 16.659C6.30444 16.32 6.31271 16.2885 6.31951 16.2674C6.33196 16.229 6.34902 16.1918 6.37127 16.1581C6.38345 16.1396 6.4041 16.1135 6.6447 15.8729L13.3301 9.18755L11.9156 7.77304L5.2297 14.4589C5.04508 14.6435 4.85108 14.8305 4.70139 15.0575C4.58001 15.2416 4.48416 15.4414 4.41624 15.6512C4.33243 15.9101 4.3074 16.1787 4.27855 16.4383L4.0061 18.8894C3.97259 19.1913 4.07842 19.492 4.2932 19.7068C4.50798 19.9216 4.80868 20.0274 5.11056 19.9939L7.56167 19.7214C7.82135 19.6926 8.08985 19.6676 8.34876 19.5838C8.55856 19.5158 8.75837 19.42 8.94249 19.2986Z" fill="currentColor"/>
<path d="M19.1073 4.89274C17.9168 3.7023 15.9864 3.70253 14.7959 4.89274L13.3301 6.35852L14.7441 7.77255L16.2099 6.30774C16.6194 5.89822 17.2827 5.89822 17.6923 6.30774C18.1018 6.71727 18.1018 7.3806 17.6923 7.79013L16.2265 9.25493L17.6415 10.6699L19.1073 9.20415C20.2975 8.01357 20.2977 6.08318 19.1073 4.89274Z" fill="currentColor"/>
</svg>
