<svg width="32" height="32" viewBox="0 0 32 32" fill="none" xmlns="http://www.w3.org/2000/svg">
<path d="M8.39538 21.2862C8.06311 21.6184 8.02047 21.669 7.99146 21.713C7.95188 21.7731 7.92103 21.8384 7.89884 21.9068C7.88261 21.957 7.86953 22.0217 7.81767 22.4884L7.60473 24.3943L9.51163 24.1823C9.97831 24.1305 10.043 24.1174 10.0932 24.1012C10.1616 24.079 10.2269 24.0481 10.287 24.0085C10.331 23.9795 10.3816 23.9369 10.7138 23.6046L20.1758 14.1427L17.8573 11.8242L8.39538 21.2862ZM24.0755 7.9245C23.4352 7.28425 22.3973 7.28425 21.757 7.9245L19.5856 10.095L21.9041 12.4134L24.0755 10.243C24.7158 9.6027 24.7157 8.56476 24.0755 7.9245Z" fill="currentColor"/>
<path d="M11.6334 26.0491C11.9324 25.8519 12.1792 25.5959 12.4422 25.333L21.9041 15.871L20.1758 14.1427L10.7138 23.6046C10.3816 23.9369 10.331 23.9795 10.287 24.0085C10.2269 24.0481 10.1616 24.079 10.0932 24.1012C10.043 24.1174 9.97831 24.1305 9.51163 24.1823L7.60473 24.3943L7.81767 22.4884C7.86953 22.0217 7.88261 21.957 7.89884 21.9068C7.92103 21.8384 7.95188 21.7731 7.99146 21.713C8.02047 21.669 8.06311 21.6184 8.39538 21.2862L17.8573 11.8242L16.129 10.0959L6.66704 19.5578C6.40408 19.8208 6.14811 20.0676 5.95088 20.3666C5.78988 20.6108 5.66282 20.8762 5.57274 21.1544C5.46242 21.4952 5.42857 21.8494 5.3875 22.2191L5.00745 25.6433C4.96656 26.0122 5.09542 26.3796 5.35789 26.6421C5.62037 26.9046 5.98778 27.0334 6.3567 26.9925L9.78091 26.6125C10.1506 26.5714 10.5048 26.5376 10.8456 26.4273C11.1238 26.3372 11.3892 26.2101 11.6334 26.0491Z" fill="currentColor"/>
<path d="M25.8038 6.19617C24.2089 4.60128 21.6236 4.60128 20.0287 6.19617L17.8578 8.36709L19.5856 10.095L21.757 7.9245C22.3973 7.28425 23.4352 7.28425 24.0755 7.9245C24.7157 8.56476 24.7158 9.6027 24.0755 10.243L21.9041 12.4134L23.6329 14.1422L25.8038 11.9713C27.3987 10.3764 27.3987 7.79106 25.8038 6.19617Z" fill="currentColor"/>
</svg>
