<svg width="24" height="24" viewBox="0 0 24 24" fill="none" xmlns="http://www.w3.org/2000/svg">
<path fill-rule="evenodd" clip-rule="evenodd" d="M11.9206 7.93092C11.5487 7.54387 11.5487 6.93222 11.9206 6.54517L13.5042 4.89709C14.6536 3.70097 16.5171 3.70097 17.6664 4.89709L18.3253 5.58276C19.4746 6.77887 19.4746 8.71816 18.3253 9.91429L16.0759 12.2552L14.6885 10.8114L12.6422 8.68188L11.9206 7.93092ZM14.6954 6.54516C14.3235 6.93221 14.3235 7.54385 14.6954 7.9309L15.3548 8.61714C15.7483 9.02664 16.4035 9.02664 16.797 8.61713L16.9379 8.47045C17.321 8.07174 17.321 7.42531 16.9379 7.02661L16.279 6.34094C15.8959 5.94224 15.2747 5.94224 14.8916 6.34095L14.6954 6.54516Z" fill="#1C1C1C"/>
<path fill-rule="evenodd" clip-rule="evenodd" d="M11.718 6.75604C12.1115 6.34653 12.7669 6.34683 13.1604 6.75634C13.5323 7.14339 13.5326 7.75531 13.1607 8.14236L12.6422 8.68188L7.81421 13.7063C7.69597 13.8294 7.61119 13.9806 7.56793 14.1457L6.56885 17.9581H19C19.5523 17.9581 20 18.4058 20 18.9581V19C20 19.5523 19.5523 20 19 20H5.29583C4.64058 20 4.16239 19.3803 4.3285 18.7465L5.81209 13.0853C5.85535 12.9202 5.94013 12.769 6.05837 12.6459L11.718 6.75604Z" fill="#1C1C1C"/>
<path fill-rule="evenodd" clip-rule="evenodd" d="M10.6525 16.3979C10.2806 16.0108 10.2803 15.3989 10.6522 15.0119L14.6885 10.8114C15.067 10.4174 15.6973 10.4174 16.0758 10.8114L16.7695 11.5333L12.0949 16.3982C11.7014 16.8077 11.046 16.8074 10.6525 16.3979Z" fill="#1C1C1C"/>
</svg>
