<svg width="16" height="16" viewBox="0 0 16 16" fill="none" xmlns="http://www.w3.org/2000/svg">
<path d="M10.0574 2.67649C10.9594 1.7745 12.4215 1.7745 13.3235 2.67649C14.2255 3.57847 14.2255 5.04059 13.3235 5.94258L6.19416 13.0729C6.05753 13.2096 5.91489 13.3572 5.7417 13.4714C5.60172 13.5637 5.44976 13.6368 5.29026 13.6885C5.09291 13.7523 4.88817 13.7711 4.69614 13.7924L2.86897 13.9952C2.63267 14.0215 2.39711 13.9391 2.229 13.771C2.06088 13.6029 1.97855 13.3673 2.0048 13.131L2.2076 11.3039C2.22893 11.1118 2.24765 10.9071 2.31154 10.7097C2.36322 10.5502 2.4363 10.3983 2.5286 10.2583C2.64283 10.0851 2.79041 9.94248 2.92705 9.80584L10.0574 2.67649ZM4.03375 10.9125C3.85345 11.0928 3.84257 11.1105 3.83606 11.1204C3.82132 11.1428 3.80965 11.1673 3.80141 11.1928C3.79776 11.2041 3.79175 11.2247 3.7637 11.4771L3.66791 12.3311L4.5229 12.2363C4.7753 12.2083 4.79593 12.2022 4.80722 12.1986C4.83269 12.1903 4.85722 12.1787 4.87957 12.1639C4.88944 12.1574 4.90661 12.1461 5.08644 11.9662L10.0442 7.00852L8.99047 5.95481L4.03375 10.9125ZM12.2168 3.78319C11.9261 3.49248 11.4548 3.49248 11.1641 3.78319L10.0972 4.84811L11.1509 5.90182L12.2168 4.83588C12.5075 4.54517 12.5075 4.07389 12.2168 3.78319Z" fill="currentColor"/>
</svg>
