<svg width="32" height="32" viewBox="0 0 32 32" fill="none" xmlns="http://www.w3.org/2000/svg">
<path d="M6.76564 7.58493C9.68257 5.28728 13.4144 5.65544 15.9918 7.6147C18.566 5.65453 22.2603 5.3167 25.2065 7.57436C28.4917 10.0919 28.8849 14.388 26.3565 17.3877C25.4112 18.5092 23.5792 20.1806 21.8356 21.6979C20.0666 23.2374 18.3023 24.6919 17.4325 25.4022C17.3513 25.4684 17.2335 25.5666 17.1189 25.6461C16.9886 25.7366 16.7917 25.8554 16.5262 25.9285C16.1792 26.0238 15.8065 26.0238 15.4595 25.9285C15.194 25.8554 14.9971 25.7366 14.8668 25.6461C14.7522 25.5666 14.6344 25.4684 14.5532 25.4022C13.6833 24.6919 11.9181 23.2375 10.149 21.6979C8.40555 20.1807 6.5744 18.5091 5.62917 17.3877C3.08899 14.374 3.55792 10.1118 6.76564 7.58493ZM14.9793 10.1309C13.239 8.25532 10.5147 7.86614 8.49796 9.45482C6.36178 11.1377 6.07822 13.9137 7.7344 15.8789C8.53378 16.8273 10.2151 18.3736 11.9803 19.9097C13.5204 21.2499 15.0625 22.5271 15.9929 23.2903C16.9232 22.5271 18.4654 21.2499 20.0054 19.9097C21.7706 18.3736 23.4519 16.8273 24.2513 15.8789C25.9193 13.8996 25.6519 11.1133 23.5013 9.46538C21.4249 7.87441 18.7366 8.26621 17.0064 10.1309C16.7531 10.404 16.3826 10.5612 15.9929 10.5612C15.6031 10.5612 15.2326 10.404 14.9793 10.1309Z" fill="currentColor"/>
</svg>
