<svg width="24" height="24" viewBox="0 0 24 24" fill="none" xmlns="http://www.w3.org/2000/svg">
<path d="M5.08101 5.17881C7.26598 3.34694 10.0603 3.63946 11.9931 5.20811C13.9235 3.63825 16.6903 3.37092 18.8974 5.171C21.3673 7.18567 21.6683 10.6356 19.7617 13.0431C19.052 13.9392 17.6775 15.2736 16.3701 16.4845C15.0432 17.7134 13.7198 18.8745 13.0673 19.4415C13.0066 19.4943 12.9179 19.5723 12.832 19.6358C12.7339 19.7083 12.5868 19.8027 12.3896 19.8605C12.1324 19.9357 11.8568 19.9357 11.5996 19.8605C11.4023 19.8027 11.2553 19.7083 11.1572 19.6358C11.0712 19.5723 10.9826 19.4943 10.9218 19.4415C10.2694 18.8745 8.946 17.7134 7.61909 16.4845C6.31172 15.2736 4.93725 13.9392 4.22749 13.0431C2.31173 10.6241 2.66932 7.20079 5.08101 5.17881ZM11.2402 7.25108C9.93705 5.75624 7.88434 5.43916 6.36616 6.71202C4.77003 8.05035 4.56346 10.2456 5.79488 11.8009C6.39362 12.5569 7.65343 13.7913 8.97749 15.0177C10.136 16.0907 11.297 17.1123 11.9941 17.7208C12.6911 17.1124 13.852 16.0908 15.0107 15.0177C16.3348 13.7913 17.5946 12.5569 18.1933 11.8009C19.4342 10.2341 19.2395 8.03123 17.6328 6.7208C16.0697 5.44611 14.0437 5.76471 12.748 7.25108C12.5581 7.46876 12.283 7.59385 11.9941 7.59385C11.7052 7.59374 11.43 7.46884 11.2402 7.25108Z" fill="currentColor"/>
<path d="M11.2402 7.25108C9.93705 5.75624 7.88434 5.43916 6.36616 6.71202C4.77003 8.05035 4.56346 10.2456 5.79488 11.8009C6.39362 12.5569 7.65343 13.7913 8.97749 15.0177C10.136 16.0907 11.297 17.1123 11.9941 17.7208C12.6911 17.1124 13.852 16.0908 15.0107 15.0177C16.3348 13.7913 17.5946 12.5569 18.1933 11.8009C19.4342 10.2341 19.2395 8.03123 17.6328 6.7208C16.0697 5.44611 14.0437 5.76471 12.748 7.25108C12.5581 7.46876 12.283 7.59385 11.9941 7.59385C11.7052 7.59374 11.43 7.46884 11.2402 7.25108Z" fill="currentColor"/>
</svg>
