<svg width="16" height="16" viewBox="0 0 16 16" fill="none" xmlns="http://www.w3.org/2000/svg">
<path d="M3.43093 3.78102C4.87169 2.66691 6.69856 2.82177 7.99504 3.75943C9.28986 2.82063 11.1 2.68104 12.554 3.77485C14.2427 5.04521 14.4703 7.27333 13.142 8.82045C12.6693 9.37105 11.7633 10.1825 10.9124 10.9094C10.0455 11.65 9.18115 12.3496 8.75521 12.691C8.71492 12.7234 8.52239 12.8962 8.27322 12.9634C8.09255 13.0122 7.90058 13.0122 7.71991 12.9634C7.47076 12.8962 7.27822 12.7234 7.23792 12.691C6.81198 12.3496 5.94761 11.65 5.08069 10.9094C4.22987 10.1825 3.32387 9.37105 2.85112 8.82045C1.51484 7.26401 1.78478 5.05406 3.43093 3.78102ZM7.43051 5.34261C6.625 4.49025 5.33032 4.30134 4.38268 5.03419C3.41508 5.78259 3.31786 6.95298 4.03418 7.78727C4.41485 8.23053 5.22651 8.96451 6.09154 9.70353C6.81362 10.3204 7.5374 10.9096 7.99605 11.2795C8.45467 10.9096 9.17918 10.3207 9.90158 9.70353C10.7666 8.96451 11.5783 8.23053 11.9589 7.78727C12.6833 6.94363 12.5887 5.77018 11.6186 5.04036C10.6401 4.30426 9.36267 4.49603 8.56262 5.34261C8.41494 5.49879 8.21001 5.58728 7.99605 5.58728C7.78228 5.58714 7.57807 5.49866 7.43051 5.34261Z" fill="currentColor"/>
</svg>
