<svg width="32" height="32" viewBox="0 0 32 32" fill="none" xmlns="http://www.w3.org/2000/svg">
<path d="M13.5472 16C13.5472 17.466 14.6912 18.5717 16 18.5717C16.5832 18.5717 17.1337 18.3521 17.5649 17.9789L14.0394 14.4535C13.7326 14.8782 13.5472 15.4099 13.5472 16Z" fill="currentColor"/>
<path d="M9.54034 11.4394C7.82111 12.915 6.61977 14.6476 6.01214 15.637C5.92923 15.772 5.89398 15.8308 5.87061 15.877C5.85738 15.9032 5.85331 15.914 5.84981 15.9287C5.85059 15.9256 5.85035 15.9282 5.84953 15.937C5.84953 15.937 5.84918 15.9407 5.84898 15.9429C5.84759 15.9581 5.84628 15.978 5.84628 16C5.84628 16.022 5.84759 16.0419 5.84898 16.0571C5.84918 16.0593 5.84953 16.063 5.84953 16.063C5.85035 16.0718 5.85059 16.0744 5.84981 16.0713C5.85331 16.086 5.85738 16.0969 5.87061 16.123C5.89398 16.1693 5.92923 16.228 6.01214 16.363C6.61977 17.3524 7.82111 19.085 9.54034 20.5606C11.2589 22.0357 13.4294 23.2 16 23.2C17.9532 23.2 19.6754 22.5278 21.1438 21.5579L18.8551 19.2692C18.1024 19.9518 17.1079 20.3717 16 20.3717C13.5802 20.3717 11.7011 18.3685 11.7011 16C11.7011 14.9243 12.0886 13.924 12.7384 13.1525L10.3679 10.7819C10.0814 10.9916 9.80549 11.2118 9.54034 11.4394Z" fill="currentColor"/>
<path fill-rule="evenodd" clip-rule="evenodd" d="M8.32071 21.9115C10.2395 23.5584 12.8264 25 16 25C18.5396 25 20.7035 24.0768 22.45 22.8641L24.293 24.707C24.6835 25.0976 25.3165 25.0976 25.707 24.707C26.0976 24.3165 26.0976 23.6835 25.707 23.293L24.0226 21.6085L22.7336 20.3195L20.0042 17.5901L18.4525 16.0385L15.8474 13.4333L14.367 11.9529L12.1292 9.71511L10.7858 8.37176L8.70703 6.29297C8.31651 5.90245 7.68349 5.90245 7.29297 6.29297C6.90244 6.68349 6.90244 7.31651 7.29297 7.70703L9.06996 9.48403C8.80992 9.68072 8.56011 9.883 8.32071 10.0885C6.40282 11.7346 5.08703 13.6398 4.42832 14.7124C4.41995 14.726 4.4115 14.7397 4.403 14.7535C4.26904 14.9708 4.12079 15.2112 4.04522 15.55C3.98493 15.8205 3.98493 16.1795 4.04522 16.45C4.12079 16.7888 4.26904 17.0292 4.40299 17.2465C4.4115 17.2603 4.41995 17.274 4.42832 17.2876C5.08703 18.3602 6.40282 20.2654 8.32071 21.9115ZM9.54034 11.4394C7.82111 12.915 6.61977 14.6476 6.01214 15.637C5.92923 15.772 5.89398 15.8308 5.87061 15.877C5.85738 15.9032 5.85331 15.914 5.84981 15.9287C5.85059 15.9256 5.85035 15.9282 5.84953 15.937C5.84953 15.937 5.84918 15.9407 5.84898 15.9429C5.84759 15.9581 5.84628 15.978 5.84628 16C5.84628 16.022 5.84759 16.0419 5.84898 16.0571C5.84918 16.0593 5.84953 16.063 5.84953 16.063C5.85035 16.0718 5.85059 16.0744 5.84981 16.0713C5.85331 16.086 5.85738 16.0969 5.87061 16.123C5.89398 16.1693 5.92923 16.228 6.01214 16.363C6.61977 17.3524 7.82111 19.085 9.54034 20.5606C11.2589 22.0357 13.4294 23.2 16 23.2C17.9532 23.2 19.6754 22.5278 21.1438 21.5579L18.8551 19.2692L17.5649 17.9789L14.0394 14.4535L12.7384 13.1525L10.3679 10.7819C10.0814 10.9916 9.80549 11.2118 9.54034 11.4394Z" fill="currentColor"/>
<path d="M16 7C19.1736 7 21.7605 8.44163 23.6793 10.0885C25.5972 11.7346 26.913 13.6398 27.5717 14.7124C27.7118 14.9406 27.8744 15.1897 27.9548 15.55C28.0151 15.8205 28.0151 16.1795 27.9548 16.45C27.8744 16.8103 27.7118 17.0594 27.5717 17.2876C27.1196 18.0237 26.3581 19.152 25.3048 20.3195L12.5 7.5C13.67 7.04036 14.5919 7 16 7Z" fill="currentColor"/>
</svg>
