<svg width="16" height="16" viewBox="0 0 16 16" fill="none" xmlns="http://www.w3.org/2000/svg">
<path d="M8 3.5C9.60063 3.5 10.8961 4.21968 11.8441 5.02428C12.7914 5.82833 13.4388 6.75608 13.7622 7.27679C13.8265 7.38038 13.9254 7.52862 13.9732 7.7401C14.0089 7.89889 14.0089 8.10111 13.9732 8.25991C13.9254 8.47138 13.8265 8.61962 13.7622 8.72321C13.6839 8.84929 13.5866 8.99922 13.4707 9.16548C13.2474 9.48563 12.7927 9.5123 12.5126 9.24046C12.2698 9.00481 12.2456 8.62561 12.4353 8.34548C12.5055 8.24178 12.5668 8.14661 12.6189 8.06278C12.6355 8.03599 12.6468 8.01634 12.6566 8C12.6468 7.98366 12.6355 7.96401 12.6189 7.93722C12.3325 7.47606 11.7675 6.67214 10.9638 5.98982C10.2373 5.37319 9.35411 4.8872 8.33011 4.79977C8.1211 4.78192 7.9214 4.69411 7.7848 4.53491L7.64901 4.37667C7.35099 4.02935 7.54235 3.5 8 3.5Z" fill="currentColor"/>
<path fill-rule="evenodd" clip-rule="evenodd" d="M8 12.5C6.39937 12.5 5.10394 11.7803 4.15593 10.9757C3.20862 10.1717 2.56118 9.24392 2.2378 8.72321L2.22419 8.70141C2.16023 8.59912 2.07133 8.45697 2.02684 8.25991C1.99105 8.10111 1.99105 7.89889 2.02684 7.7401C2.07133 7.54303 2.16022 7.40088 2.22419 7.29859L2.2378 7.27679C2.56118 6.75608 3.20862 5.82833 4.15593 5.02428C4.29877 4.90304 4.4495 4.78373 4.60798 4.66853L3.46973 3.53027C3.17683 3.23738 3.17683 2.76262 3.46973 2.46973C3.76262 2.17683 4.23738 2.17683 4.53027 2.46973L5.96523 3.90469L6.98174 4.9212L7.77485 5.71431L10.2812 8.2207L11.5321 9.47151L12.4589 10.3984L13.5303 11.4697C13.8232 11.7626 13.8232 12.2374 13.5303 12.5303C13.2374 12.8232 12.7626 12.8232 12.4697 12.5303L11.3215 11.3821C10.4391 12.0076 9.32395 12.5 8 12.5ZM7.04159 8C7.04159 8.59063 7.50353 9.01074 8 9.01074C8.24845 9.01074 8.48825 8.90553 8.66584 8.72639L7.27649 7.33704C7.13228 7.51007 7.04159 7.7383 7.04159 8ZM3.38112 7.93722C3.6675 7.47606 4.23247 6.67214 5.03621 5.98982C5.19709 5.85326 5.36566 5.72312 5.54174 5.60229L6.3478 6.40835C5.94866 6.82622 5.70814 7.39202 5.70814 8C5.70814 9.23529 6.70103 10.2965 8 10.2965C8.62808 10.2965 9.18459 10.0484 9.59191 9.65246L10.386 10.4465C9.6988 10.9027 8.90017 11.2143 8 11.2143C6.83475 11.2143 5.83964 10.6921 5.03621 10.0102C4.23247 9.32786 3.6675 8.52394 3.38112 8.06278C3.3745 8.05212 3.36858 8.04267 3.36323 8.03414C3.35498 8.02098 3.34808 8.00998 3.34206 8C3.34808 7.99002 3.35497 7.97902 3.36322 7.96587C3.36858 7.95733 3.3745 7.94789 3.38112 7.93722Z" fill="currentColor"/>
</svg>
