<svg width="24" height="24" viewBox="0 0 24 24" fill="none" xmlns="http://www.w3.org/2000/svg">
<path fill-rule="evenodd" clip-rule="evenodd" d="M15.0707 17.0489L17.0667 19L18.0911 17.9986L5.81608 6L4.79165 7.00136L6.41816 8.59124C6.25666 8.74171 6.10465 8.89368 5.962 9.04504C5.14257 9.91453 4.47424 10.9148 4 12.0051C4.47425 13.0954 5.14257 14.0956 5.962 14.9651C7.21436 16.294 9.1884 17.6696 11.9682 17.6696C13.143 17.6696 14.1751 17.4277 15.0707 17.0489ZM13.9477 15.9512L13.2855 15.3039C12.8772 15.4598 12.4329 15.5454 11.9682 15.5454C9.96785 15.5454 8.34627 13.9604 8.34627 12.0051C8.34627 11.5508 8.43381 11.1165 8.5933 10.7174L7.43896 9.58905C7.28951 9.72691 7.14832 9.86743 7.01523 10.0087C6.27265 10.7966 5.79841 11.5941 5.58086 12.0051C5.79841 12.4161 6.27265 13.2136 7.01523 14.0015C8.09843 15.1509 9.71753 16.2535 11.9682 16.2535C12.6917 16.2535 13.3505 16.1413 13.9477 15.9512ZM9.7979 11.8949C9.796 11.9314 9.79503 11.9681 9.79503 12.0051C9.79503 13.1782 10.768 14.1293 11.9682 14.1293C12.006 14.1293 12.0436 14.1283 12.0809 14.1265L9.7979 11.8949Z" fill="#1C1C1C"/>
<path d="M18.0223 14.9651C17.8691 15.1264 17.7052 15.2883 17.5305 15.4484L16.5056 14.4466C16.6666 14.3006 16.8182 14.1515 16.9607 14.0015C17.7092 13.2136 18.1872 12.4161 18.4065 12.0051C18.1872 11.5941 17.7092 10.7966 16.9607 10.0087C15.8688 8.85929 14.2368 7.7567 11.9682 7.75668C11.2401 7.75669 10.5782 7.87207 9.97906 8.06708L8.86073 6.97393C9.75599 6.58781 10.7897 6.34056 11.9682 6.34055C14.7701 6.34057 16.76 7.71619 18.0223 9.04504C18.8483 9.91453 19.522 10.9148 20 12.0051C19.522 13.0954 18.8483 14.0956 18.0223 14.9651Z" fill="#1C1C1C"/>
<path d="M15.5901 12.0051C15.5901 12.4641 15.5007 12.9028 15.338 13.3053L14.1375 12.1319C14.14 12.0899 14.1413 12.0476 14.1413 12.0051C14.1413 10.8319 13.1684 9.88088 11.9682 9.88088C11.9246 9.88088 11.8814 9.88213 11.8385 9.8846L10.638 8.71115C11.0498 8.55212 11.4985 8.46475 11.9682 8.46475C13.9685 8.46475 15.5901 10.0498 15.5901 12.0051Z" fill="#1C1C1C"/>
</svg>
