<svg width="16" height="16" viewBox="0 0 16 16" fill="none" xmlns="http://www.w3.org/2000/svg">
<path d="M5.03621 5.98982C4.23247 6.67214 3.6675 7.47606 3.38112 7.93722L3.36322 7.96587C3.35497 7.97902 3.34808 7.99002 3.34206 8C3.34808 8.00998 3.35498 8.02098 3.36323 8.03414L3.38112 8.06278C3.6675 8.52394 4.23247 9.32786 5.03621 10.0102C5.83964 10.6921 6.83475 11.2143 8 11.2143C8.90017 11.2143 9.6988 10.9027 10.386 10.4465L9.59191 9.65246C9.18459 10.0484 8.62808 10.2965 8 10.2965C6.70103 10.2965 5.70814 9.23529 5.70814 8C5.70814 7.39202 5.94866 6.82622 6.3478 6.40835L5.54174 5.60229C5.36566 5.72312 5.19709 5.85326 5.03621 5.98982Z" fill="currentColor"/>
<path fill-rule="evenodd" clip-rule="evenodd" d="M4.15593 10.9757C5.10394 11.7803 6.39937 12.5 8 12.5C9.32395 12.5 10.4391 12.0076 11.3215 11.3821L12.4697 12.5303C12.7626 12.8232 13.2374 12.8232 13.5303 12.5303C13.8232 12.2374 13.8232 11.7626 13.5303 11.4697L12.4589 10.3984L11.5321 9.47151L10.2812 8.2207L7.77485 5.71431L6.98174 4.9212L5.96523 3.90469L4.53027 2.46973C4.23738 2.17683 3.76262 2.17683 3.46973 2.46973C3.17683 2.76262 3.17683 3.23738 3.46973 3.53027L4.60798 4.66853C4.4495 4.78373 4.29877 4.90304 4.15593 5.02428C3.20862 5.82833 2.56118 6.75608 2.2378 7.27679L2.22419 7.29859C2.16022 7.40088 2.07133 7.54303 2.02684 7.7401C1.99105 7.89889 1.99105 8.10111 2.02684 8.25991C2.07133 8.45697 2.16023 8.59912 2.22419 8.70141L2.2378 8.72321C2.56118 9.24392 3.20862 10.1717 4.15593 10.9757ZM7.27649 7.33704L8.66584 8.72639L9.59191 9.65246L10.386 10.4465C9.6988 10.9027 8.90017 11.2143 8 11.2143C6.83475 11.2143 5.83964 10.6921 5.03621 10.0102C4.23247 9.32786 3.6675 8.52394 3.38112 8.06278L3.36323 8.03414C3.35498 8.02098 3.34808 8.00998 3.34206 8C3.34808 7.99002 3.35497 7.97902 3.36322 7.96587L3.38112 7.93722C3.6675 7.47606 4.23247 6.67214 5.03621 5.98982C5.19709 5.85326 5.36566 5.72312 5.54174 5.60229L6.3478 6.40835L7.27649 7.33704Z" fill="currentColor"/>
<path d="M7.04159 8C7.04159 8.59063 7.50353 9.01074 8 9.01074C8.24845 9.01074 8.48825 8.90553 8.66584 8.72639L7.27649 7.33704C7.13228 7.51007 7.04159 7.7383 7.04159 8Z" fill="currentColor"/>
<path d="M8 3.5C9.60063 3.5 10.8961 4.21968 11.8441 5.02428C12.7914 5.82833 13.4388 6.75608 13.7622 7.27679C13.8265 7.38038 13.9254 7.52862 13.9732 7.7401C14.0089 7.89889 14.0089 8.10111 13.9732 8.25991C13.9254 8.47138 13.8265 8.61962 13.7622 8.72321C13.6 8.98434 13.3564 9.34784 13.0342 9.74676L6.98174 3.59903C7.30588 3.53531 7.64545 3.5 8 3.5Z" fill="currentColor"/>
</svg>
