<svg width="32" height="32" viewBox="0 0 32 32" fill="none" xmlns="http://www.w3.org/2000/svg">
<path d="M7.71093 14.18C8.26923 13.6221 9.17432 13.6219 9.73252 14.18C10.2907 14.7382 10.2905 15.6433 9.73252 16.2016L8.11525 17.82C6.44036 19.4949 6.44034 22.2099 8.11525 23.8848C9.79016 25.5597 12.5051 25.5597 14.18 23.8848L15.7973 22.2675C16.3556 21.7092 17.2617 21.7092 17.82 22.2675C18.378 22.8257 18.3779 23.7308 17.82 24.2891L16.2016 25.9064C13.4101 28.6979 8.88518 28.6979 6.09365 25.9064C3.30212 23.1149 3.30212 18.5888 6.09365 15.7973L7.71093 14.18ZM18.9916 10.9857C19.55 10.4274 20.456 10.4274 21.0144 10.9857C21.5726 11.544 21.5726 12.4501 21.0144 13.0084L13.0084 21.0144C12.4501 21.5726 11.544 21.5726 10.9857 21.0144C10.4274 20.4561 10.4274 19.55 10.9857 18.9916L18.9916 10.9857ZM15.7973 6.09365C18.5888 3.30212 23.1149 3.30212 25.9064 6.09365C28.6979 8.88518 28.6979 13.4101 25.9064 16.2016L24.2891 17.82C23.7308 18.3779 22.8257 18.378 22.2675 17.82C21.7092 17.2617 21.7092 16.3556 22.2675 15.7973L23.8848 14.18C25.5597 12.5051 25.5597 9.79016 23.8848 8.11525C22.2099 6.44034 19.4949 6.44036 17.82 8.11525L16.2016 9.73252C15.6433 10.2905 14.7382 10.2907 14.18 9.73252C13.6219 9.17432 13.6221 8.26923 14.18 7.71093L15.7973 6.09365Z" fill="currentColor"/>
</svg>
