<svg width="24" height="24" viewBox="0 0 24 24" fill="none" xmlns="http://www.w3.org/2000/svg">
<path d="M13.3255 6.69807L12 8.02355C11.634 8.38957 11.0405 8.38957 10.6745 8.02355C10.3085 7.65753 10.3085 7.06409 10.6745 6.69807L12 5.37258C13.8301 3.54247 16.7973 3.54247 18.6274 5.37258C20.4575 7.20269 20.4575 10.1699 18.6274 12L17.3019 13.3255C16.9359 13.6915 16.3425 13.6915 15.9764 13.3255C15.6104 12.9595 15.6104 12.366 15.9764 12L17.3019 10.6745C18.4 9.57645 18.4 7.79613 17.3019 6.69807C16.2039 5.6 14.4236 5.6 13.3255 6.69807Z" fill="currentColor"/>
<path d="M10.6745 17.3019L12 15.9764C12.366 15.6104 12.9595 15.6104 13.3255 15.9764C13.6915 16.3425 13.6915 16.9359 13.3255 17.3019L12 18.6274C10.1699 20.4575 7.20269 20.4575 5.37258 18.6274C3.54247 16.7973 3.54247 13.8301 5.37258 12L6.69807 10.6745C7.06409 10.3085 7.65753 10.3085 8.02355 10.6745C8.38957 11.0405 8.38957 11.634 8.02355 12L6.69807 13.3255C5.6 14.4236 5.6 16.2039 6.69807 17.3019C7.79613 18.4 9.57645 18.4 10.6745 17.3019Z" fill="currentColor"/>
<path d="M15.3135 8.68645C14.9475 8.32043 14.3541 8.32043 13.9881 8.68645L8.68613 13.9884C8.32011 14.3544 8.32011 14.9478 8.68613 15.3139C9.05215 15.6799 9.64559 15.6799 10.0116 15.3139L15.3135 10.0119C15.6796 9.64591 15.6796 9.05247 15.3135 8.68645Z" fill="currentColor"/>
</svg>
