<svg width="24" height="24" viewBox="0 0 24 24" fill="none" xmlns="http://www.w3.org/2000/svg">
<path d="M6.47474 10.8272C6.82188 10.4801 7.38543 10.4801 7.73257 10.8272C8.07947 11.1743 8.07931 11.7371 7.73257 12.0842L6.64401 13.1728C5.48893 14.328 5.48885 16.2008 6.64401 17.356C7.79917 18.5111 9.67203 18.5111 10.8272 17.356L11.9158 16.2674C12.2629 15.9207 12.8257 15.9205 13.1728 16.2674C13.5199 16.6146 13.5199 17.1781 13.1728 17.5253L12.0842 18.613C10.2347 20.4623 7.23648 20.4624 5.38705 18.613C3.53761 16.7635 3.53769 13.7653 5.38705 11.9158L6.47474 10.8272ZM14.0643 8.67877C14.4114 8.33163 14.9741 8.33163 15.3212 8.67877C15.6684 9.02591 15.6684 9.5886 15.3212 9.93573L9.93573 15.3212C9.5886 15.6684 9.0259 15.6684 8.67877 15.3212C8.33163 14.9741 8.33163 14.4114 8.67877 14.0643L14.0643 8.67877ZM11.9158 5.38705C13.7653 3.53769 16.7635 3.53761 18.613 5.38705C20.4624 7.23648 20.4623 10.2347 18.613 12.0842L17.5253 13.1728C17.1781 13.5199 16.6146 13.5199 16.2674 13.1728C15.9205 12.8257 15.9207 12.2629 16.2674 11.9158L17.356 10.8272C18.5111 9.67203 18.5111 7.79917 17.356 6.64401C16.2008 5.48885 14.328 5.48893 13.1728 6.64401L12.0842 7.73257C11.7371 8.07931 11.1743 8.07947 10.8272 7.73257C10.4801 7.38543 10.4801 6.82188 10.8272 6.47474L11.9158 5.38705Z" fill="currentColor"/>
</svg>
