<svg width="32" height="32" viewBox="0 0 32 32" fill="none" xmlns="http://www.w3.org/2000/svg">
<path d="M17.6569 9.37258L16 11.0294C15.5425 11.487 14.8007 11.487 14.3431 11.0294C13.8856 10.5719 13.8856 9.83011 14.3431 9.37258L16 7.71573C18.2876 5.42809 21.9966 5.42809 24.2843 7.71573C26.5719 10.0034 26.5719 13.7124 24.2843 16L22.6274 17.6569C22.1699 18.1144 21.4281 18.1144 20.9706 17.6569C20.513 17.1993 20.513 16.4575 20.9706 16L22.6274 14.3431C24 12.9706 24 10.7452 22.6274 9.37258C21.2548 8 19.0294 8 17.6569 9.37258Z" fill="#1C1C1C"/>
<path d="M14.3431 22.6274L16 20.9706C16.4575 20.513 17.1993 20.513 17.6569 20.9706C18.1144 21.4281 18.1144 22.1699 17.6569 22.6274L16 24.2843C13.7124 26.5719 10.0034 26.5719 7.71573 24.2843C5.42809 21.9966 5.42809 18.2876 7.71573 16L9.37258 14.3431C9.83011 13.8856 10.5719 13.8856 11.0294 14.3431C11.487 14.8007 11.487 15.5425 11.0294 16L9.37258 17.6569C8 19.0294 8 21.2548 9.37258 22.6274C10.7452 24 12.9706 24 14.3431 22.6274Z" fill="#1C1C1C"/>
<path d="M20.1419 11.8581C19.6844 11.4005 18.9426 11.4005 18.4851 11.8581L11.8577 18.4855C11.4001 18.943 11.4001 19.6848 11.8577 20.1423C12.3152 20.5999 13.057 20.5999 13.5145 20.1423L20.1419 13.5149C20.5995 13.0574 20.5995 12.3156 20.1419 11.8581Z" fill="#1C1C1C"/>
</svg>
