<svg width="16" height="16" viewBox="0 0 16 16" fill="none" xmlns="http://www.w3.org/2000/svg">
<path d="M3.85466 7.04722C4.16031 6.74192 4.65579 6.74171 4.9613 7.04722C5.2668 7.35274 5.2666 7.84823 4.9613 8.15387L4.1624 8.95278C3.36607 9.7494 3.36589 11.0411 4.1624 11.8376C4.95891 12.6341 6.2506 12.6339 7.04722 11.8376L7.84613 11.0387C8.15177 10.7334 8.64726 10.7332 8.95278 11.0387C9.25829 11.3442 9.25808 11.8397 8.95278 12.1453L8.15387 12.9442C6.746 14.3518 4.46351 14.352 3.05575 12.9442C1.64799 11.5365 1.64817 9.254 3.05575 7.84613L3.85466 7.04722ZM9.42254 5.47081C9.72818 5.16534 10.2236 5.16524 10.5292 5.47081C10.8348 5.77638 10.8347 6.27182 10.5292 6.57746L6.57746 10.5292C6.27182 10.8346 5.77638 10.8348 5.47081 10.5292C5.16524 10.2236 5.16536 9.72818 5.47081 9.42254L9.42254 5.47081ZM7.84613 3.05575C9.254 1.64818 11.5365 1.64799 12.9442 3.05575C14.352 4.46351 14.3518 6.746 12.9442 8.15387L12.1453 8.95278C11.8397 9.25808 11.3442 9.25829 11.0387 8.95278C10.7332 8.64726 10.7334 8.15177 11.0387 7.84613L11.8376 7.04722C12.6339 6.2506 12.6341 4.95891 11.8376 4.1624C11.0411 3.36589 9.7494 3.36607 8.95278 4.1624L8.15387 4.9613C7.84823 5.2666 7.35274 5.2668 7.04722 4.9613C6.74171 4.65579 6.74192 4.16031 7.04722 3.85466L7.84613 3.05575Z" fill="currentColor"/>
</svg>
