<svg width="24" height="24" viewBox="0 0 24 24" fill="none" xmlns="http://www.w3.org/2000/svg">
<path fill-rule="evenodd" clip-rule="evenodd" d="M8.25 8.68421C8.25 6.64948 9.92893 5 12 5C14.0711 5 15.75 6.64948 15.75 8.68421V10.1579C16.9926 10.1579 18 11.1476 18 12.3684V16.7895C18 18.0103 16.9926 19 15.75 19H8.25C7.00736 19 6 18.0103 6 16.7895V12.3684C6 11.1476 7.00736 10.1579 8.25 10.1579V8.68421ZM14.25 8.68421V10.1579H9.75V8.68421C9.75 7.46337 10.7574 6.47368 12 6.47368C13.2426 6.47368 14.25 7.46337 14.25 8.68421ZM7.5 12.3684C7.5 11.9615 7.83579 11.6316 8.25 11.6316H15.75C16.1642 11.6316 16.5 11.9615 16.5 12.3684V16.7895C16.5 17.1964 16.1642 17.5263 15.75 17.5263H8.25C7.83579 17.5263 7.5 17.1964 7.5 16.7895V12.3684Z" fill="#1C1C1C"/>
<path fill-rule="evenodd" clip-rule="evenodd" d="M7.5 12.3684C7.5 11.9615 7.83579 11.6316 8.25 11.6316H15.75C16.1642 11.6316 16.5 11.9615 16.5 12.3684V16.7895C16.5 17.1964 16.1642 17.5263 15.75 17.5263H8.25C7.83579 17.5263 7.5 17.1964 7.5 16.7895V12.3684ZM12 13.1053C12.4142 13.1053 12.75 13.441 12.75 13.8553V14.5658C12.75 14.98 12.4142 15.3158 12 15.3158C11.5858 15.3158 11.25 14.98 11.25 14.5658V13.8553C11.25 13.441 11.5858 13.1053 12 13.1053Z" fill="#1C1C1C"/>
</svg>
