<svg width="32" height="32" viewBox="0 0 32 32" fill="none" xmlns="http://www.w3.org/2000/svg">
<path fill-rule="evenodd" clip-rule="evenodd" d="M22.5676 18.7315C22.5676 17.892 22.5662 17.3357 22.5315 16.9089C22.4978 16.4963 22.4394 16.3125 22.3823 16.2001C22.2191 15.879 21.9585 15.6177 21.6383 15.4541C21.5261 15.3968 21.3429 15.3382 20.9314 15.3045C20.5057 15.2696 19.9509 15.2683 19.1137 15.2683H12.8863C12.0491 15.2683 11.4943 15.2696 11.0686 15.3045C10.6571 15.3382 10.4739 15.3968 10.3617 15.4541C10.0415 15.6177 9.78093 15.879 9.61772 16.2001C9.56056 16.3125 9.50216 16.4963 9.46854 16.9089C9.43378 17.3357 9.43243 17.892 9.43243 18.7315V20.0977C9.43243 20.9372 9.43378 21.4935 9.46854 21.9203C9.50216 22.333 9.56056 22.5167 9.61772 22.6292C9.78093 22.9503 10.0415 23.2115 10.3617 23.3752C10.4739 23.4325 10.6571 23.4911 11.0686 23.5248C11.4943 23.5596 12.0491 23.561 12.8863 23.561H19.1137C19.9509 23.561 20.5057 23.5596 20.9314 23.5248C21.3429 23.4911 21.5261 23.4325 21.6383 23.3752C21.9585 23.2115 22.2191 22.9503 22.3823 22.6292C22.4394 22.5167 22.4978 22.333 22.5315 21.9203C22.5662 21.4935 22.5676 20.9372 22.5676 20.0977V18.7315ZM14.7838 18.439V20.3902C14.7838 21.0638 15.3283 21.6098 16 21.6098C16.6717 21.6098 17.2162 21.0638 17.2162 20.3902V18.439C17.2162 17.7655 16.6717 17.2195 16 17.2195C15.3283 17.2195 14.7838 17.7655 14.7838 18.439Z" fill="currentColor"/>
<path fill-rule="evenodd" clip-rule="evenodd" d="M22.5315 16.9089C22.5662 17.3357 22.5676 17.892 22.5676 18.7315V20.0977C22.5676 20.9372 22.5662 21.4935 22.5315 21.9203C22.4978 22.333 22.4394 22.5167 22.3823 22.6292C22.2191 22.9503 21.9585 23.2115 21.6383 23.3752C21.5261 23.4325 21.3429 23.4911 20.9314 23.5248C20.5057 23.5596 19.9509 23.561 19.1137 23.561H12.8863C12.0491 23.561 11.4943 23.5596 11.0686 23.5248C10.6571 23.4911 10.4739 23.4325 10.3617 23.3752C10.0415 23.2115 9.78093 22.9503 9.61772 22.6292C9.56056 22.5167 9.50216 22.333 9.46854 21.9203C9.43378 21.4935 9.43243 20.9372 9.43243 20.0977V18.7315C9.43243 17.892 9.43378 17.3357 9.46854 16.9089C9.50216 16.4963 9.56056 16.3125 9.61772 16.2001C9.78093 15.879 10.0415 15.6177 10.3617 15.4541C10.4739 15.3968 10.6571 15.3382 11.0686 15.3045C11.4943 15.2696 12.0491 15.2683 12.8863 15.2683H19.1137C19.9509 15.2683 20.5057 15.2696 20.9314 15.3045C21.3429 15.3382 21.5261 15.3968 21.6383 15.4541C21.9585 15.6177 22.2191 15.879 22.3823 16.2001C22.4394 16.3125 22.4978 16.4963 22.5315 16.9089ZM16 8.43902C18.0151 8.43902 19.6486 10.077 19.6486 12.0976V12.8312C19.5828 12.831 19.516 12.8307 19.4482 12.8303C19.3393 12.8298 19.2278 12.8293 19.1137 12.8293H12.8863C12.7722 12.8293 12.6607 12.8298 12.5518 12.8303C12.484 12.8307 12.4172 12.831 12.3514 12.8312V12.0976C12.3514 10.077 13.9849 8.43902 16 8.43902ZM22.7424 13.2809C22.5267 13.1707 22.3059 13.0903 22.0811 13.0293V12.0976C22.0811 8.72997 19.3585 6 16 6C12.6415 6 9.91892 8.72997 9.91892 12.0976V13.0293C9.69413 13.0903 9.47332 13.1707 9.2576 13.2809C8.47956 13.6784 7.84683 14.3128 7.45038 15.093C7.18943 15.6065 7.08963 16.1464 7.04371 16.7098C6.99996 17.2467 6.99998 17.9022 7 18.6782L7 18.7315V20.0977L7 20.1511C6.99998 20.9271 6.99996 21.5825 7.04371 22.1195C7.08963 22.6828 7.18943 23.2227 7.45038 23.7363C7.84682 24.5164 8.47956 25.1509 9.2576 25.5484C9.76975 25.8101 10.3082 25.9101 10.87 25.9562C11.4055 26 12.0591 26 12.8331 26H12.8863H19.1137H19.1669C19.9409 26 20.5945 26 21.13 25.9562C21.6918 25.9101 22.2303 25.8101 22.7424 25.5484C23.5204 25.1509 24.1532 24.5164 24.5496 23.7363C24.8106 23.2227 24.9104 22.6828 24.9563 22.1195C25 21.5825 25 20.9271 25 20.1511V20.0977V18.7315V18.6782C25 17.9022 25 17.2467 24.9563 16.7098C24.9104 16.1464 24.8106 15.6065 24.5496 15.093C24.1532 14.3128 23.5204 13.6784 22.7424 13.2809Z" fill="currentColor"/>
</svg>
