<svg width="32" height="32" viewBox="0 0 32 32" fill="none" xmlns="http://www.w3.org/2000/svg">
<path fill-rule="evenodd" clip-rule="evenodd" d="M11 11C11 8.23858 13.2386 6 16 6C18.7614 6 21 8.23858 21 11V13C22.6569 13 24 14.3431 24 16V22C24 23.6569 22.6569 25 21 25H11C9.34315 25 8 23.6569 8 22V16C8 14.3431 9.34315 13 11 13V11ZM19 11V13H13V11C13 9.34315 14.3431 8 16 8C17.6569 8 19 9.34315 19 11ZM10 16C10 15.4477 10.4477 15 11 15H21C21.5523 15 22 15.4477 22 16V22C22 22.5523 21.5523 23 21 23H11C10.4477 23 10 22.5523 10 22V16Z" fill="#1C1C1C"/>
<path fill-rule="evenodd" clip-rule="evenodd" d="M10 16C10 15.4477 10.4477 15 11 15H21C21.5523 15 22 15.4477 22 16V22C22 22.5523 21.5523 23 21 23H11C10.4477 23 10 22.5523 10 22V16ZM16 17C16.5523 17 17 17.4477 17 18V19C17 19.5523 16.5523 20 16 20C15.4477 20 15 19.5523 15 19V18C15 17.4477 15.4477 17 16 17Z" fill="#1C1C1C"/>
</svg>
