<svg width="16" height="16" viewBox="0 0 16 16" fill="none" xmlns="http://www.w3.org/2000/svg">
<path fill-rule="evenodd" clip-rule="evenodd" d="M4.25 4.68421C4.25 2.64948 5.92893 1 8 1C10.0711 1 11.75 2.64948 11.75 4.68421V6.15789C12.9926 6.15789 14 7.14758 14 8.36842V12.7895C14 14.0103 12.9926 15 11.75 15H4.25C3.00736 15 2 14.0103 2 12.7895V8.36842C2 7.14758 3.00736 6.15789 4.25 6.15789V4.68421ZM10.25 4.68421V6.15789H5.75V4.68421C5.75 3.46337 6.75736 2.47368 8 2.47368C9.24264 2.47368 10.25 3.46337 10.25 4.68421ZM3.5 8.36842C3.5 7.96147 3.83579 7.63158 4.25 7.63158H11.75C12.1642 7.63158 12.5 7.96147 12.5 8.36842V12.7895C12.5 13.1964 12.1642 13.5263 11.75 13.5263H4.25C3.83579 13.5263 3.5 13.1964 3.5 12.7895V8.36842Z" fill="#1C1C1C"/>
<path fill-rule="evenodd" clip-rule="evenodd" d="M3.5 8.36842C3.5 7.96147 3.83579 7.63158 4.25 7.63158H11.75C12.1642 7.63158 12.5 7.96147 12.5 8.36842V12.7895C12.5 13.1964 12.1642 13.5263 11.75 13.5263H4.25C3.83579 13.5263 3.5 13.1964 3.5 12.7895V8.36842ZM8 9.10526C8.41421 9.10526 8.75 9.44105 8.75 9.85526V10.5658C8.75 10.98 8.41421 11.3158 8 11.3158C7.58579 11.3158 7.25 10.98 7.25 10.5658V9.85526C7.25 9.44105 7.58579 9.10526 8 9.10526Z" fill="#1C1C1C"/>
</svg>
