<svg width="24" height="24" viewBox="0 0 24 24" fill="none" xmlns="http://www.w3.org/2000/svg">
<path d="M18.75 12C18.75 8.27208 15.7279 5.25 12 5.25C8.27208 5.25 5.25 8.27208 5.25 12C5.25 15.7279 8.27208 18.75 12 18.75C15.7279 18.75 18.75 15.7279 18.75 12ZM15.1498 10.875C15.7711 10.875 16.2748 11.3787 16.2748 12C16.2748 12.6213 15.7711 13.125 15.1498 13.125H8.85022C8.2289 13.125 7.72522 12.6213 7.72522 12C7.72522 11.3787 8.2289 10.875 8.85022 10.875H15.1498ZM21 12C21 16.9706 16.9706 21 12 21C7.02944 21 3 16.9706 3 12C3 7.02944 7.02944 3 12 3C16.9706 3 21 7.02944 21 12Z" fill="currentColor"/>
</svg>
