<svg width="16" height="16" viewBox="0 0 16 16" fill="none" xmlns="http://www.w3.org/2000/svg">
<path fill-rule="evenodd" clip-rule="evenodd" d="M12.4348 8C12.4348 5.55074 10.4493 3.56522 8 3.56522C5.55074 3.56522 3.56522 5.55074 3.56522 8C3.56522 10.4493 5.55074 12.4348 8 12.4348C10.4493 12.4348 12.4348 10.4493 12.4348 8ZM7.21739 8.78261V10.087C7.21739 10.5192 7.56778 10.8696 8 10.8696C8.43222 10.8696 8.78261 10.5192 8.78261 10.087V8.78261H10.087C10.5192 8.78261 10.8696 8.43222 10.8696 8C10.8696 7.56778 10.5192 7.21739 10.087 7.21739H8.78261V5.91304C8.78261 5.48082 8.43222 5.13043 8 5.13043C7.56778 5.13043 7.21739 5.48082 7.21739 5.91304V7.21739H5.91304C5.48082 7.21739 5.13043 7.56778 5.13043 8C5.13043 8.43222 5.48082 8.78261 5.91304 8.78261H7.21739Z" fill="currentColor"/>
<path fill-rule="evenodd" clip-rule="evenodd" d="M8 3.56522C10.4493 3.56522 12.4348 5.55074 12.4348 8C12.4348 10.4493 10.4493 12.4348 8 12.4348C5.55074 12.4348 3.56522 10.4493 3.56522 8C3.56522 5.55074 5.55074 3.56522 8 3.56522ZM8 14C11.3137 14 14 11.3137 14 8C14 4.68629 11.3137 2 8 2C4.68629 2 2 4.68629 2 8C2 11.3137 4.68629 14 8 14Z" fill="currentColor"/>
</svg>
