<svg width="32" height="32" viewBox="0 0 32 32" fill="none" xmlns="http://www.w3.org/2000/svg">
<path fill-rule="evenodd" clip-rule="evenodd" d="M26 16C26 21.5228 21.5228 26 16 26C10.4772 26 6 21.5228 6 16C6 10.4772 10.4772 6 16 6C21.5228 6 26 10.4772 26 16ZM24 16C24 20.4183 20.4183 24 16 24C11.5817 24 8 20.4183 8 16C8 11.5817 11.5817 8 16 8C20.4183 8 24 11.5817 24 16Z" fill="currentColor"/>
<path fill-rule="evenodd" clip-rule="evenodd" d="M16 24C20.4183 24 24 20.4183 24 16C24 11.5817 20.4183 8 16 8C11.5817 8 8 11.5817 8 16C8 20.4183 11.5817 24 16 24ZM20 15H17V12C17 11.4477 16.5523 11 16 11C15.4477 11 15 11.4477 15 12V15H12C11.4477 15 11 15.4477 11 16C11 16.5523 11.4477 17 12 17H15V20C15 20.5523 15.4477 21 16 21C16.5523 21 17 20.5523 17 20V17H20C20.5523 17 21 16.5523 21 16C21 15.4477 20.5523 15 20 15Z" fill="currentColor"/>
</svg>
