<svg width="32" height="32" viewBox="0 0 32 32" fill="none" xmlns="http://www.w3.org/2000/svg">
<path fill-rule="evenodd" clip-rule="evenodd" d="M25.3333 16C25.3333 10.8453 21.1547 6.66667 16 6.66667C10.8453 6.66667 6.66667 10.8453 6.66667 16C6.66667 21.1547 10.8453 25.3333 16 25.3333C21.1547 25.3333 25.3333 21.1547 25.3333 16ZM14.6667 17.3333V20.2667C14.6667 21.003 15.2636 21.6 16 21.6C16.7364 21.6 17.3333 21.003 17.3333 20.2667V17.3333H20.2667C21.003 17.3333 21.6 16.7364 21.6 16C21.6 15.2636 21.003 14.6667 20.2667 14.6667H17.3333V11.7333C17.3333 10.997 16.7364 10.4 16 10.4C15.2636 10.4 14.6667 10.997 14.6667 11.7333V14.6667H11.7333C10.997 14.6667 10.4 15.2636 10.4 16C10.4 16.7364 10.997 17.3333 11.7333 17.3333H14.6667Z" fill="currentColor"/>
<path fill-rule="evenodd" clip-rule="evenodd" d="M16 6.66667C21.1547 6.66667 25.3333 10.8453 25.3333 16C25.3333 21.1547 21.1547 25.3333 16 25.3333C10.8453 25.3333 6.66667 21.1547 6.66667 16C6.66667 10.8453 10.8453 6.66667 16 6.66667ZM16 28C22.6274 28 28 22.6274 28 16C28 9.37258 22.6274 4 16 4C9.37258 4 4 9.37258 4 16C4 22.6274 9.37258 28 16 28Z" fill="currentColor"/>
</svg>
