<svg width="24" height="24" viewBox="0 0 24 24" fill="none" xmlns="http://www.w3.org/2000/svg">
<path d="M19 12C19 8.13401 15.866 5 12 5C8.13401 5 5 8.13401 5 12C5 15.866 8.13401 19 12 19C15.866 19 19 15.866 19 12ZM11 15.2002V13H8.7998C8.24761 12.9999 7.7998 12.5522 7.7998 12C7.7998 11.4478 8.24761 11.0001 8.7998 11H11V8.7998C11.0001 8.24761 11.4478 7.7998 12 7.7998C12.5522 7.7998 12.9999 8.24761 13 8.7998V11H15.2002C15.7524 11.0001 16.2002 11.4478 16.2002 12C16.2002 12.5522 15.7524 12.9999 15.2002 13H13V15.2002C12.9999 15.7524 12.5522 16.2002 12 16.2002C11.4478 16.2002 11.0001 15.7524 11 15.2002ZM21 12C21 16.9706 16.9706 21 12 21C7.02944 21 3 16.9706 3 12C3 7.02944 7.02944 3 12 3C16.9706 3 21 7.02944 21 12Z" fill="currentColor"/>
</svg>
