<svg width="32" height="32" viewBox="0 0 32 32" fill="none" xmlns="http://www.w3.org/2000/svg">
<path d="M21.8 17.9995H17L17 19.9993H23C23.9428 19.9993 24.4142 19.9993 24.7071 19.7064C25 19.4135 25 18.9421 25 17.9993V11.9999L23 11.9999V16.2C20.6394 13.6152 17.5337 11 14 11C8.95251 11 6.46165 14.6695 7.09256 19.2104C7.16856 19.7575 7.71139 20.0927 8.24938 19.9679C8.7874 19.8431 9.11519 19.3056 9.04766 18.7574C8.64349 15.4768 10.2383 12.9998 14 12.9998C17.109 12.9998 19.7803 15.7027 21.8 17.9995Z" fill="currentColor"/>
</svg>
