<svg width="32" height="32" viewBox="0 0 32 32" fill="none" xmlns="http://www.w3.org/2000/svg">
<path fill-rule="evenodd" clip-rule="evenodd" d="M11.6765 6.35725C13.5535 5.77979 15.5777 5.90565 17.3681 6.71112C19.1584 7.5166 20.5914 8.94614 21.3973 10.7307C22.0656 12.2103 22.2644 13.8495 21.9807 15.4316C21.8833 15.9744 21.3174 16.2683 20.7906 16.1054L20.3349 15.9644C19.8064 15.8009 19.5209 15.2388 19.5877 14.6897C19.7093 13.6912 19.557 12.6718 19.1376 11.7431C18.5796 10.5077 17.5875 9.51801 16.3481 8.96037C15.1086 8.40273 13.7072 8.3156 12.4078 8.71538C11.1083 9.11516 10.0003 9.97428 9.29249 11.131C8.58465 12.2877 8.32572 13.6623 8.56444 14.9959C8.80317 16.3295 9.5231 17.5303 10.5887 18.372C11.6543 19.2138 12.9921 19.6386 14.3502 19.5664C15.0316 19.5302 15.6945 19.3701 16.3085 19.0996C17.7717 18.4549 19.9609 18.2396 21.4452 19.7181L25.2887 23.5463C25.6811 23.9372 25.6811 24.5725 25.2887 24.9633L24.9536 25.2971C24.5634 25.6857 23.9324 25.6857 23.5422 25.2971L19.6931 21.4633C19.2534 21.0253 18.3362 20.9049 17.311 21.3567C16.4242 21.7474 15.4665 21.9786 14.4822 22.031C12.5205 22.1352 10.5882 21.5217 9.04897 20.3058C7.50977 19.0899 6.46988 17.3555 6.12505 15.4291C5.78022 13.5028 6.15423 11.5173 7.17668 9.84649C8.19913 8.17566 9.79949 6.93471 11.6765 6.35725Z" fill="#1C1C1C"/>
</svg>
