<svg width="24" height="24" viewBox="0 0 24 24" fill="none" xmlns="http://www.w3.org/2000/svg">
<path fill-rule="evenodd" clip-rule="evenodd" d="M8.5412 4.2858C10.0428 3.82383 11.6622 3.92452 13.0945 4.5689C14.5267 5.21328 15.6731 6.35692 16.3179 7.78452C16.8261 8.90981 16.9949 10.1504 16.8154 11.3574C16.735 11.8978 16.1725 12.1895 15.6506 12.028C15.127 11.8661 14.8465 11.3079 14.8892 10.7615C14.9468 10.0241 14.819 9.27853 14.51 8.5945C14.0637 7.60615 13.27 6.81441 12.2785 6.3683C11.2869 5.92219 10.1658 5.85248 9.12621 6.17231C8.08663 6.49213 7.20027 7.17942 6.634 8.1048C6.06772 9.03019 5.86057 10.1298 6.05156 11.1967C6.24254 12.2636 6.81848 13.2242 7.67095 13.8976C8.52343 14.5711 9.59365 14.9109 10.6801 14.8531C11.2253 14.8241 11.7556 14.6961 12.2468 14.4797C13.4174 13.9639 15.1687 13.7917 16.3562 14.9745L19.2964 17.903C19.6845 18.2896 19.6845 18.9181 19.2964 19.3047C18.9104 19.6891 18.2862 19.6891 17.9002 19.3047L14.9545 16.3706C14.6028 16.0203 13.869 15.9239 13.0488 16.2853C12.3393 16.5979 11.5732 16.7829 10.7858 16.8248C9.21639 16.9082 7.67053 16.4173 6.43917 15.4446C5.20782 14.4719 4.37591 13.0844 4.10004 11.5433C3.82418 10.0022 4.12338 8.41385 4.94134 7.07719C5.7593 5.74053 7.03959 4.74777 8.5412 4.2858Z" fill="currentColor"/>
</svg>
