<svg width="24" height="24" viewBox="0 0 24 24" fill="none" xmlns="http://www.w3.org/2000/svg">
<path fill-rule="evenodd" clip-rule="evenodd" d="M15.5901 12C15.5901 9.92893 13.9685 8.25 11.9682 8.25C9.96785 8.25 8.34627 9.92893 8.34627 12C8.34627 14.0711 9.96785 15.75 11.9682 15.75C13.9685 15.75 15.5901 14.0711 15.5901 12ZM11.9682 9.75C13.1684 9.75 14.1413 10.7574 14.1413 12C14.1413 13.2426 13.1684 14.25 11.9682 14.25C10.768 14.25 9.79503 13.2426 9.79503 12C9.79503 10.7574 10.768 9.75 11.9682 9.75Z" fill="#1C1C1C"/>
<path fill-rule="evenodd" clip-rule="evenodd" d="M11.9682 18C9.1884 18 7.21436 16.5429 5.962 15.1353C5.14257 14.2144 4.47425 13.1549 4 12C4.47424 10.8451 5.14257 9.78564 5.962 8.86466C7.21436 7.45711 9.1884 6.00002 11.9682 6C14.7701 6.00002 16.76 7.45711 18.0223 8.86466C18.8483 9.78564 19.522 10.8451 20 12C19.522 13.1549 18.8483 14.2144 18.0223 15.1353C16.76 16.5429 14.7701 18 11.9682 18ZM11.9682 7.5C9.71753 7.50002 8.09843 8.66791 7.01523 9.88534C6.27265 10.7199 5.79841 11.5647 5.58086 12C5.79841 12.4353 6.27265 13.2801 7.01523 14.1147C8.09843 15.3321 9.71753 16.5 11.9682 16.5C14.2368 16.5 15.8688 15.3321 16.9607 14.1147C17.7092 13.2801 18.1872 12.4353 18.4065 12C18.1872 11.5647 17.7092 10.7199 16.9607 9.88534C15.8688 8.66791 14.2368 7.50002 11.9682 7.5Z" fill="#1C1C1C"/>
</svg>
