<svg width="32" height="32" viewBox="0 0 32 32" fill="none" xmlns="http://www.w3.org/2000/svg">
<path fill-rule="evenodd" clip-rule="evenodd" d="M16 8.8C13.4294 8.8 11.2589 9.96433 9.54034 11.4394C7.82111 12.915 6.61977 14.6476 6.01214 15.637C5.92923 15.772 5.89398 15.8307 5.87062 15.877C5.85632 15.9052 5.85271 15.9156 5.84898 15.9323C5.85068 15.9247 5.85056 15.9259 5.84953 15.937C5.84953 15.937 5.84918 15.9407 5.84898 15.9429C5.84759 15.9581 5.84628 15.978 5.84628 16C5.84628 16.022 5.84759 16.0419 5.84898 16.0571C5.84918 16.0593 5.84953 16.063 5.84953 16.063C5.85035 16.0718 5.85059 16.0744 5.84981 16.0713C5.85331 16.086 5.85738 16.0969 5.87062 16.123C5.89398 16.1693 5.92923 16.228 6.01214 16.363C6.61977 17.3524 7.82111 19.085 9.54034 20.5606C11.2589 22.0357 13.4294 23.2 16 23.2C18.5706 23.2 20.7411 22.0357 22.4597 20.5606C24.1789 19.085 25.3802 17.3524 25.9879 16.363C26.0708 16.228 26.106 16.1693 26.1294 16.123C26.1437 16.0948 26.1473 16.0844 26.151 16.0677C26.1493 16.0753 26.1494 16.0741 26.1505 16.063L26.151 16.0571C26.1524 16.0419 26.1537 16.022 26.1537 16C26.1537 15.978 26.1524 15.9581 26.151 15.9429L26.1505 15.937C26.1497 15.9282 26.1494 15.9256 26.1502 15.9287C26.1467 15.914 26.1426 15.9032 26.1294 15.877C26.106 15.8307 26.0708 15.772 25.9879 15.637C25.3802 14.6476 24.1789 12.915 22.4597 11.4394C20.7411 9.96433 18.5706 8.8 16 8.8ZM16 20.3717C18.4198 20.3717 20.2989 18.3685 20.2989 16C20.2989 13.6315 18.4198 11.6283 16 11.6283C13.5802 11.6283 11.7011 13.6315 11.7011 16C11.7011 18.3685 13.5802 20.3717 16 20.3717Z" fill="currentColor"/>
<path fill-rule="evenodd" clip-rule="evenodd" d="M23.6793 10.0885C21.7605 8.44163 19.1736 7 16 7C12.8264 7 10.2395 8.44163 8.32071 10.0885C6.40282 11.7346 5.08703 13.6398 4.42832 14.7124C4.41995 14.726 4.4115 14.7397 4.403 14.7535C4.26904 14.9708 4.12079 15.2112 4.04522 15.55C3.98493 15.8205 3.98493 16.1795 4.04522 16.45C4.12079 16.7888 4.26904 17.0292 4.40299 17.2465C4.4115 17.2603 4.41995 17.274 4.42832 17.2876C5.08703 18.3602 6.40282 20.2654 8.32071 21.9115C10.2395 23.5584 12.8264 25 16 25C19.1736 25 21.7605 23.5584 23.6793 21.9115C25.5972 20.2654 26.913 18.3602 27.5717 17.2876C27.58 17.274 27.5885 17.2603 27.597 17.2465C27.731 17.0292 27.8792 16.7888 27.9548 16.45C28.0151 16.1795 28.0151 15.8205 27.9548 15.55C27.8792 15.2112 27.731 14.9708 27.597 14.7535C27.5885 14.7397 27.58 14.726 27.5717 14.7124C26.913 13.6398 25.5972 11.7346 23.6793 10.0885ZM9.54034 11.4394C11.2589 9.96433 13.4294 8.8 16 8.8C18.5706 8.8 20.7411 9.96433 22.4597 11.4394C24.1789 12.915 25.3802 14.6476 25.9879 15.637C26.0708 15.772 26.106 15.8307 26.1294 15.877C26.1426 15.9032 26.1467 15.914 26.1502 15.9287C26.1502 15.9287 26.1501 15.9335 26.1505 15.937L26.151 15.9429C26.1524 15.9581 26.1537 15.978 26.1537 16C26.1537 16.022 26.1524 16.0419 26.151 16.0571L26.1505 16.063C26.1494 16.0741 26.1493 16.0753 26.151 16.0677C26.1473 16.0844 26.1437 16.0948 26.1294 16.123C26.106 16.1693 26.0708 16.228 25.9879 16.363C25.3802 17.3524 24.1789 19.085 22.4597 20.5606C20.7411 22.0357 18.5706 23.2 16 23.2C13.4294 23.2 11.2589 22.0357 9.54034 20.5606C7.82111 19.085 6.61977 17.3524 6.01214 16.363C5.92923 16.228 5.89398 16.1693 5.87062 16.123C5.85738 16.0969 5.85331 16.086 5.84981 16.0713C5.85059 16.0744 5.85035 16.0718 5.84953 16.063C5.84953 16.063 5.84918 16.0593 5.84898 16.0571C5.84759 16.0419 5.84628 16.022 5.84628 16C5.84628 15.978 5.84759 15.9581 5.84898 15.9429C5.84918 15.9407 5.84953 15.937 5.84953 15.937C5.85056 15.9259 5.85068 15.9247 5.84898 15.9323C5.85271 15.9156 5.85632 15.9052 5.87062 15.877C5.89398 15.8307 5.92923 15.772 6.01214 15.637C6.61977 14.6476 7.82111 12.915 9.54034 11.4394Z" fill="currentColor"/>
<path d="M18.4528 16C18.4528 14.534 17.3088 13.4283 16 13.4283C14.6912 13.4283 13.5472 14.534 13.5472 16C13.5472 17.4659 14.6912 18.5717 16 18.5717C17.3088 18.5717 18.4528 17.466 18.4528 16Z" fill="currentColor"/>
</svg>
