<svg width="16" height="16" viewBox="0 0 16 16" fill="none" xmlns="http://www.w3.org/2000/svg">
<path d="M8 3.5C9.60063 3.5 10.8961 4.21968 11.8441 5.02427C12.7914 5.82833 13.4388 6.75608 13.7622 7.27679C13.8265 7.38038 13.9254 7.52862 13.9732 7.74009C14.0089 7.89889 14.0089 8.10111 13.9732 8.2599C13.9254 8.47138 13.8265 8.61962 13.7622 8.72321C13.4388 9.24392 12.7914 10.1717 11.8441 10.9757C10.8961 11.7803 9.60063 12.5 8 12.5C6.39937 12.5 5.10394 11.7803 4.15593 10.9757C3.20862 10.1717 2.56118 9.24392 2.2378 8.72321C2.17346 8.61962 2.07458 8.47138 2.02684 8.2599C1.99105 8.10111 1.99105 7.89889 2.02684 7.74009C2.07458 7.52862 2.17346 7.38038 2.2378 7.27679C2.56118 6.75608 3.20862 5.82833 4.15593 5.02427C5.10394 4.21968 6.39937 3.5 8 3.5ZM8 4.78571C6.83475 4.78571 5.83964 5.30788 5.03621 5.98982C4.23247 6.67214 3.6675 7.47606 3.38112 7.93722C3.3643 7.96431 3.35199 7.98354 3.34206 8C3.35199 8.01646 3.3643 8.03569 3.38112 8.06278C3.6675 8.52394 4.23247 9.32786 5.03621 10.0102C5.83964 10.6921 6.83475 11.2143 8 11.2143C9.16525 11.2143 10.1604 10.6921 10.9638 10.0102C11.7675 9.32786 12.3325 8.52394 12.6189 8.06278C12.6355 8.03599 12.6468 8.01634 12.6566 8C12.6468 7.98366 12.6355 7.96401 12.6189 7.93722C12.3325 7.47606 11.7675 6.67214 10.9638 5.98982C10.1604 5.30788 9.16525 4.78571 8 4.78571ZM8.95841 8C8.95841 7.40937 8.49647 6.98926 8 6.98926C7.50353 6.98926 7.04159 7.40937 7.04159 8C7.04159 8.59063 7.50353 9.01074 8 9.01074C8.49647 9.01074 8.95841 8.59063 8.95841 8ZM10.2919 8C10.2919 9.23529 9.29897 10.2965 8 10.2965C6.70103 10.2965 5.70814 9.23529 5.70814 8C5.70814 6.76471 6.70103 5.70354 8 5.70354C9.29897 5.70354 10.2919 6.76471 10.2919 8Z" fill="currentColor"/>
</svg>
