<svg width="16" height="16" viewBox="0 0 16 16" fill="none" xmlns="http://www.w3.org/2000/svg">
<path fill-rule="evenodd" clip-rule="evenodd" d="M8 4.78571C6.83475 4.78571 5.83964 5.30788 5.03621 5.98982C4.23247 6.67214 3.6675 7.47606 3.38112 7.93722C3.3745 7.94789 3.36858 7.95733 3.36322 7.96587C3.35497 7.97902 3.34808 7.99002 3.34206 8C3.34808 8.00998 3.35498 8.02098 3.36323 8.03414C3.36858 8.04267 3.3745 8.05212 3.38112 8.06278C3.6675 8.52394 4.23247 9.32786 5.03621 10.0102C5.83964 10.6921 6.83475 11.2143 8 11.2143C9.16525 11.2143 10.1604 10.6921 10.9638 10.0102C11.7675 9.32786 12.3325 8.52394 12.6189 8.06278C12.63 8.04484 12.6387 8.0301 12.6463 8.01742C12.65 8.01116 12.6534 8.0054 12.6566 8C12.6534 7.9946 12.65 7.98884 12.6463 7.98258C12.6387 7.9699 12.63 7.95516 12.6189 7.93722C12.3325 7.47606 11.7675 6.67214 10.9638 5.98982C10.1604 5.30788 9.16525 4.78571 8 4.78571ZM8 10.2965C9.29897 10.2965 10.2919 9.23529 10.2919 8C10.2919 6.76471 9.29897 5.70354 8 5.70354C6.70103 5.70354 5.70814 6.76471 5.70814 8C5.70814 9.23529 6.70103 10.2965 8 10.2965Z" fill="currentColor"/>
<path fill-rule="evenodd" clip-rule="evenodd" d="M11.8441 5.02427C10.8961 4.21968 9.60063 3.5 8 3.5C6.39937 3.5 5.10394 4.21968 4.15593 5.02427C3.20862 5.82833 2.56118 6.75608 2.2378 7.27679C2.23341 7.28384 2.22887 7.29111 2.22419 7.29859C2.16023 7.40088 2.07133 7.54303 2.02684 7.74009C1.99105 7.89889 1.99105 8.10111 2.02684 8.2599C2.07133 8.45697 2.16023 8.59912 2.22419 8.70141C2.22887 8.70889 2.23341 8.71616 2.2378 8.72321C2.56118 9.24392 3.20862 10.1717 4.15593 10.9757C5.10394 11.7803 6.39937 12.5 8 12.5C9.60063 12.5 10.8961 11.7803 11.8441 10.9757C12.7914 10.1717 13.4388 9.24392 13.7622 8.72321C13.7666 8.71616 13.7711 8.70889 13.7758 8.70141C13.8398 8.59913 13.9287 8.45697 13.9732 8.2599C14.0089 8.10111 14.0089 7.89889 13.9732 7.74009C13.9287 7.54303 13.8398 7.40088 13.7758 7.29859C13.7711 7.29111 13.7666 7.28385 13.7622 7.27679C13.4388 6.75608 12.7914 5.82833 11.8441 5.02427ZM5.03621 5.98982C5.83964 5.30788 6.83475 4.78571 8 4.78571C9.16525 4.78571 10.1604 5.30788 10.9638 5.98982C11.7675 6.67214 12.3325 7.47606 12.6189 7.93722C12.63 7.95516 12.6387 7.9699 12.6463 7.98258C12.65 7.98884 12.6534 7.9946 12.6566 8C12.6534 8.0054 12.65 8.01116 12.6463 8.01742C12.6387 8.0301 12.63 8.04484 12.6189 8.06278C12.3325 8.52394 11.7675 9.32786 10.9638 10.0102C10.1604 10.6921 9.16525 11.2143 8 11.2143C6.83475 11.2143 5.83964 10.6921 5.03621 10.0102C4.23247 9.32786 3.6675 8.52394 3.38112 8.06278C3.3745 8.05212 3.36858 8.04267 3.36323 8.03414C3.35498 8.02098 3.34808 8.00998 3.34206 8C3.34808 7.99002 3.35497 7.97902 3.36322 7.96587C3.36858 7.95733 3.3745 7.94789 3.38112 7.93722C3.6675 7.47606 4.23247 6.67214 5.03621 5.98982Z" fill="currentColor"/>
<path d="M8.95841 8C8.95841 7.40937 8.49647 6.98926 8 6.98926C7.50353 6.98926 7.04159 7.40937 7.04159 8C7.04159 8.59063 7.50353 9.01074 8 9.01074C8.49647 9.01074 8.95841 8.59063 8.95841 8Z" fill="currentColor"/>
</svg>
