<svg width="24" height="24" viewBox="0 0 24 24" fill="none" xmlns="http://www.w3.org/2000/svg">
<path fill-rule="evenodd" clip-rule="evenodd" d="M12.0001 6.82609C10.1628 6.82609 8.6089 7.6779 7.37178 8.76512C6.13271 9.85408 5.2644 11.1342 4.82572 11.8657C4.79654 11.9143 4.77675 11.9483 4.75994 11.9774C4.75741 11.9818 4.75493 11.9858 4.75264 11.9895C4.75029 11.9933 4.74814 11.9968 4.74633 12C4.74814 12.0032 4.75029 12.0067 4.75264 12.0105C4.75493 12.0142 4.75741 12.0182 4.75994 12.0226C4.77675 12.0517 4.79654 12.0857 4.82572 12.1343C5.2644 12.8658 6.13271 14.1459 7.37178 15.2349C8.6089 16.3221 10.1628 17.1739 12.0001 17.1739C13.8373 17.1739 15.3912 16.3221 16.6283 15.2349C17.8674 14.1459 18.7357 12.8658 19.1744 12.1343C19.2036 12.0857 19.2234 12.0517 19.2402 12.0226C19.2452 12.014 19.2492 12.0063 19.2527 12C19.2514 11.9977 19.25 11.9952 19.2486 11.9926C19.2461 11.988 19.2433 11.9829 19.2402 11.9774C19.2234 11.9483 19.2036 11.9143 19.1744 11.8657C18.7357 11.1342 17.8674 9.85408 16.6283 8.76512C15.3912 7.6779 13.8373 6.82609 12.0001 6.82609ZM12.0001 15.5214C13.853 15.5214 15.3479 13.9411 15.3479 12C15.3479 10.0589 13.853 8.4786 12.0001 8.4786C10.1471 8.4786 8.65219 10.0589 8.65219 12C8.65219 13.9411 10.1471 15.5214 12.0001 15.5214Z" fill="currentColor"/>
<path fill-rule="evenodd" clip-rule="evenodd" d="M17.7477 7.36583C16.3154 6.10706 14.3784 5 12.0001 5C9.62168 5 7.68471 6.10706 6.25242 7.36583C4.82212 8.62287 3.84204 10.0763 3.35138 10.8944C3.34499 10.905 3.33841 10.9159 3.33168 10.9271C3.26058 11.0449 3.17211 11.1915 3.10414 11.3794L3.0395 11.6029C2.98683 11.8451 2.98683 12.1549 3.0395 12.3971C3.10479 12.697 3.23434 12.9117 3.33144 13.0725C3.33826 13.0838 3.34492 13.0949 3.35138 13.1056C3.84204 13.9237 4.82212 15.3771 6.25242 16.6342C7.68471 17.8929 9.62168 19 12.0001 19C14.3785 19 16.3154 17.8929 17.7477 16.6342C19.178 15.3771 20.1581 13.9237 20.6488 13.1056C20.6552 13.0949 20.6619 13.0838 20.6687 13.0725C20.7658 12.9117 20.8953 12.697 20.9606 12.3971C21.0001 12.2156 21.0098 11.9961 20.9901 11.7955L20.9606 11.6029L20.896 11.3794C20.828 11.1915 20.7395 11.0449 20.6684 10.9271C20.6617 10.9159 20.6551 10.905 20.6488 10.8944C20.1581 10.0763 19.178 8.62287 17.7477 7.36583ZM7.37178 8.76512C8.6089 7.6779 10.1628 6.82609 12.0001 6.82609C13.8373 6.82609 15.3912 7.6779 16.6283 8.76512C17.8674 9.85408 18.7357 11.1342 19.1744 11.8657C19.2036 11.9143 19.2234 11.9483 19.2402 11.9774C19.2433 11.9829 19.2461 11.988 19.2486 11.9926C19.25 11.9952 19.2514 11.9977 19.2527 12C19.2492 12.0063 19.2452 12.014 19.2402 12.0226C19.2234 12.0517 19.2036 12.0857 19.1744 12.1343C18.7357 12.8658 17.8674 14.1459 16.6283 15.2349C15.3912 16.3221 13.8373 17.1739 12.0001 17.1739C10.1628 17.1739 8.6089 16.3221 7.37178 15.2349C6.13271 14.1459 5.2644 12.8658 4.82572 12.1343C4.79654 12.0857 4.77675 12.0517 4.75994 12.0226C4.75741 12.0182 4.75493 12.0142 4.75264 12.0105C4.75029 12.0067 4.74814 12.0032 4.74633 12C4.74814 11.9968 4.75029 11.9933 4.75264 11.9895C4.75493 11.9858 4.75741 11.9818 4.75994 11.9774C4.77675 11.9483 4.79654 11.9143 4.82572 11.8657C5.2644 11.1342 6.13271 9.85408 7.37178 8.76512Z" fill="currentColor"/>
<path d="M13.606 12C13.606 11.0596 12.8836 10.3047 12.0001 10.3047C11.1166 10.3047 10.3942 11.0596 10.3942 12C10.3942 12.9404 11.1166 13.6953 12.0001 13.6953C12.8836 13.6953 13.606 12.9404 13.606 12Z" fill="currentColor"/>
</svg>
