<svg width="24" height="24" viewBox="0 0 24 24" fill="none" xmlns="http://www.w3.org/2000/svg">
<path d="M12.0001 5C14.3784 5 16.3154 6.10706 17.7477 7.36583C19.178 8.62287 20.1581 10.0763 20.6488 10.8944C20.7226 11.0175 20.8216 11.1737 20.896 11.3794L20.9606 11.6029L20.9901 11.7955C21.0098 11.9961 21.0001 12.2156 20.9606 12.3971C20.8908 12.7181 20.7473 12.9414 20.6488 13.1056C20.1581 13.9237 19.178 15.3771 17.7477 16.6342C16.3154 17.8929 14.3785 19 12.0001 19C9.62168 19 7.68471 17.8929 6.25242 16.6342C4.82212 15.3771 3.84204 13.9237 3.35138 13.1056C3.25285 12.9414 3.10937 12.7181 3.0395 12.3971C2.98683 12.1549 2.98683 11.8451 3.0395 11.6029L3.10414 11.3794C3.17855 11.1737 3.27752 11.0175 3.35138 10.8944C3.84204 10.0763 4.82212 8.62287 6.25242 7.36583C7.68471 6.10706 9.62168 5 12.0001 5ZM12.0001 6.82609C10.1628 6.82609 8.6089 7.6779 7.37178 8.76512C6.1327 9.85408 5.2644 11.1342 4.82572 11.8657C4.79654 11.9143 4.77675 11.9483 4.75994 11.9774C4.75483 11.9863 4.7499 11.9936 4.74633 12C4.7499 12.0064 4.75483 12.0137 4.75994 12.0226C4.77675 12.0517 4.79654 12.0857 4.82572 12.1343C5.2644 12.8658 6.1327 14.1459 7.37178 15.2349C8.6089 16.3221 10.1628 17.1739 12.0001 17.1739C13.8373 17.1739 15.3912 16.3221 16.6283 15.2349C17.8674 14.1459 18.7357 12.8658 19.1744 12.1343C19.2036 12.0857 19.2234 12.0517 19.2402 12.0226C19.2452 12.014 19.2492 12.0063 19.2527 12C19.2492 11.9937 19.2452 11.986 19.2402 11.9774C19.2234 11.9483 19.2036 11.9143 19.1744 11.8657C18.7357 11.1342 17.8674 9.85408 16.6283 8.76512C15.3912 7.6779 13.8373 6.82609 12.0001 6.82609ZM13.606 12C13.606 11.0596 12.8836 10.3047 12.0001 10.3047C11.1166 10.3047 10.3942 11.0596 10.3942 12C10.3942 12.9404 11.1166 13.6953 12.0001 13.6953C12.8836 13.6953 13.606 12.9404 13.606 12ZM15.3479 12C15.3479 13.9411 13.853 15.5214 12.0001 15.5214C10.1471 15.5214 8.65219 13.9411 8.65219 12C8.65219 10.0589 10.1471 8.4786 12.0001 8.4786C13.853 8.4786 15.3479 10.0589 15.3479 12Z" fill="currentColor"/>
</svg>
