<svg width="24" height="24" viewBox="0 0 24 24" fill="none" xmlns="http://www.w3.org/2000/svg">
<path d="M10.8565 17.1504C10.8565 17.5241 11.1378 17.8873 11.5684 17.9785L14.2051 12.2754C14.4515 11.7428 14.9396 11.3876 15.4893 11.2832V5H7.18269C6.48943 5.00012 5.95003 5.48222 5.85652 6.06641L5.01667 11.3164C4.90333 12.026 5.47648 12.75 6.34284 12.75H9.07624C10.0217 12.75 10.8565 13.4965 10.8565 14.5V17.1504ZM19.001 5.5C19.001 5.2609 18.7878 5.00007 18.4405 5H17.4893V11.25H18.4405C18.7878 11.2499 19.001 10.9891 19.001 10.75V5.5ZM8.85652 14.75H6.34284C4.33987 14.75 2.71851 13.0161 3.04109 11L3.88191 5.75C4.13976 4.1391 5.56525 3.00012 7.18269 3H18.4405C19.8169 3.00007 21.001 4.08233 21.001 5.5V10.75C21.001 12.1677 19.8169 13.2499 18.4405 13.25H15.9581L13.2745 19.0537L13.2198 19.1621C12.9269 19.6883 12.3676 20 11.7803 20L11.4884 19.9854C10.0406 19.8435 8.85652 18.6605 8.85652 17.1504V14.75Z" fill="currentColor"/>
</svg>
