<svg width="32" height="32" viewBox="0 0 32 32" fill="none" xmlns="http://www.w3.org/2000/svg">
<path d="M16.5626 8.4681C16.5626 7.92625 16.138 7.47347 15.5703 7.36068L12.0309 14.4865C11.7116 15.1289 11.0589 15.5756 10.3029 15.6978V23.6667H21.4407C22.3419 23.6667 23.1091 23.078 23.2461 22.2812L24.3689 15.7479C24.5387 14.7587 23.6833 13.8667 22.5645 13.8667H18.91C17.6136 13.8667 16.5626 12.9265 16.5626 11.7667V8.4681ZM5.60819 22.9667C5.60819 23.3533 5.95851 23.6667 6.39065 23.6667H7.69475V15.7333H6.39065C5.95851 15.7333 5.60819 16.0467 5.60819 16.4333V22.9667ZM19.1708 11.5333H22.5645C25.282 11.5333 27.3607 13.7005 26.9475 16.1034L25.8237 22.6367C25.4909 24.5717 23.6291 26 21.4407 26H6.39065C4.51805 26 3 24.6419 3 22.9667V16.4333C3 14.7581 4.51805 13.4 6.39065 13.4H9.71712L13.3187 6.14844C13.6656 5.45008 14.4399 5 15.2942 5L15.4939 5.00456C17.5421 5.09754 19.1708 6.61264 19.1708 8.4681V11.5333Z" fill="currentColor"/>
</svg>
