<svg width="16" height="16" viewBox="0 0 16 16" fill="none" xmlns="http://www.w3.org/2000/svg">
<path d="M8.73781 3.94792C8.73768 3.83412 8.65261 3.67666 8.47398 3.60724L6.84216 7.08975C6.67832 7.4391 5.92442 7.67157 5.58779 7.766V11.4286H11.2069C11.6144 11.4284 11.8835 11.1523 11.9268 10.8853L12.4624 7.58594C12.5119 7.28064 12.2577 6.87184 11.7416 6.87184H10.0003C9.36251 6.87184 8.73793 6.36702 8.73781 5.61449V3.94792ZM2.52926 11.271C2.52926 11.2929 2.53679 11.3257 2.57407 11.361C2.61238 11.3974 2.67623 11.4286 2.75925 11.4286H4.05853V7.81408H2.75925C2.67623 7.81408 2.61238 7.8463 2.57407 7.88263C2.53713 7.91782 2.52926 7.9498 2.52926 7.97163V11.271ZM10.2671 5.30041H11.7416C13.054 5.30041 14.1993 6.43664 13.9708 7.84477L13.4351 11.1442C13.2546 12.2569 12.2716 12.9998 11.2069 13H2.75925C1.84684 13 1 12.284 1 11.271V7.97163C1 6.95863 1.84684 6.24265 2.75925 6.24265H5.54189L7.21452 2.67522L7.30114 2.52074C7.52562 2.18378 7.90094 2 8.27684 2L8.47099 2.00921C9.43238 2.10293 10.2669 2.88478 10.2671 3.94792V5.30041Z" fill="currentColor"/>
</svg>
