<svg width="32" height="32" viewBox="0 0 32 32" fill="none" xmlns="http://www.w3.org/2000/svg">
<path d="M13.4374 22.5319C13.4374 23.0737 13.862 23.5265 14.4297 23.6393L17.9691 16.5135C18.2884 15.8711 18.9411 15.4244 19.6971 15.3022V7.33333H8.55925C7.65812 7.33333 6.89092 7.92196 6.75389 8.71875L5.63115 15.2521C5.46129 16.2413 6.31666 17.1333 7.43549 17.1333H11.09C12.3864 17.1333 13.4374 18.0735 13.4374 19.2333V22.5319ZM24.3918 8.03333C24.3918 7.64673 24.0415 7.33333 23.6093 7.33333H22.3053V15.2667H23.6093C24.0415 15.2667 24.3918 14.9533 24.3918 14.5667V8.03333Z" fill="currentColor"/>
<path d="M14.4297 23.6393C13.862 23.5265 13.4374 23.0737 13.4374 22.5319V19.2333C13.4374 18.0735 12.3864 17.1333 11.09 17.1333H7.43549C6.31666 17.1333 5.46129 16.2413 5.63115 15.2521L6.75389 8.71875C6.89092 7.92196 7.65812 7.33333 8.55925 7.33333H19.6971V5H8.55925C6.37087 5 4.50913 6.42832 4.17626 8.36328L3.0525 14.8966C2.63928 17.2995 4.718 19.4667 7.43549 19.4667H10.8292V22.5319C10.8292 24.3874 12.4579 25.9025 14.5061 25.9954L14.7058 26C15.5601 26 16.3344 25.5499 16.6813 24.8516L19.6971 18.7795V15.3022C18.9411 15.4244 18.2884 15.8711 17.9691 16.5135L14.4297 23.6393Z" fill="currentColor"/>
<path d="M23.6093 7.33333C24.0415 7.33333 24.3918 7.64673 24.3918 8.03333V14.5667C24.3918 14.9533 24.0415 15.2667 23.6093 15.2667H22.3053V17.6H23.6093C25.482 17.6 27 16.2419 27 14.5667V8.03333C27 6.35807 25.482 5 23.6093 5H22.3053V7.33333H23.6093Z" fill="currentColor"/>
</svg>
