<svg width="16" height="16" viewBox="0 0 16 16" fill="none" xmlns="http://www.w3.org/2000/svg">
<path d="M6.26219 11.0521C6.26232 11.1659 6.34739 11.3233 6.52602 11.3928L8.15784 7.91025C8.32168 7.5609 9.07558 7.32843 9.41221 7.234V3.57143H3.79306C3.38558 3.57162 3.11655 3.84775 3.07323 4.11468L2.53759 7.41406C2.48805 7.71936 2.74233 8.12816 3.25842 8.12816H4.99975C5.63749 8.12816 6.26207 8.63298 6.26219 9.38551V11.0521ZM12.4707 3.72898C12.4707 3.70707 12.4632 3.67429 12.4259 3.63895C12.3876 3.60263 12.3238 3.57143 12.2407 3.57143H10.9415V7.18592H12.2407C12.3238 7.18592 12.3876 7.1537 12.4259 7.11737C12.4629 7.08218 12.4707 7.0502 12.4707 7.02837V3.72898ZM4.73292 9.69959H3.25842C1.94604 9.69959 0.800746 8.56336 1.02924 7.15523L1.56488 3.85584C1.74543 2.74314 2.72843 2.00019 3.79306 2H12.2407C13.1532 2 14 2.71598 14 3.72898V7.02837C14 8.04137 13.1532 8.75735 12.2407 8.75735H9.45811L7.78548 12.3248L7.69886 12.4793C7.47438 12.8162 7.09906 13 6.72316 13L6.52901 12.9908C5.56762 12.8971 4.73306 12.1152 4.73292 11.0521V9.69959Z" fill="currentColor"/>
</svg>
