<svg width="24" height="24" viewBox="0 0 24 24" fill="none" xmlns="http://www.w3.org/2000/svg">
<path d="M10.8565 17.1504C10.8565 17.5241 11.1378 17.8873 11.5684 17.9785L14.2051 12.2754C14.4515 11.7428 14.9396 11.3876 15.4893 11.2832V5H7.18269C6.48943 5.00012 5.95003 5.48222 5.85652 6.06641L5.01667 11.3164C4.90333 12.026 5.47648 12.75 6.34284 12.75H9.07624C10.0217 12.75 10.8565 13.4965 10.8565 14.5V17.1504ZM19.001 5.5C19.001 5.2609 18.7878 5.00007 18.4405 5H17.4893V11.25H18.4405C18.7878 11.2499 19.001 10.9891 19.001 10.75V5.5Z" fill="currentColor"/>
<path d="M11.5684 17.9785C11.1378 17.8873 10.8565 17.5241 10.8565 17.1504V14.5C10.8565 13.4965 10.0217 12.75 9.07624 12.75H6.34284C5.47648 12.75 4.90333 12.026 5.01667 11.3164L5.85652 6.06641C5.95003 5.48222 6.48943 5.00012 7.18269 5H15.4893V3H7.18269C5.56525 3.00012 4.13976 4.1391 3.88191 5.75L3.04109 11C2.71851 13.0161 4.33987 14.75 6.34284 14.75H8.85652V17.1504C8.85652 18.6605 10.0406 19.8435 11.4884 19.9854L11.7803 20C12.3676 20 12.9269 19.6883 13.2198 19.1621L13.2745 19.0537L15.4893 14.2637V11.2832C14.9396 11.3876 14.4515 11.7428 14.2051 12.2754L11.5684 17.9785Z" fill="currentColor"/>
<path d="M18.4405 5C18.7878 5.00007 19.001 5.2609 19.001 5.5V10.75C19.001 10.9891 18.7878 11.2499 18.4405 11.25H17.4893V13.25H18.4405C19.8169 13.2499 21.001 12.1677 21.001 10.75V5.5C21.001 4.08233 19.8169 3.00007 18.4405 3H17.4893V5H18.4405Z" fill="currentColor"/>
</svg>
