<svg width="24" height="24" viewBox="0 0 24 24" fill="none" xmlns="http://www.w3.org/2000/svg">
<path d="M13.1445 5.84961C13.1445 5.4759 12.8633 5.11266 12.4326 5.02148L9.7959 10.7246C9.54954 11.2572 9.06142 11.6124 8.51172 11.7168V18H16.8184C17.5116 17.9999 18.051 17.5178 18.1445 16.9336L18.9844 11.6836C19.0977 10.974 18.5246 10.25 17.6582 10.25H14.9248C13.9793 10.25 13.1445 9.50351 13.1445 8.5V5.84961ZM5 17.5C5 17.7391 5.21322 17.9999 5.56055 18H6.51172V11.75H5.56055C5.21322 11.7501 5 12.0109 5 12.25V17.5Z" fill="currentColor"/>
<path d="M12.4326 5.02148C12.8633 5.11266 13.1445 5.4759 13.1445 5.84961V8.5C13.1445 9.50351 13.9793 10.25 14.9248 10.25H17.6582C18.5246 10.25 19.0977 10.974 18.9844 11.6836L18.1445 16.9336C18.051 17.5178 17.5116 17.9999 16.8184 18H8.51172V20H16.8184C18.4358 19.9999 19.8613 18.8609 20.1191 17.25L20.96 12C21.2825 9.98394 19.6612 8.25 17.6582 8.25H15.1445V5.84961C15.1445 4.3395 13.9604 3.15651 12.5127 3.01465L12.2207 3C11.6335 3 11.0742 3.31173 10.7812 3.83789L10.7266 3.94629L8.51172 8.73625V11.7168C9.06142 11.6124 9.54954 11.2572 9.7959 10.7246L12.4326 5.02148Z" fill="currentColor"/>
<path d="M5.56055 18C5.21322 17.9999 5 17.7391 5 17.5V12.25C5 12.0109 5.21322 11.7501 5.56055 11.75H6.51172V9.75H5.56055C4.18413 9.75007 3 10.8323 3 12.25V17.5C3 18.9177 4.18413 19.9999 5.56055 20H6.51172V18H5.56055Z" fill="currentColor"/>
</svg>
