<svg width="24" height="24" viewBox="0 0 24 24" fill="none" xmlns="http://www.w3.org/2000/svg">
<path d="M13.1445 5.84961C13.1445 5.4759 12.8633 5.11266 12.4326 5.02148L9.7959 10.7246C9.54954 11.2572 9.06142 11.6124 8.51172 11.7168V18H16.8184C17.5116 17.9999 18.051 17.5178 18.1445 16.9336L18.9844 11.6836C19.0977 10.974 18.5246 10.25 17.6582 10.25H14.9248C13.9793 10.25 13.1445 9.50351 13.1445 8.5V5.84961ZM5 17.5C5 17.7391 5.21322 17.9999 5.56055 18H6.51172V11.75H5.56055C5.21322 11.7501 5 12.0109 5 12.25V17.5ZM15.1445 8.25H17.6582C19.6612 8.25 21.2825 9.98394 20.96 12L20.1191 17.25C19.8613 18.8609 18.4358 19.9999 16.8184 20H5.56055C4.18413 19.9999 3 18.9177 3 17.5V12.25C3 10.8323 4.18413 9.75007 5.56055 9.75H8.04297L10.7266 3.94629L10.7812 3.83789C11.0742 3.31173 11.6335 3 12.2207 3L12.5127 3.01465C13.9604 3.15651 15.1445 4.3395 15.1445 5.84961V8.25Z" fill="currentColor"/>
</svg>
