<svg width="32" height="32" viewBox="0 0 32 32" fill="none" xmlns="http://www.w3.org/2000/svg">
<path fill-rule="evenodd" clip-rule="evenodd" d="M23.0528 21.6423C22.8496 24.1078 20.8935 26 18.5482 26H14.519C12.215 26 10.2795 24.1721 10.0251 21.7559L9.20672 13.9846C9.14454 13.3941 9.6075 12.8798 10.2012 12.8798L18.3965 12.8798C18.9488 12.8798 19.3965 13.3275 19.3965 13.8798V14.2653C19.3965 14.8176 18.9488 15.2653 18.3965 15.2653L11.6163 15.2653L12.272 21.4925C12.3992 22.7005 13.367 23.6145 14.519 23.6145H18.5482C19.7209 23.6145 20.6989 22.6684 20.8005 21.4357L21.5753 12.0332L16.5731 10.8858L9.95809 9.48155C9.42576 9.36855 9.08152 8.85062 9.18344 8.31606L9.25468 7.94246C9.35964 7.39197 9.89644 7.03518 10.4446 7.15156L15.0656 8.13251C15.5874 8.24327 16.1042 7.92505 16.2402 7.4093L16.3497 6.99414C16.4933 6.44961 17.058 6.13099 17.5984 6.28964L17.8567 6.36548C18.3762 6.51802 18.68 7.05639 18.5419 7.57997L18.478 7.82238C18.3339 8.36867 18.6707 8.92575 19.2213 9.05206L23.1558 9.95456C23.6404 10.0657 23.9697 10.5159 23.9289 11.0114L23.0528 21.6423Z" fill="#1C1C1C"/>
</svg>
