<svg width="24" height="24" viewBox="0 0 24 24" fill="none" xmlns="http://www.w3.org/2000/svg">
<path fill-rule="evenodd" clip-rule="evenodd" d="M17.2422 16.5139C17.0797 18.4862 15.5148 20 13.6385 20H10.4152C8.57201 20 7.02359 18.5377 6.82005 16.6047L6.18864 10.6086C6.12646 10.0181 6.58943 9.50386 7.18314 9.50386L13.363 9.50386C13.89 9.50386 14.3172 9.93107 14.3172 10.4581C14.3172 10.985 13.89 11.4122 13.363 11.4122L8.09303 11.4122L8.61762 16.394C8.71939 17.3604 9.4936 18.0916 10.4152 18.0916H13.6385C14.5767 18.0916 15.3591 17.3347 15.4404 16.3485L16.0603 8.82658L12.0585 7.90864L6.9122 6.81618C6.40537 6.70859 6.07762 6.21547 6.17466 5.70651C6.27459 5.18239 6.78568 4.84269 7.30761 4.95349L10.6909 5.67171C11.1988 5.77952 11.7019 5.46976 11.8343 4.96772L11.8516 4.90232C11.9819 4.40808 12.4981 4.11997 12.9886 4.26397C13.4562 4.40126 13.733 4.8868 13.6087 5.35803C13.4791 5.84969 13.7822 6.35106 14.2778 6.46474L17.1558 7.12492C17.6404 7.23607 17.9697 7.68628 17.9289 8.18174L17.2422 16.5139Z" fill="currentColor"/>
</svg>
