<svg width="24" height="24" viewBox="0 0 24 24" fill="none" xmlns="http://www.w3.org/2000/svg">
<path d="M19.875 5.62463C20.4962 5.62463 20.9998 6.12848 21 6.74963C21 7.37095 20.4963 7.87463 19.875 7.87463H19.1774L18.6335 16.0287C18.5887 16.7013 18.5524 17.272 18.4841 17.7371C18.4139 18.2156 18.2988 18.6732 18.0524 19.106C17.6773 19.7644 17.1116 20.2938 16.4297 20.6243C15.9814 20.8415 15.5167 20.9255 15.0344 20.9637C14.5658 21.0009 13.9946 21 13.3206 21H10.6794C10.0054 21 9.43417 21.0009 8.96558 20.9637C8.48328 20.9255 8.01856 20.8415 7.57031 20.6243C6.88844 20.2938 6.32272 19.7644 5.94763 19.106C5.70116 18.6732 5.58614 18.2156 5.51587 17.7371C5.44758 17.272 5.4113 16.7013 5.36646 16.0287L4.82263 7.87463H4.125C3.50368 7.87463 3 7.37095 3 6.74963C3.0002 6.12848 3.5038 5.62463 4.125 5.62463H19.875ZM7.61096 15.8793C7.65817 16.5875 7.69051 17.0534 7.7428 17.4097C7.79311 17.7524 7.8504 17.9023 7.9021 17.993C8.05209 18.2562 8.27885 18.4673 8.55139 18.5995C8.64538 18.645 8.79828 18.6929 9.14355 18.7203C9.50252 18.7488 9.96951 18.75 10.6794 18.75H13.3206C14.0305 18.75 14.4975 18.7488 14.8564 18.7203C15.2017 18.6929 15.3546 18.645 15.4486 18.5995C15.7212 18.4673 15.9479 18.2562 16.0979 17.993C16.1496 17.9023 16.2069 17.7524 16.2572 17.4097C16.3095 17.0534 16.3418 16.5875 16.389 15.8793L16.9219 7.87463H7.07812L7.61096 15.8793ZM9.12488 15.063V10.6871C9.12508 10.066 9.62874 9.5622 10.2499 9.56213C10.8711 9.56213 11.3747 10.066 11.3749 10.6871V15.063C11.3746 15.6841 10.871 16.188 10.2499 16.188C9.62878 16.1879 9.12514 15.684 9.12488 15.063ZM12.6251 15.063V10.6871C12.6253 10.066 13.1289 9.56213 13.7501 9.56213C14.3713 9.5622 14.8749 10.066 14.8751 10.6871V15.063C14.8749 15.684 14.3712 16.1879 13.7501 16.188C13.129 16.188 12.6254 15.6841 12.6251 15.063ZM14.6246 3C15.246 3 15.7496 3.50368 15.7496 4.125C15.7496 4.74632 15.246 5.25 14.6246 5.25H9.37537C8.75405 5.25 8.25037 4.74632 8.25037 4.125C8.25037 3.50368 8.75405 3 9.37537 3H14.6246Z" fill="currentColor"/>
</svg>
