<svg width="16" height="16" viewBox="0 0 16 16" fill="none" xmlns="http://www.w3.org/2000/svg">
<path fill-rule="evenodd" clip-rule="evenodd" d="M5.12942 10.5679C5.16074 11.0377 5.18165 11.3446 5.21603 11.5788C5.24904 11.8036 5.28691 11.8973 5.31793 11.9518C5.41362 12.1197 5.55775 12.2547 5.73166 12.339C5.78806 12.3663 5.88425 12.3974 6.11073 12.4154C6.34665 12.4341 6.65409 12.4348 7.12466 12.4348H8.87534C9.34591 12.4348 9.65335 12.4341 9.88927 12.4154C10.1158 12.3974 10.2119 12.3663 10.2683 12.339C10.4422 12.2547 10.5864 12.1197 10.6821 11.9518C10.7131 11.8973 10.751 11.8036 10.784 11.5788C10.8184 11.3446 10.8393 11.0377 10.8706 10.5679L11.2211 5.30469H4.77887L5.12942 10.5679ZM6.05774 7.13077V10.0289C6.05774 10.461 6.40823 10.8114 6.84035 10.8115C7.27258 10.8115 7.62296 10.4611 7.62296 10.0289V7.13077C7.62296 6.69855 7.27258 6.34817 6.84035 6.34817C6.40823 6.34829 6.05774 6.69863 6.05774 7.13077ZM8.37704 7.13077V10.0289C8.37704 10.4611 8.72742 10.8115 9.15965 10.8115C9.59176 10.8114 9.94226 10.461 9.94226 10.0289V7.13077C9.94226 6.69863 9.59176 6.34829 9.15965 6.34817C8.72742 6.34817 8.37704 6.69855 8.37704 7.13077Z" fill="currentColor"/>
<path fill-rule="evenodd" clip-rule="evenodd" d="M13.2174 3.73947C13.6496 3.73947 14 4.08986 14 4.52208C13.9998 4.95415 13.6495 5.30469 13.2174 5.30469H12.7904L12.4327 10.6719L12.4308 10.7012C12.402 11.1335 12.3774 11.503 12.3329 11.806C12.286 12.1253 12.2089 12.4339 12.0425 12.7262C11.7902 13.169 11.4096 13.525 10.9511 13.7473C10.6483 13.894 10.3353 13.95 10.0136 13.9755C9.70539 14 9.33093 14 8.89244 14H8.87534H7.12466H7.10756C6.66907 14 6.29461 14 5.98641 13.9755C5.66468 13.95 5.35169 13.894 5.04891 13.7473C4.5904 13.525 4.20976 13.169 3.95754 12.7262C3.79107 12.4339 3.714 12.1253 3.66712 11.806C3.62264 11.503 3.59802 11.1335 3.56922 10.7013L3.56726 10.6719L3.20958 5.30469H2.78261C2.3505 5.30469 2.00018 4.95415 2 4.52208C2 4.08986 2.35039 3.73947 2.78261 3.73947H13.2174ZM5.12942 10.5679C5.16074 11.0377 5.18165 11.3446 5.21603 11.5788C5.24904 11.8036 5.28691 11.8973 5.31793 11.9518C5.41362 12.1197 5.55775 12.2547 5.73166 12.339C5.78806 12.3663 5.88425 12.3974 6.11073 12.4154C6.34665 12.4341 6.65409 12.4348 7.12466 12.4348H8.87534C9.34591 12.4348 9.65335 12.4341 9.88927 12.4154C10.1158 12.3974 10.2119 12.3663 10.2683 12.339C10.4422 12.2547 10.5864 12.1197 10.6821 11.9518C10.7131 11.8973 10.751 11.8036 10.784 11.5788C10.8184 11.3446 10.8393 11.0377 10.8706 10.5679L11.2211 5.30469H4.77887L5.12942 10.5679ZM9.73947 2C10.1715 2.00018 10.5221 2.3505 10.5221 2.78261C10.5221 3.21472 10.1715 3.56503 9.73947 3.56522H6.26053C5.82846 3.56503 5.47792 3.21472 5.47792 2.78261C5.47792 2.3505 5.82846 2.00018 6.26053 2H9.73947Z" fill="currentColor"/>
</svg>
