<svg width="32" height="32" viewBox="0 0 32 32" fill="none" xmlns="http://www.w3.org/2000/svg">
<path d="M10.1999 17.9995H15L15 19.9993H9C8.05719 19.9993 7.58579 19.9993 7.29289 19.7064C7 19.4135 7 18.9421 7 17.9993V11.9999L9 11.9999V16.2C11.3606 13.6152 14.4663 11 18 11C23.0475 11 25.5383 14.6695 24.9074 19.2104C24.8314 19.7575 24.2886 20.0927 23.7506 19.9679C23.2126 19.8431 22.8848 19.3056 22.9523 18.7574C23.3565 15.4768 21.7617 12.9998 18 12.9998C14.891 12.9998 12.2197 15.7027 10.1999 17.9995Z" fill="#1C1C1C"/>
</svg>
