<svg width="24" height="24" viewBox="0 0 24 24" fill="none" xmlns="http://www.w3.org/2000/svg">
<path d="M17 14.1777C17 13.5084 16.9995 13.0643 16.9727 12.7236C16.9467 12.3937 16.9008 12.2475 16.8574 12.1592C16.7327 11.9054 16.537 11.7058 16.3047 11.583C16.2317 11.5444 16.1034 11.499 15.793 11.4727C15.4699 11.4453 15.0471 11.4443 14.4004 11.4443H9.59961C8.95293 11.4443 8.5301 11.4453 8.20703 11.4727C7.89663 11.499 7.76834 11.5444 7.69531 11.583C7.46304 11.7058 7.26731 11.9054 7.14258 12.1592C7.09917 12.2475 7.05335 12.3937 7.02734 12.7236C7.0005 13.0643 7 13.5084 7 14.1777V15.2666C7 15.9359 7.0005 16.38 7.02734 16.7207C7.05335 17.0507 7.09917 17.1968 7.14258 17.2852C7.2673 17.539 7.46303 17.7385 7.69531 17.8613C7.76834 17.8999 7.89663 17.9454 8.20703 17.9717C8.53011 17.999 8.95292 18 9.59961 18H14.4004C15.0471 18 15.4699 17.999 15.793 17.9717C16.1034 17.9454 16.2317 17.8999 16.3047 17.8613C16.537 17.7385 16.7327 17.539 16.8574 17.2852C16.9008 17.1968 16.9467 17.0507 16.9727 16.7207C16.9995 16.38 17 15.9359 17 15.2666V14.1777ZM11 15.5V13.9443C11.0001 13.3921 11.4478 12.9443 12 12.9443C12.5522 12.9443 12.9999 13.3921 13 13.9443V15.5C13 16.0523 12.5523 16.5 12 16.5C11.4477 16.5 11 16.0523 11 15.5ZM19 15.2666C19 15.9041 19.0003 16.4404 18.9658 16.8779C18.9305 17.326 18.8541 17.7563 18.6523 18.167C18.3457 18.7911 17.8525 19.3053 17.2383 19.6299C16.8301 19.8455 16.4018 19.9276 15.9619 19.9648C15.5349 20.001 15.013 20 14.4004 20H9.59961C8.98698 20 8.46513 20.001 8.03809 19.9648C7.59821 19.9276 7.1699 19.8455 6.76172 19.6299C6.14746 19.3053 5.65429 18.7911 5.34766 18.167C5.14587 17.7563 5.06949 17.326 5.03418 16.8779C4.99971 16.4404 5 15.9041 5 15.2666V14.1777C5 13.5403 4.99971 13.0039 5.03418 12.5664C5.0695 12.1184 5.14588 11.688 5.34766 11.2773C5.6543 10.6533 6.14749 10.139 6.76172 9.81445C6.92161 9.73 7.08449 9.66594 7.25 9.61719V8.88867C7.25011 6.2233 9.34275 4 12 4C13.9704 4 15.6367 5.22993 16.3594 6.94531C16.5737 7.45423 16.3351 8.04047 15.8262 8.25488C15.3173 8.46926 14.7311 8.23053 14.5166 7.72168C14.082 6.6901 13.1051 6 12 6C10.5152 6 9.25011 7.2587 9.25 8.88867V9.44531C9.36303 9.44509 9.47958 9.44433 9.59961 9.44434H14.4004C15.013 9.44433 15.5349 9.44333 15.9619 9.47949C16.4018 9.51676 16.8301 9.59887 17.2383 9.81445C17.8525 10.139 18.3457 10.6533 18.6523 11.2773C18.8541 11.688 18.9305 12.1184 18.9658 12.5664C19.0003 13.0039 19 13.5403 19 14.1777V15.2666Z" fill="currentColor"/>
</svg>
