<svg width="32" height="32" viewBox="0 0 32 32" fill="none" xmlns="http://www.w3.org/2000/svg">
<path d="M22.5676 18.7315C22.5676 17.892 22.5662 17.3357 22.5315 16.9089C22.4978 16.4963 22.4394 16.3125 22.3823 16.2001C22.2191 15.879 21.9585 15.6177 21.6383 15.4541C21.5261 15.3968 21.3429 15.3382 20.9314 15.3045C20.5057 15.2696 19.9509 15.2683 19.1137 15.2683H12.8863C12.0491 15.2683 11.4943 15.2696 11.0686 15.3045C10.6571 15.3382 10.4739 15.3968 10.3617 15.4541C10.0415 15.6177 9.78093 15.879 9.61772 16.2001C9.56056 16.3125 9.50216 16.4963 9.46854 16.9089C9.43378 17.3357 9.43243 17.892 9.43243 18.7315V20.0977C9.43243 20.9372 9.43378 21.4935 9.46854 21.9203C9.50216 22.333 9.56056 22.5167 9.61772 22.6292C9.78093 22.9503 10.0415 23.2115 10.3617 23.3752C10.4739 23.4325 10.6571 23.4911 11.0686 23.5248C11.4943 23.5596 12.0491 23.561 12.8863 23.561H19.1137C19.9509 23.561 20.5057 23.5596 20.9314 23.5248C21.3429 23.4911 21.5261 23.4325 21.6383 23.3752C21.9585 23.2115 22.2191 22.9503 22.3823 22.6292C22.4394 22.5167 22.4978 22.333 22.5315 21.9203C22.5662 21.4935 22.5676 20.9372 22.5676 20.0977V18.7315ZM14.7838 20.3902V18.439C14.7838 17.7655 15.3283 17.2195 16 17.2195C16.6717 17.2195 17.2162 17.7655 17.2162 18.439V20.3902C17.2162 21.0638 16.6717 21.6098 16 21.6098C15.3283 21.6098 14.7838 21.0638 14.7838 20.3902ZM25 20.0977C25 20.8971 25.001 21.5703 24.9563 22.1195C24.9104 22.6828 24.8106 23.2227 24.5496 23.7363C24.1532 24.5164 23.5204 25.1509 22.7424 25.5484C22.2303 25.8101 21.6918 25.9101 21.13 25.9562C20.5823 26.001 19.9109 26 19.1137 26H12.8863C12.0891 26 11.4177 26.001 10.87 25.9562C10.3082 25.9101 9.76975 25.8101 9.2576 25.5484C8.47956 25.1509 7.84682 24.5164 7.45038 23.7363C7.18943 23.2227 7.08963 22.6828 7.04371 22.1195C6.99896 21.5703 7 20.8971 7 20.0977V18.7315C7 17.9321 6.99896 17.259 7.04371 16.7098C7.08963 16.1464 7.18943 15.6065 7.45038 15.093C7.84683 14.3128 8.47956 13.6784 9.2576 13.2809C9.47332 13.1707 9.69413 13.0903 9.91892 13.0293V12.0976C9.91892 8.72997 12.6415 6 16 6C18.4955 6 20.6374 7.50754 21.5746 9.65854C21.8433 10.2756 21.562 10.9943 20.9466 11.2639C20.3312 11.5333 19.6144 11.2512 19.3455 10.6341C18.7813 9.33968 17.4941 8.43902 16 8.43902C13.9849 8.43902 12.3514 10.077 12.3514 12.0976V12.8312C12.5229 12.8307 12.7012 12.8293 12.8863 12.8293H19.1137C19.9109 12.8293 20.5823 12.8282 21.13 12.8731C21.6918 12.9191 22.2303 13.0192 22.7424 13.2809C23.5204 13.6784 24.1532 14.3128 24.5496 15.093C24.8106 15.6065 24.9104 16.1464 24.9563 16.7098C25.001 17.259 25 17.9321 25 18.7315V20.0977Z" fill="currentColor"/>
</svg>
