<svg width="24" height="24" viewBox="0 0 24 24" fill="none" xmlns="http://www.w3.org/2000/svg">
<path fill-rule="evenodd" clip-rule="evenodd" d="M17 14.1777C17 13.5084 16.9995 13.0643 16.9727 12.7236C16.9467 12.3937 16.9008 12.2475 16.8574 12.1592C16.7327 11.9054 16.537 11.7058 16.3047 11.583C16.2317 11.5444 16.1034 11.499 15.793 11.4727C15.4699 11.4453 15.0471 11.4443 14.4004 11.4443H9.59961C8.95293 11.4443 8.5301 11.4453 8.20703 11.4727C7.89663 11.499 7.76834 11.5444 7.69531 11.583C7.46304 11.7058 7.26731 11.9054 7.14258 12.1592C7.09917 12.2475 7.05335 12.3937 7.02734 12.7236C7.0005 13.0643 7 13.5084 7 14.1777V15.2666C7 15.9359 7.0005 16.38 7.02734 16.7207C7.05335 17.0507 7.09917 17.1968 7.14258 17.2852C7.2673 17.539 7.46303 17.7385 7.69531 17.8613C7.76834 17.8999 7.89663 17.9454 8.20703 17.9717C8.53011 17.999 8.95292 18 9.59961 18H14.4004C15.0471 18 15.4699 17.999 15.793 17.9717C16.1034 17.9454 16.2317 17.8999 16.3047 17.8613C16.537 17.7385 16.7327 17.539 16.8574 17.2852C16.9008 17.1968 16.9467 17.0507 16.9727 16.7207C16.9995 16.38 17 15.9359 17 15.2666V14.1777ZM11 13.9443V15.5C11 16.0523 11.4477 16.5 12 16.5C12.5523 16.5 13 16.0523 13 15.5V13.9443C12.9999 13.3921 12.5522 12.9443 12 12.9443C11.4478 12.9443 11.0001 13.3921 11 13.9443Z" fill="currentColor"/>
<path fill-rule="evenodd" clip-rule="evenodd" d="M16.9727 12.7236C16.9995 13.0643 17 13.5084 17 14.1777V15.2666C17 15.9359 16.9995 16.38 16.9727 16.7207C16.9467 17.0507 16.9008 17.1968 16.8574 17.2852C16.7327 17.539 16.537 17.7385 16.3047 17.8613C16.2317 17.8999 16.1034 17.9454 15.793 17.9717C15.4699 17.999 15.0471 18 14.4004 18H9.59961C8.95292 18 8.53011 17.999 8.20703 17.9717C7.89663 17.9454 7.76834 17.8999 7.69531 17.8613C7.46303 17.7385 7.2673 17.539 7.14258 17.2852C7.09917 17.1968 7.05335 17.0507 7.02734 16.7207C7.0005 16.38 7 15.9359 7 15.2666V14.1777C7 13.5084 7.0005 13.0643 7.02734 12.7236C7.05335 12.3937 7.09917 12.2475 7.14258 12.1592C7.26731 11.9054 7.46304 11.7058 7.69531 11.583C7.76834 11.5444 7.89663 11.499 8.20703 11.4727C8.5301 11.4453 8.95293 11.4443 9.59961 11.4443H14.4004C15.0471 11.4443 15.4699 11.4453 15.793 11.4727C16.1034 11.499 16.2317 11.5444 16.3047 11.583C16.537 11.7058 16.7327 11.9054 16.8574 12.1592C16.9008 12.2475 16.9467 12.3937 16.9727 12.7236ZM19 15.2823V15.2666V14.1777V14.1621C19 13.5315 19 13.0003 18.9658 12.5664C18.9305 12.1184 18.8541 11.688 18.6523 11.2773C18.3457 10.6533 17.8525 10.139 17.2383 9.81445C16.8301 9.59887 16.4018 9.51676 15.9619 9.47949C15.5461 9.44429 15.0405 9.44431 14.4487 9.44433L14.4004 9.44434H9.59961C9.52808 9.44434 9.4578 9.4446 9.38875 9.44487C9.34193 9.44505 9.29568 9.44522 9.25 9.44531V8.88867C9.25011 7.2587 10.5152 6 12 6C13.1051 6 14.082 6.6901 14.5166 7.72168C14.7311 8.23053 15.3173 8.46926 15.8262 8.25488C16.3351 8.04047 16.5737 7.45423 16.3594 6.94531C15.6367 5.22993 13.9704 4 12 4C9.34275 4 7.25011 6.2233 7.25 8.88867V9.61719C7.08449 9.66594 6.92161 9.73 6.76172 9.81445C6.14749 10.139 5.6543 10.6533 5.34766 11.2773C5.14588 11.688 5.0695 12.1184 5.03418 12.5664C5 13.0003 5 13.5315 5 14.1621L5 14.1777V15.2666L5 15.2823C5 15.9129 5 16.444 5.03418 16.8779C5.06949 17.326 5.14587 17.7563 5.34766 18.167C5.65429 18.7911 6.14746 19.3053 6.76172 19.6299C7.1699 19.8455 7.59821 19.9276 8.03809 19.9648C8.45384 20 8.95945 20 9.55121 20H9.59961H14.4004H14.4488C15.0405 20 15.5462 20 15.9619 19.9648C16.4018 19.9276 16.8301 19.8455 17.2383 19.6299C17.8525 19.3053 18.3457 18.7911 18.6523 18.167C18.8541 17.7563 18.9305 17.326 18.9658 16.8779C19 16.444 19 15.9129 19 15.2823Z" fill="currentColor"/>
</svg>
