<svg width="16" height="16" viewBox="0 0 16 16" fill="none" xmlns="http://www.w3.org/2000/svg">
<path fill-rule="evenodd" clip-rule="evenodd" d="M11.6753 8.54253C11.6951 8.80754 11.6956 9.15093 11.6956 9.65885V10.4887C11.6956 10.9969 11.6951 11.3408 11.6753 11.6059C11.6559 11.8642 11.6213 11.9912 11.5819 12.0755C11.4824 12.2884 11.3273 12.4532 11.1462 12.5538C11.0827 12.5891 10.9811 12.6246 10.7531 12.645C10.5161 12.6661 10.207 12.6667 9.73913 12.6667H6.26087C5.79304 12.6667 5.48391 12.6661 5.24694 12.645C5.01889 12.6246 4.9173 12.5891 4.85377 12.5538C4.67274 12.4532 4.51762 12.2884 4.41814 12.0755C4.37872 11.9912 4.3441 11.8642 4.32473 11.6059C4.30487 11.3408 4.30435 10.9969 4.30435 10.4887V9.65885C4.30435 9.15093 4.30487 8.80754 4.32473 8.54253C4.34409 8.28422 4.37873 8.15732 4.41814 8.07292C4.5176 7.86007 4.67276 7.69523 4.85377 7.59462C4.9173 7.55932 5.01889 7.52379 5.24694 7.50347C5.48391 7.48238 5.79303 7.48177 6.26087 7.48177H9.73913C10.207 7.48177 10.5161 7.48238 10.7531 7.50347C10.9811 7.52379 11.0827 7.55932 11.1462 7.59462C11.3272 7.69523 11.4824 7.86007 11.5819 8.07292C11.6213 8.15732 11.6559 8.28422 11.6753 8.54253ZM13 10.5327L13 10.4887V9.65885L13 9.61637C13 9.14819 13 8.75908 12.9762 8.44097C12.9512 8.10661 12.897 7.7941 12.7588 7.49826C12.5457 7.04215 12.2012 6.66302 11.7687 6.42274C11.4836 6.26443 11.1824 6.2026 10.8668 6.17448C10.5734 6.14833 10.2166 6.14838 9.79656 6.14843C9.77755 6.14844 9.7584 6.14844 9.73913 6.14844H6.26087C6.16109 6.14844 6.0648 6.14881 5.97199 6.14916C5.95953 6.14921 5.94712 6.14926 5.93478 6.14931V5.62934C5.93493 4.32009 6.8985 3.33333 8 3.33333C8.82135 3.33333 9.55759 3.87324 9.88774 4.69705C10.0243 5.03776 10.4053 5.20119 10.7386 5.06163C11.0719 4.92206 11.231 4.53255 11.0944 4.19184C10.5859 2.9228 9.40721 2 8 2C6.10013 2 4.63058 3.66606 4.63044 5.62934V6.26128C4.4942 6.29917 4.36104 6.35071 4.23132 6.42274C3.79883 6.66302 3.45431 7.04215 3.24117 7.49826C3.10297 7.7941 3.04883 8.10661 3.02378 8.44097C2.99996 8.75907 2.99998 9.14818 3 9.61635L3 9.65885V10.4887L3 10.5327C2.99998 11.0006 2.99996 11.3896 3.02378 11.7075C3.04884 12.0419 3.1029 12.3543 3.24117 12.6502C3.45431 13.1063 3.79884 13.4854 4.23132 13.7257C4.51636 13.884 4.8177 13.945 5.13315 13.9731C5.43534 14 5.80462 14 6.24107 14H6.26087H9.73913H9.75893C10.1954 14 10.5647 14 10.8668 13.9731C11.1823 13.945 11.4836 13.884 11.7687 13.7257C12.2012 13.4854 12.5457 13.1063 12.7588 12.6502C12.8971 12.3543 12.9512 12.0419 12.9762 11.7075C13 11.3896 13 11.0005 13 10.5327Z" fill="currentColor"/>
<path fill-rule="evenodd" clip-rule="evenodd" d="M11.6956 9.65885C11.6956 9.15093 11.6951 8.80754 11.6753 8.54253C11.6559 8.28422 11.6213 8.15732 11.5819 8.07292C11.4824 7.86007 11.3272 7.69523 11.1462 7.59462C11.0827 7.55932 10.9811 7.52379 10.7531 7.50347C10.5161 7.48238 10.207 7.48177 9.73913 7.48177H6.26087C5.79303 7.48177 5.48391 7.48238 5.24694 7.50347C5.01889 7.52379 4.9173 7.55932 4.85377 7.59462C4.67276 7.69523 4.5176 7.86007 4.41814 8.07292C4.37873 8.15732 4.34409 8.28422 4.32473 8.54253C4.30487 8.80754 4.30435 9.15093 4.30435 9.65885V10.4887C4.30435 10.9969 4.30487 11.3408 4.32473 11.6059C4.3441 11.8642 4.37872 11.9912 4.41814 12.0755C4.51762 12.2884 4.67274 12.4532 4.85377 12.5538C4.9173 12.5891 5.01889 12.6246 5.24694 12.645C5.48391 12.6661 5.79304 12.6667 6.26087 12.6667H9.73913C10.207 12.6667 10.5161 12.6661 10.7531 12.645C10.9811 12.6246 11.0827 12.5891 11.1462 12.5538C11.3273 12.4532 11.4824 12.2884 11.5819 12.0755C11.6213 11.9912 11.6559 11.8642 11.6753 11.6059C11.6951 11.3408 11.6956 10.9969 11.6956 10.4887V9.65885ZM7.34783 9.48177V10.6667C7.34783 11.0349 7.63981 11.3333 8 11.3333C8.36019 11.3333 8.65217 11.0349 8.65217 10.6667V9.48177C8.65217 9.11358 8.36019 8.8151 8 8.8151C7.63981 8.8151 7.34783 9.11358 7.34783 9.48177Z" fill="currentColor"/>
</svg>
