<svg width="16" height="16" viewBox="0 0 16 16" fill="none" xmlns="http://www.w3.org/2000/svg">
<path d="M11.6956 9.65885C11.6956 9.15093 11.6951 8.80754 11.6753 8.54253C11.6559 8.28422 11.6213 8.15732 11.5819 8.07292C11.4824 7.86007 11.3272 7.69523 11.1462 7.59462C11.0827 7.55932 10.9811 7.52379 10.7531 7.50347C10.5161 7.48238 10.207 7.48177 9.73913 7.48177H6.26087C5.79303 7.48177 5.48391 7.48238 5.24694 7.50347C5.01889 7.52379 4.9173 7.55932 4.85377 7.59462C4.67276 7.69523 4.5176 7.86007 4.41814 8.07292C4.37873 8.15732 4.34409 8.28422 4.32473 8.54253C4.30487 8.80754 4.30435 9.15093 4.30435 9.65885V10.4887C4.30435 10.9969 4.30487 11.3408 4.32473 11.6059C4.3441 11.8642 4.37872 11.9912 4.41814 12.0755C4.51762 12.2884 4.67274 12.4532 4.85377 12.5538C4.9173 12.5891 5.01889 12.6246 5.24694 12.645C5.48391 12.6661 5.79304 12.6667 6.26087 12.6667H9.73913C10.207 12.6667 10.5161 12.6661 10.7531 12.645C10.9811 12.6246 11.0827 12.5891 11.1462 12.5538C11.3273 12.4532 11.4824 12.2884 11.5819 12.0755C11.6213 11.9912 11.6559 11.8642 11.6753 11.6059C11.6951 11.3408 11.6956 10.9969 11.6956 10.4887V9.65885ZM7.34783 10.6667V9.48177C7.34783 9.11358 7.63981 8.8151 8 8.8151C8.36019 8.8151 8.65217 9.11358 8.65217 9.48177V10.6667C8.65217 11.0349 8.36019 11.3333 8 11.3333C7.63981 11.3333 7.34783 11.0349 7.34783 10.6667ZM13 10.4887C13 10.9762 13.0008 11.3796 12.9762 11.7075C12.9512 12.0419 12.8971 12.3543 12.7588 12.6502C12.5457 13.1063 12.2012 13.4854 11.7687 13.7257C11.4836 13.884 11.1823 13.945 10.8668 13.9731C10.5601 14.0004 10.1842 14 9.73913 14H6.26087C5.81578 14 5.43991 14.0004 5.13315 13.9731C4.8177 13.945 4.51636 13.884 4.23132 13.7257C3.79884 13.4854 3.45431 13.1063 3.24117 12.6502C3.1029 12.3543 3.04884 12.0419 3.02378 11.7075C2.99922 11.3796 3 10.9762 3 10.4887V9.65885C3 9.17168 2.99924 8.76865 3.02378 8.44097C3.04883 8.10661 3.10297 7.7941 3.24117 7.49826C3.45431 7.04215 3.79883 6.66302 4.23132 6.42274C4.36104 6.35071 4.4942 6.29917 4.63044 6.26128V5.62934C4.63058 3.66606 6.10013 2 8 2C9.40721 2 10.5859 2.9228 11.0944 4.19184C11.231 4.53255 11.0719 4.92206 10.7386 5.06163C10.4053 5.20119 10.0243 5.03776 9.88774 4.69705C9.55759 3.87324 8.82135 3.33333 8 3.33333C6.8985 3.33333 5.93493 4.32009 5.93478 5.62934V6.14931C6.039 6.14891 6.14769 6.14844 6.26087 6.14844H9.73913C10.1842 6.14844 10.5601 6.14715 10.8668 6.17448C11.1824 6.2026 11.4836 6.26443 11.7687 6.42274C12.2012 6.66302 12.5457 7.04215 12.7588 7.49826C12.897 7.7941 12.9512 8.10661 12.9762 8.44097C13.0008 8.76865 13 9.17168 13 9.65885V10.4887Z" fill="currentColor"/>
</svg>
