<svg width="32" height="32" viewBox="0 0 32 32" fill="none" xmlns="http://www.w3.org/2000/svg">
<path d="M25.0732 16C25.0732 10.989 21.011 6.92683 16 6.92683C10.989 6.92683 6.92683 10.989 6.92683 16C6.92683 21.011 10.989 25.0732 16 25.0732C21.011 25.0732 25.0732 21.011 25.0732 16ZM19.7066 11.8041C20.278 11.2327 21.2044 11.2328 21.7759 11.8041C22.3474 12.3756 22.3474 13.302 21.7759 13.8735L15.4546 20.1959C14.8833 20.7673 13.9568 20.767 13.3853 20.1959L10.2241 17.0347C9.65259 16.4632 9.65259 15.5368 10.2241 14.9653C10.7956 14.3939 11.722 14.3939 12.2934 14.9653L14.4188 17.0907L19.7066 11.8041ZM28 16C28 22.6274 22.6274 28 16 28C9.37258 28 4 22.6274 4 16C4 9.37258 9.37258 4 16 4C22.6274 4 28 9.37258 28 16Z" fill="currentColor"/>
</svg>
