<svg width="24" height="24" viewBox="0 0 24 24" fill="none" xmlns="http://www.w3.org/2000/svg">
<path fill-rule="evenodd" clip-rule="evenodd" d="M19.2 12C19.2 8.02355 15.9764 4.8 12 4.8C8.02355 4.8 4.8 8.02355 4.8 12C4.8 15.9764 8.02355 19.2 12 19.2C15.9764 19.2 19.2 15.9764 19.2 12ZM16.2812 8.9335C15.9297 8.5822 15.3599 8.58208 15.0085 8.9335L10.7845 13.1566L8.9915 11.3637C8.64006 11.0122 8.07033 11.0123 7.71885 11.3637C7.36738 11.7151 7.36738 12.2849 7.71885 12.6363L10.149 15.0665C10.5005 15.4177 11.0703 15.4179 11.4217 15.0665L16.2812 10.2062C16.6326 9.85468 16.6326 9.28497 16.2812 8.9335Z" fill="currentColor"/>
<path fill-rule="evenodd" clip-rule="evenodd" d="M12 4.8C15.9764 4.8 19.2 8.02355 19.2 12C19.2 15.9764 15.9764 19.2 12 19.2C8.02355 19.2 4.8 15.9764 4.8 12C4.8 8.02355 8.02355 4.8 12 4.8ZM12 21C16.9706 21 21 16.9706 21 12C21 7.02944 16.9706 3 12 3C7.02944 3 3 7.02944 3 12C3 16.9706 7.02944 21 12 21Z" fill="currentColor"/>
</svg>
