<svg width="24" height="24" viewBox="0 0 24 24" fill="none" xmlns="http://www.w3.org/2000/svg">
<path d="M19.2 12C19.2 8.02355 15.9764 4.8 12 4.8C8.02355 4.8 4.8 8.02355 4.8 12C4.8 15.9764 8.02355 19.2 12 19.2C15.9764 19.2 19.2 15.9764 19.2 12ZM15.0085 8.9335C15.3599 8.58208 15.9297 8.5822 16.2812 8.9335C16.6326 9.28497 16.6326 9.85468 16.2812 10.2062L11.4217 15.0665C11.0703 15.4179 10.5005 15.4177 10.149 15.0665L7.71885 12.6363C7.36738 12.2849 7.36738 11.7151 7.71885 11.3637C8.07033 11.0123 8.64006 11.0122 8.9915 11.3637L10.7845 13.1566L15.0085 8.9335ZM21 12C21 16.9706 16.9706 21 12 21C7.02944 21 3 16.9706 3 12C3 7.02944 7.02944 3 12 3C16.9706 3 21 7.02944 21 12Z" fill="currentColor"/>
</svg>
