<svg width="24" height="24" viewBox="0 0 24 24" fill="none" xmlns="http://www.w3.org/2000/svg">
<path fill-rule="evenodd" clip-rule="evenodd" d="M7.5 6.375C7.5 4.51104 9.01104 3 10.875 3H17.625C19.489 3 21 4.51104 21 6.375V13.125C21 14.989 19.489 16.5 17.625 16.5H16.5V17.625C16.5 19.489 14.989 21 13.125 21H6.375C4.51104 21 3 19.489 3 17.625V10.875C3 9.01069 4.51191 7.5 6.37553 7.5H7.5V6.375ZM14.25 16.5V17.625C14.25 18.2463 13.7463 18.75 13.125 18.75H6.375C5.75368 18.75 5.25 18.2463 5.25 17.625V10.875C5.25 10.254 5.75386 9.75 6.37553 9.75H7.5H9.75V7.5V6.375C9.75 5.75368 10.2537 5.25 10.875 5.25H17.625C18.2463 5.25 18.75 5.75368 18.75 6.375V13.125C18.75 13.7463 18.2463 14.25 17.625 14.25H16.5H14.25V16.5Z" fill="currentColor"/>
<path d="M10.875 16.5H14.25V14.25H10.875C10.2537 14.25 9.75 13.7463 9.75 13.125V9.75H7.5V13.125C7.5 14.989 9.01104 16.5 10.875 16.5Z" fill="currentColor"/>
<path d="M14.25 16.5H10.875C9.01104 16.5 7.5 14.989 7.5 13.125V9.75H6.37553C5.75386 9.75 5.25 10.254 5.25 10.875V17.625C5.25 18.2463 5.75368 18.75 6.375 18.75H13.125C13.7463 18.75 14.25 18.2463 14.25 17.625V16.5Z" fill="currentColor"/>
<path d="M13.125 7.5H9.75V9.75H13.125C13.6875 9.75 14.25 10.3125 14.25 10.875V14.25H16.5V10.875C16.5 9.1875 14.8125 7.5 13.125 7.5Z" fill="currentColor"/>
<path d="M9.75 13.125C9.75 13.7463 10.2537 14.25 10.875 14.25H14.25V10.875C14.25 10.3125 13.6875 9.75 13.125 9.75H9.75V13.125Z" fill="currentColor"/>
</svg>
