<svg width="32" height="32" viewBox="0 0 32 32" fill="none" xmlns="http://www.w3.org/2000/svg">
<path fill-rule="evenodd" clip-rule="evenodd" d="M14.5 4C12.0147 4 10 6.01472 10 8.5V10H8.50071C6.01588 10 4 12.0143 4 14.5V23.5C4 25.9853 6.01472 28 8.5 28H17.5C19.9853 28 22 25.9853 22 23.5V22H23.5C25.9853 22 28 19.9853 28 17.5V8.5C28 6.01472 25.9853 4 23.5 4H14.5ZM19 22H14.5C12.0147 22 10 19.9853 10 17.5V13H8.50071C7.67182 13 7 13.672 7 14.5V23.5C7 24.3284 7.67157 25 8.5 25H17.5C18.3284 25 19 24.3284 19 23.5V22ZM13 8.5C13 7.67157 13.6716 7 14.5 7H23.5C24.3284 7 25 7.67157 25 8.5V17.5C25 18.3284 24.3284 19 23.5 19H14.5C13.6716 19 13 18.3284 13 17.5V8.5Z" fill="currentColor"/>
</svg>
