<svg width="32" height="32" viewBox="0 0 32 32" fill="none" xmlns="http://www.w3.org/2000/svg">
<path fill-rule="evenodd" clip-rule="evenodd" d="M10 8.5C10 6.01472 12.0147 4 14.5 4H23.5C25.9853 4 28 6.01472 28 8.5V17.5C28 19.9853 25.9853 22 23.5 22H22V23.5C22 25.9853 19.9853 28 17.5 28H8.5C6.01472 28 4 25.9853 4 23.5V14.5C4 12.0143 6.01588 10 8.50071 10H10V8.5ZM19 22V23.5C19 24.3284 18.3284 25 17.5 25H8.5C7.67157 25 7 24.3284 7 23.5V14.5C7 13.672 7.67182 13 8.50071 13H10H13V10V8.5C13 7.67157 13.6716 7 14.5 7H23.5C24.3284 7 25 7.67157 25 8.5V17.5C25 18.3284 24.3284 19 23.5 19H22H19V22Z" fill="currentColor"/>
<path d="M14.5 22H19V19H14.5C13.6716 19 13 18.3284 13 17.5V13H10V17.5C10 19.9853 12.0147 22 14.5 22Z" fill="currentColor"/>
<path d="M19 22H14.5C12.0147 22 10 19.9853 10 17.5V13H8.50071C7.67182 13 7 13.672 7 14.5V23.5C7 24.3284 7.67157 25 8.5 25H17.5C18.3284 25 19 24.3284 19 23.5V22Z" fill="currentColor"/>
<path d="M17.5 10H13V13H17.5C18.25 13 19 13.75 19 14.5V19H22V14.5C22 12.25 19.75 10 17.5 10Z" fill="currentColor"/>
<path d="M13 17.5C13 18.3284 13.6716 19 14.5 19H19V14.5C19 13.75 18.25 13 17.5 13H13V17.5Z" fill="currentColor"/>
</svg>
