<svg width="24" height="24" viewBox="0 0 24 24" fill="none" xmlns="http://www.w3.org/2000/svg">
<path fill-rule="evenodd" clip-rule="evenodd" d="M19.3636 12C19.3636 7.93318 16.0668 4.63636 12 4.63636C7.93318 4.63636 4.63636 7.93318 4.63636 12C4.63636 16.0668 7.93318 19.3636 12 19.3636C16.0668 19.3636 19.3636 16.0668 19.3636 12ZM15.033 8.96697C14.7135 8.64745 14.1956 8.64745 13.8761 8.96697L12 10.843L10.1239 8.96697C9.80442 8.64745 9.28649 8.64745 8.96697 8.96697C8.64745 9.28649 8.64745 9.80442 8.96697 10.1239L10.843 12L8.96697 13.8761C8.64745 14.1956 8.64745 14.7135 8.96697 15.033C9.28649 15.3525 9.80442 15.3525 10.1239 15.033L12 13.157L13.8761 15.033C14.1956 15.3525 14.7135 15.3525 15.033 15.033C15.3525 14.7135 15.3525 14.1956 15.033 13.8761L13.157 12L15.033 10.1239C15.3525 9.80442 15.3525 9.28649 15.033 8.96697Z" fill="currentColor"/>
<path fill-rule="evenodd" clip-rule="evenodd" d="M12 4.63636C16.0668 4.63636 19.3636 7.93318 19.3636 12C19.3636 16.0668 16.0668 19.3636 12 19.3636C7.93318 19.3636 4.63636 16.0668 4.63636 12C4.63636 7.93318 7.93318 4.63636 12 4.63636ZM12 21C16.9706 21 21 16.9706 21 12C21 7.02944 16.9706 3 12 3C7.02944 3 3 7.02944 3 12C3 16.9706 7.02944 21 12 21Z" fill="currentColor"/>
</svg>
