<svg width="24" height="24" viewBox="0 0 24 24" fill="none" xmlns="http://www.w3.org/2000/svg">
<path d="M19.3636 12C19.3636 7.93318 16.0668 4.63636 12 4.63636C7.93318 4.63636 4.63636 7.93318 4.63636 12C4.63636 16.0668 7.93318 19.3636 12 19.3636C16.0668 19.3636 19.3636 16.0668 19.3636 12ZM13.8761 8.96697C14.1956 8.64745 14.7135 8.64745 15.033 8.96697C15.3525 9.28649 15.3525 9.80442 15.033 10.1239L13.157 12L15.033 13.8761C15.3525 14.1956 15.3525 14.7135 15.033 15.033C14.7135 15.3525 14.1956 15.3525 13.8761 15.033L12 13.157L10.1239 15.033C9.80442 15.3525 9.28649 15.3525 8.96697 15.033C8.64745 14.7135 8.64745 14.1956 8.96697 13.8761L10.843 12L8.96697 10.1239C8.64745 9.80442 8.64745 9.28649 8.96697 8.96697C9.28649 8.64745 9.80442 8.64745 10.1239 8.96697L12 10.843L13.8761 8.96697ZM21 12C21 16.9706 16.9706 21 12 21C7.02944 21 3 16.9706 3 12C3 7.02944 7.02944 3 12 3C16.9706 3 21 7.02944 21 12Z" fill="currentColor"/>
</svg>
