<svg width="32" height="32" viewBox="0 0 32 32" fill="none" xmlns="http://www.w3.org/2000/svg">
<path d="M25.3333 16C25.3333 10.8453 21.1547 6.66667 16 6.66667C10.8453 6.66667 6.66667 10.8453 6.66667 16C6.66667 21.1547 10.8453 25.3333 16 25.3333C21.1547 25.3333 25.3333 21.1547 25.3333 16ZM18.2573 11.8573C18.778 11.3366 19.622 11.3366 20.1427 11.8573C20.6634 12.378 20.6634 13.222 20.1427 13.7427L17.8854 16L20.1427 18.2573C20.6634 18.778 20.6634 19.622 20.1427 20.1427C19.622 20.6634 18.778 20.6634 18.2573 20.1427L16 17.8854L13.7427 20.1427C13.222 20.6634 12.378 20.6634 11.8573 20.1427C11.3366 19.622 11.3366 18.778 11.8573 18.2573L14.1146 16L11.8573 13.7427C11.3366 13.222 11.3366 12.378 11.8573 11.8573C12.378 11.3366 13.222 11.3366 13.7427 11.8573L16 14.1146L18.2573 11.8573ZM28 16C28 22.6274 22.6274 28 16 28C9.37258 28 4 22.6274 4 16C4 9.37258 9.37258 4 16 4C22.6274 4 28 9.37258 28 16Z" fill="currentColor"/>
</svg>
