<svg width="16" height="16" viewBox="0 0 16 16" fill="none" xmlns="http://www.w3.org/2000/svg">
<path d="M12.4348 6.31626C12.4348 5.86094 12.4337 5.56702 12.4154 5.34384C12.3979 5.13055 12.3687 5.05209 12.3492 5.01387C12.2736 4.86618 12.1524 4.74349 12.0007 4.66644C11.959 4.64528 11.876 4.6152 11.6593 4.59756C11.4338 4.57922 11.1375 4.57906 10.681 4.57906H6.66607C6.50353 4.57906 6.41096 4.57948 6.341 4.58317C6.28226 4.58629 6.26825 4.59097 6.27069 4.59037C6.23727 4.59995 6.20584 4.61529 6.17898 4.6356C6.17507 4.63904 6.16171 4.65211 6.13414 4.68494C6.08957 4.73803 6.0341 4.8112 5.93645 4.94089L3.65383 7.97225C3.64643 7.98208 3.6391 7.99114 3.63243 8C3.6391 8.00886 3.64643 8.01792 3.65383 8.02775L5.93645 11.0591C6.0341 11.1888 6.08957 11.262 6.13414 11.3151C6.16172 11.3479 6.17507 11.361 6.17898 11.3644C6.20584 11.3847 6.23727 11.4001 6.27069 11.4096C6.26825 11.409 6.28226 11.4137 6.341 11.4168C6.41096 11.4205 6.50353 11.4209 6.66607 11.4209H10.681C11.1375 11.4209 11.4338 11.4208 11.6593 11.4024C11.876 11.3848 11.959 11.3547 12.0007 11.3336C12.1524 11.2565 12.2736 11.1338 12.3492 10.9861C12.3687 10.9479 12.3979 10.8694 12.4154 10.6562C12.4337 10.433 12.4348 10.1391 12.4348 9.68374V6.31626ZM10.0258 5.85986C10.3333 5.55358 10.8287 5.55601 11.1325 5.86603C11.4361 6.17622 11.4328 6.67599 11.1253 6.98235L10.1032 8L11.1253 9.01765C11.4328 9.32401 11.4361 9.82378 11.1325 10.134C10.8287 10.444 10.3333 10.4464 10.0258 10.1401L8.99047 9.1081L7.95514 10.1401C7.64762 10.4465 7.15218 10.4441 6.84848 10.134C6.54487 9.82384 6.54834 9.32402 6.85561 9.01765L7.87668 8L6.85561 6.98235C6.54834 6.67598 6.54487 6.17616 6.84848 5.86603C7.15218 5.55586 7.64762 5.55353 7.95514 5.85986L8.99047 6.89087L10.0258 5.85986ZM14 9.68374C14 10.1127 14.0004 10.4833 13.9755 10.7867C13.9499 11.0993 13.8932 11.4105 13.7401 11.7098C13.5118 12.1562 13.1485 12.5182 12.7038 12.7439C12.4065 12.8947 12.0975 12.9508 11.7857 12.9762C11.4826 13.0009 11.1121 12.9998 10.681 12.9998H6.66607C6.40114 12.9998 6.11755 13.0069 5.84678 12.9299C5.62843 12.8678 5.4222 12.7651 5.24046 12.6277C5.01459 12.4569 4.84878 12.2247 4.69018 12.0141L2.40757 8.9827C2.31384 8.85822 2.11945 8.62353 2.04377 8.33716C1.98541 8.1162 1.98541 7.8838 2.04377 7.66284L2.0774 7.55799C2.16659 7.31952 2.32554 7.12624 2.40757 7.0173L4.69018 3.98595C4.84878 3.77531 5.01459 3.54313 5.24046 3.37228C5.4222 3.2349 5.62843 3.13218 5.84678 3.07007C6.11755 2.99314 6.40114 3.00017 6.66607 3.00017H10.681C11.1121 3.00017 11.4826 2.99914 11.7857 3.02381C12.0975 3.04921 12.4065 3.10527 12.7038 3.25612C13.1485 3.48182 13.5118 3.8438 13.7401 4.29021C13.8932 4.58953 13.9499 4.90069 13.9755 5.21329C14.0004 5.51668 14 5.88731 14 6.31626V9.68374Z" fill="currentColor"/>
</svg>
