<svg width="32" height="32" viewBox="0 0 32 32" fill="none" xmlns="http://www.w3.org/2000/svg">
<path fill-rule="evenodd" clip-rule="evenodd" d="M20.0287 6.19617C21.6236 4.60128 24.2089 4.60128 25.8038 6.19617C27.3987 7.79106 27.3987 10.3764 25.8038 11.9713L12.4422 25.333C12.1792 25.5959 11.9324 25.8519 11.6334 26.0491C11.3892 26.2101 11.1238 26.3372 10.8456 26.4273C10.5048 26.5376 10.1506 26.5714 9.78091 26.6125L6.3567 26.9925C5.98778 27.0334 5.62037 26.9046 5.35789 26.6421C5.09542 26.3796 4.96656 26.0122 5.00745 25.6433L5.3875 22.2191C5.42857 21.8494 5.46242 21.4952 5.57274 21.1544C5.66282 20.8762 5.78988 20.6108 5.95088 20.3666C6.14811 20.0676 6.40408 19.8208 6.66704 19.5578L20.0287 6.19617ZM7.99146 21.713C8.02047 21.669 8.06311 21.6184 8.39538 21.2862L17.8573 11.8242L20.1758 14.1427L10.7138 23.6046C10.3816 23.9369 10.331 23.9795 10.287 24.0085C10.2269 24.0481 10.1616 24.079 10.0932 24.1012C10.043 24.1174 9.97831 24.1305 9.51163 24.1823L7.60473 24.3943L7.81767 22.4884C7.86953 22.0217 7.88261 21.957 7.89884 21.9068C7.92103 21.8384 7.95188 21.7731 7.99146 21.713ZM21.757 7.9245C22.3973 7.28425 23.4352 7.28425 24.0755 7.9245C24.7157 8.56476 24.7158 9.6027 24.0755 10.243L21.9041 12.4134L19.5856 10.095L21.757 7.9245Z" fill="currentColor"/>
</svg>
