<svg width="24" height="24" viewBox="0 0 24 24" fill="none" xmlns="http://www.w3.org/2000/svg">
<path fill-rule="evenodd" clip-rule="evenodd" d="M6.25242 16.6342C7.68471 17.8929 9.62168 19 12.0001 19C13.9372 19 15.5816 18.2656 16.8989 17.313L18.293 18.707C18.6835 19.0976 19.3165 19.0976 19.707 18.707C20.0976 18.3165 20.0976 17.6835 19.707 17.293L18.4162 16.0022L17.1546 14.7406L15.2524 12.8384L11.0396 8.62551L9.69957 7.28551L8.33621 5.92215L6.70703 4.29297C6.31651 3.90245 5.68349 3.90245 5.29297 4.29297C4.90244 4.68349 4.90244 5.31651 5.29297 5.70703L6.63193 7.04599C6.50174 7.15109 6.37523 7.2579 6.25242 7.36583C4.82212 8.62287 3.84204 10.0763 3.35138 10.8944L3.33168 10.9271C3.26058 11.0449 3.17211 11.1915 3.10414 11.3794L3.0395 11.6029C2.98683 11.8451 2.98683 12.1549 3.0395 12.3971C3.10479 12.697 3.23434 12.9117 3.33144 13.0725L3.35138 13.1056C3.84204 13.9237 4.82212 15.3771 6.25242 16.6342ZM4.82572 11.8657C5.2644 11.1342 6.13271 9.85408 7.37178 8.76512C7.54499 8.6129 7.7244 8.4653 7.90993 8.324L9.38582 9.79989C8.92653 10.4031 8.65219 11.1685 8.65219 12C8.65219 13.9411 10.1471 15.5214 12.0001 15.5214C12.8533 15.5214 13.6307 15.1863 14.2211 14.6352L15.6061 16.0202C14.569 16.7056 13.3624 17.1739 12.0001 17.1739C10.1628 17.1739 8.6089 16.3221 7.37178 15.2349C6.13271 14.1459 5.2644 12.8658 4.82572 12.1343C4.79654 12.0857 4.77675 12.0517 4.75994 12.0226C4.75742 12.0182 4.75493 12.0142 4.75264 12.0105C4.75029 12.0067 4.74814 12.0032 4.74633 12C4.74814 11.9968 4.75029 11.9933 4.75264 11.9895C4.75493 11.9858 4.75741 11.9818 4.75994 11.9774C4.77675 11.9483 4.79654 11.9143 4.82572 11.8657ZM12.0001 13.6953C11.1166 13.6953 10.3942 12.9404 10.3942 12C10.3942 11.6561 10.4908 11.337 10.6565 11.0706L12.9517 13.3658C12.6849 13.5731 12.3555 13.6953 12.0001 13.6953Z" fill="currentColor"/>
<path d="M12.0001 5C14.3784 5 16.3154 6.10706 17.7477 7.36583C19.178 8.62287 20.1581 10.0763 20.6488 10.8944L20.6684 10.9271C20.7395 11.0449 20.828 11.1915 20.896 11.3794L20.9606 11.6029L20.9901 11.7955C21.0098 11.9961 21.0001 12.2156 20.9606 12.3971C20.8953 12.697 20.7658 12.9117 20.6687 13.0725L20.6488 13.1056C20.5223 13.3165 20.3634 13.5695 20.1726 13.8504C19.88 14.2814 19.275 14.3326 18.8911 13.9805C18.5523 13.6698 18.5089 13.1536 18.7666 12.773C18.9287 12.5336 19.0649 12.3169 19.1744 12.1343C19.2036 12.0857 19.2234 12.0517 19.2402 12.0226C19.2452 12.014 19.2492 12.0063 19.2527 12L19.2477 11.9908L19.2402 11.9774C19.2234 11.9483 19.2036 11.9143 19.1744 11.8657C18.7357 11.1342 17.8674 9.85408 16.6283 8.76512C15.3912 7.6779 13.8373 6.82609 12.0001 6.82609C11.9857 6.82609 11.9713 6.82614 11.9569 6.82624C11.6468 6.8285 11.3402 6.71469 11.1295 6.48714C10.6188 5.93588 10.8775 5.04575 11.628 5.00907C11.7508 5.00307 11.8748 5 12.0001 5Z" fill="currentColor"/>
</svg>
