<svg width="32" height="32" viewBox="0 0 32 32" fill="none" xmlns="http://www.w3.org/2000/svg">
<path d="M16 7C19.1736 7 21.7605 8.44163 23.6793 10.0885C25.5972 11.7346 26.913 13.6398 27.5717 14.7124C27.7118 14.9406 27.8744 15.1897 27.9548 15.55C28.0151 15.8205 28.0151 16.1795 27.9548 16.45C27.8744 16.8103 27.7118 17.0594 27.5717 17.2876C27.2161 17.8666 26.669 18.6883 25.9391 19.5809C25.6048 19.9896 24.9924 20.0017 24.6224 19.6251C24.2846 19.2815 24.2724 18.7364 24.5749 18.3614C25.1984 17.5884 25.6729 16.8759 25.9879 16.363C26.0708 16.228 26.106 16.1693 26.1294 16.123C26.1437 16.0948 26.1473 16.0844 26.151 16.0677C26.1493 16.0753 26.1494 16.0741 26.1505 16.063L26.151 16.0571C26.1524 16.0419 26.1537 16.022 26.1537 16C26.1537 15.978 26.1524 15.9581 26.151 15.9429C26.1498 15.9298 26.1493 15.9252 26.1501 15.9285C26.1467 15.9139 26.1426 15.903 26.1294 15.877C26.106 15.8307 26.0708 15.772 25.9879 15.637C25.3802 14.6476 24.1789 12.915 22.4597 11.4394C20.7411 9.96433 18.5706 8.8 16 8.8C15.2994 8.8 14.6285 8.88649 13.9884 9.04218C13.6249 9.13058 13.2362 9.02511 12.9917 8.74204C12.5704 8.25432 12.7593 7.49706 13.3831 7.3351C14.2045 7.12182 15.0775 7 16 7Z" fill="currentColor"/>
<path fill-rule="evenodd" clip-rule="evenodd" d="M16 25C12.8264 25 10.2395 23.5584 8.32071 21.9115C6.40282 20.2654 5.08703 18.3602 4.42832 17.2876C4.28816 17.0594 4.12559 16.8103 4.04522 16.45C3.98493 16.1795 3.98493 15.8205 4.04522 15.55C4.12559 15.1897 4.28816 14.9406 4.42832 14.7124C5.08703 13.6398 6.40282 11.7346 8.32071 10.0885C8.56011 9.883 8.80992 9.68072 9.06996 9.48403L7.29297 7.70703C6.90244 7.31651 6.90244 6.68349 7.29297 6.29297C7.68349 5.90245 8.31651 5.90245 8.70703 6.29297L10.7858 8.37176L12.1292 9.71511L14.367 11.9529L15.8474 13.4333L18.4525 16.0385L20.0042 17.5901L22.7336 20.3195L24.0226 21.6085L25.707 23.293C26.0976 23.6835 26.0976 24.3165 25.707 24.707C25.3165 25.0976 24.6835 25.0976 24.293 24.707L22.45 22.8641C20.7035 24.0768 18.5396 25 16 25ZM6.01214 15.637C6.61977 14.6476 7.82111 12.915 9.54034 11.4394C9.80549 11.2118 10.0814 10.9916 10.3679 10.7819L12.7384 13.1525C12.0886 13.924 11.7011 14.9243 11.7011 16C11.7011 18.3685 13.5802 20.3717 16 20.3717C17.1079 20.3717 18.1024 19.9518 18.8551 19.2692L21.1438 21.5579C19.6754 22.5278 17.9532 23.2 16 23.2C13.4294 23.2 11.2589 22.0357 9.54034 20.5606C7.82111 19.085 6.61977 17.3524 6.01214 16.363C5.92923 16.228 5.89398 16.1693 5.87061 16.123C5.85738 16.0969 5.85331 16.086 5.84981 16.0713C5.85075 16.075 5.85021 16.0705 5.84898 16.0571C5.84759 16.0419 5.84628 16.022 5.84628 16C5.84628 15.978 5.84759 15.9581 5.84898 15.9429C5.85048 15.9265 5.85095 15.9235 5.84898 15.9323C5.85271 15.9156 5.85632 15.9052 5.87061 15.877C5.89398 15.8308 5.92923 15.772 6.01214 15.637ZM16 18.5717C14.6912 18.5717 13.5472 17.466 13.5472 16C13.5472 15.4099 13.7326 14.8782 14.0394 14.4535L17.5649 17.9789C17.1337 18.3521 16.5832 18.5717 16 18.5717Z" fill="currentColor"/>
</svg>
