<svg width="24" height="24" viewBox="0 0 24 24" fill="none" xmlns="http://www.w3.org/2000/svg">
<path d="M7.37178 8.76512C6.13271 9.85408 5.2644 11.1342 4.82572 11.8657C4.79654 11.9143 4.77675 11.9483 4.75994 11.9774C4.75741 11.9818 4.75493 11.9858 4.75264 11.9895C4.75029 11.9933 4.74814 11.9968 4.74633 12C4.74814 12.0032 4.75029 12.0067 4.75264 12.0105C4.75493 12.0142 4.75742 12.0182 4.75994 12.0226C4.77675 12.0517 4.79654 12.0857 4.82572 12.1343C5.2644 12.8658 6.13271 14.1459 7.37178 15.2349C8.6089 16.3221 10.1628 17.1739 12.0001 17.1739C13.3624 17.1739 14.569 16.7056 15.6061 16.0201L14.2211 14.6352C13.6307 15.1863 12.8533 15.5214 12.0001 15.5214C10.1471 15.5214 8.65219 13.9411 8.65219 12C8.65219 11.1685 8.92653 10.4031 9.38582 9.79989L7.90993 8.324C7.7244 8.46529 7.54499 8.6129 7.37178 8.76512Z" fill="currentColor"/>
<path fill-rule="evenodd" clip-rule="evenodd" d="M12.0001 19C9.62168 19 7.68471 17.8929 6.25242 16.6342C4.82212 15.3771 3.84204 13.9237 3.35138 13.1056L3.33144 13.0725C3.23434 12.9117 3.10479 12.697 3.0395 12.3971C2.98683 12.1549 2.98683 11.8451 3.0395 11.6029L3.10414 11.3794C3.17211 11.1915 3.26058 11.0449 3.33168 10.9271L3.35138 10.8944C3.84204 10.0763 4.82212 8.62287 6.25242 7.36583C6.37523 7.2579 6.50174 7.15109 6.63193 7.04599L5.29297 5.70703C4.90244 5.31651 4.90244 4.68349 5.29297 4.29297C5.68349 3.90244 6.31651 3.90244 6.70703 4.29297L8.33621 5.92215L9.69957 7.28551L11.0396 8.62551L15.2524 12.8384L17.1546 14.7406L18.4162 16.0022L19.707 17.293C20.0976 17.6835 20.0976 18.3165 19.707 18.707C19.3165 19.0976 18.6835 19.0976 18.293 18.707L16.8989 17.313C15.5816 18.2656 13.9372 19 12.0001 19ZM7.37178 8.76512C6.13271 9.85408 5.2644 11.1342 4.82572 11.8657C4.79654 11.9143 4.77675 11.9483 4.75994 11.9774C4.75741 11.9818 4.75493 11.9858 4.75264 11.9895C4.75029 11.9933 4.74814 11.9968 4.74633 12C4.74814 12.0032 4.75029 12.0067 4.75264 12.0105C4.75493 12.0142 4.75742 12.0182 4.75994 12.0226C4.77675 12.0517 4.79654 12.0857 4.82572 12.1343C5.2644 12.8658 6.13271 14.1459 7.37178 15.2349C8.6089 16.3221 10.1628 17.1739 12.0001 17.1739C13.3624 17.1739 14.569 16.7056 15.6061 16.0201L14.2211 14.6352L12.9517 13.3658L10.6565 11.0706L9.38582 9.79989L7.90993 8.324C7.7244 8.46529 7.54499 8.6129 7.37178 8.76512Z" fill="currentColor"/>
<path d="M10.3942 12C10.3942 12.9404 11.1166 13.6953 12.0001 13.6953C12.3555 13.6953 12.6849 13.5731 12.9517 13.3658L10.6565 11.0706C10.4908 11.337 10.3942 11.6561 10.3942 12Z" fill="currentColor"/>
<path d="M12.0001 5C14.3784 5 16.3154 6.10706 17.7477 7.36583C19.178 8.62287 20.1581 10.0763 20.6488 10.8944L20.6684 10.9271C20.7395 11.0449 20.828 11.1915 20.896 11.3794L20.9606 11.6029L20.9901 11.7955C21.0098 11.9961 21.0001 12.2156 20.9606 12.3971C20.8953 12.697 20.7658 12.9117 20.6687 13.0725L20.6488 13.1056C20.4127 13.4993 20.0633 14.04 19.6049 14.6352L10 5.26777C10.6267 5.09759 11.2939 5 12.0001 5Z" fill="currentColor"/>
</svg>
