<svg width="32" height="32" viewBox="0 0 32 32" fill="none" xmlns="http://www.w3.org/2000/svg">
<path d="M25.3333 16C25.3333 10.8453 21.1547 6.66667 16 6.66667C10.8453 6.66667 6.66667 10.8453 6.66667 16C6.66667 21.1547 10.8453 25.3333 16 25.3333C21.1547 25.3333 25.3333 21.1547 25.3333 16ZM20.2667 14.6667C21.003 14.6667 21.6 15.2636 21.6 16C21.6 16.7364 21.003 17.3333 20.2667 17.3333H11.7333C10.997 17.3333 10.4 16.7364 10.4 16C10.4 15.2636 10.997 14.6667 11.7333 14.6667H20.2667ZM28 16C28 22.6274 22.6274 28 16 28C9.37258 28 4 22.6274 4 16C4 9.37258 9.37258 4 16 4C22.6274 4 28 9.37258 28 16Z" fill="currentColor"/>
</svg>
