<svg width="24" height="24" viewBox="0 0 24 24" fill="none" xmlns="http://www.w3.org/2000/svg">
<path fill-rule="evenodd" clip-rule="evenodd" d="M19 12C19 8.13401 15.866 5 12 5C8.13401 5 5 8.13401 5 12C5 15.866 8.13401 19 12 19C15.866 19 19 15.866 19 12ZM11 13V15.2002C11.0001 15.7524 11.4478 16.2002 12 16.2002C12.5522 16.2002 12.9999 15.7524 13 15.2002V13H15.2002C15.7524 12.9999 16.2002 12.5522 16.2002 12C16.2002 11.4478 15.7524 11.0001 15.2002 11H13V8.7998C12.9999 8.24761 12.5522 7.7998 12 7.7998C11.4478 7.7998 11.0001 8.24761 11 8.7998V11H8.7998C8.24761 11.0001 7.7998 11.4478 7.7998 12C7.7998 12.5522 8.24761 12.9999 8.7998 13H11Z" fill="currentColor"/>
<path fill-rule="evenodd" clip-rule="evenodd" d="M12 5C15.866 5 19 8.13401 19 12C19 15.866 15.866 19 12 19C8.13401 19 5 15.866 5 12C5 8.13401 8.13401 5 12 5ZM12 21C16.9706 21 21 16.9706 21 12C21 7.02944 16.9706 3 12 3C7.02944 3 3 7.02944 3 12C3 16.9706 7.02944 21 12 21Z" fill="currentColor"/>
</svg>
