<svg width="32" height="32" viewBox="0 0 32 32" fill="none" xmlns="http://www.w3.org/2000/svg">
<path d="M16 7C19.1736 7 21.7605 8.44163 23.6793 10.0885C25.5972 11.7346 26.913 13.6398 27.5717 14.7124C27.7118 14.9406 27.8744 15.1897 27.9548 15.55C28.0151 15.8205 28.0151 16.1795 27.9548 16.45C27.8744 16.8103 27.7118 17.0594 27.5717 17.2876C26.913 18.3602 25.5972 20.2654 23.6793 21.9115C21.7605 23.5584 19.1736 25 16 25C12.8264 25 10.2395 23.5584 8.32071 21.9115C6.40282 20.2654 5.08703 18.3602 4.42832 17.2876C4.28816 17.0594 4.12559 16.8103 4.04522 16.45C3.98493 16.1795 3.98493 15.8205 4.04522 15.55C4.12559 15.1897 4.28816 14.9406 4.42832 14.7124C5.08703 13.6398 6.40282 11.7346 8.32071 10.0885C10.2395 8.44163 12.8264 7 16 7ZM16 8.8C13.4294 8.8 11.2589 9.96433 9.54034 11.4394C7.82111 12.915 6.61977 14.6476 6.01214 15.637C5.92923 15.772 5.89398 15.8307 5.87061 15.877C5.85632 15.9052 5.85271 15.9156 5.84898 15.9323C5.85095 15.9235 5.85048 15.9265 5.84898 15.9429C5.84759 15.9581 5.84628 15.978 5.84628 16C5.84628 16.022 5.84759 16.0419 5.84898 16.0571C5.85048 16.0735 5.85095 16.0765 5.84898 16.0677C5.85271 16.0844 5.85632 16.0948 5.87061 16.123C5.89398 16.1693 5.92923 16.228 6.01214 16.363C6.61977 17.3524 7.82111 19.085 9.54034 20.5606C11.2589 22.0357 13.4294 23.2 16 23.2C18.5706 23.2 20.7411 22.0357 22.4597 20.5606C24.1789 19.085 25.3802 17.3524 25.9879 16.363C26.0708 16.228 26.106 16.1693 26.1294 16.123C26.1437 16.0948 26.1473 16.0844 26.151 16.0677C26.1491 16.0765 26.1495 16.0735 26.151 16.0571C26.1524 16.0419 26.1537 16.022 26.1537 16C26.1537 15.978 26.1524 15.9581 26.151 15.9429C26.1495 15.9265 26.1491 15.9235 26.151 15.9323C26.1473 15.9156 26.1437 15.9052 26.1294 15.877C26.106 15.8307 26.0708 15.772 25.9879 15.637C25.3802 14.6476 24.1789 12.915 22.4597 11.4394C20.7411 9.96433 18.5706 8.8 16 8.8ZM18.4528 16C18.4528 14.534 17.3088 13.4283 16 13.4283C14.6912 13.4283 13.5472 14.534 13.5472 16C13.5472 17.4659 14.6912 18.5717 16 18.5717C17.3088 18.5717 18.4528 17.4659 18.4528 16ZM20.2989 16C20.2989 18.3685 18.4198 20.3717 16 20.3717C13.5802 20.3717 11.7011 18.3685 11.7011 16C11.7011 13.6315 13.5802 11.6283 16 11.6283C18.4198 11.6283 20.2989 13.6315 20.2989 16Z" fill="currentColor"/>
</svg>
