<svg width="32" height="32" viewBox="0 0 32 32" fill="none" xmlns="http://www.w3.org/2000/svg">
<path d="M16.5626 8.4681C16.5626 7.92625 16.138 7.47347 15.5703 7.36068L12.0309 14.4865C11.7116 15.1289 11.0589 15.5756 10.3029 15.6978V23.6667H21.4407C22.3419 23.6667 23.1091 23.078 23.2461 22.2812L24.3689 15.7479C24.5387 14.7587 23.6833 13.8667 22.5645 13.8667H18.91C17.6136 13.8667 16.5626 12.9265 16.5626 11.7667V8.4681ZM5.60819 22.9667C5.60819 23.3533 5.95851 23.6667 6.39065 23.6667H7.69475V15.7333H6.39065C5.95851 15.7333 5.60819 16.0467 5.60819 16.4333V22.9667Z" fill="currentColor"/>
<path d="M15.5703 7.36068C16.138 7.47347 16.5626 7.92625 16.5626 8.4681V11.7667C16.5626 12.9265 17.6136 13.8667 18.91 13.8667H22.5645C23.6833 13.8667 24.5387 14.7587 24.3689 15.7479L23.2461 22.2812C23.1091 23.078 22.3419 23.6667 21.4407 23.6667H10.3029V26H21.4407C23.6291 26 25.4909 24.5717 25.8237 22.6367L26.9475 16.1034C27.3607 13.7005 25.282 11.5333 22.5645 11.5333H19.1708V8.4681C19.1708 6.61264 17.5421 5.09754 15.4939 5.00456L15.2942 5C14.4399 5 13.6656 5.45008 13.3187 6.14844L10.3029 12.2205V15.6978C11.0589 15.5756 11.7116 15.1289 12.0309 14.4865L15.5703 7.36068Z" fill="currentColor"/>
<path d="M6.39065 23.6667C5.95851 23.6667 5.60819 23.3533 5.60819 22.9667V16.4333C5.60819 16.0467 5.95851 15.7333 6.39065 15.7333H7.69475V13.4H6.39065C4.51805 13.4 3 14.7581 3 16.4333V22.9667C3 24.6419 4.51805 26 6.39065 26H7.69475V23.6667H6.39065Z" fill="currentColor"/>
</svg>
