<svg width="32" height="32" viewBox="0 0 32 32" fill="none" xmlns="http://www.w3.org/2000/svg">
<path d="M13.4374 22.5319C13.4374 23.0737 13.862 23.5265 14.4297 23.6393L17.9691 16.5135C18.2884 15.8711 18.9411 15.4244 19.6971 15.3022V7.33333H8.55925C7.65812 7.33333 6.89092 7.92196 6.75389 8.71875L5.63115 15.2521C5.46128 16.2413 6.31666 17.1333 7.43549 17.1333H11.09C12.3864 17.1333 13.4374 18.0735 13.4374 19.2333V22.5319ZM24.3918 8.03333C24.3918 7.64673 24.0415 7.33333 23.6093 7.33333H22.3053V15.2667H23.6093C24.0415 15.2667 24.3918 14.9533 24.3918 14.5667V8.03333ZM10.8292 19.4667H7.43549C4.718 19.4667 2.63928 17.2995 3.0525 14.8966L4.17626 8.36328C4.50913 6.42832 6.37087 5 8.55925 5H23.6093C25.482 5 27 6.35807 27 8.03333V14.5667C27 16.2419 25.482 17.6 23.6093 17.6H20.2829L16.6813 24.8516C16.3344 25.5499 15.5601 26 14.7058 26L14.5061 25.9954C12.4579 25.9025 10.8292 24.3874 10.8292 22.5319V19.4667Z" fill="currentColor"/>
</svg>
