<svg width="32" height="32" viewBox="0 0 32 32" fill="none" xmlns="http://www.w3.org/2000/svg">
<path d="M26.6667 7.55521C27.4029 7.55521 27.9998 8.15232 28 8.88854C28 9.62492 27.403 10.2219 26.6667 10.2219H25.5438L24.7958 21.4448C24.7349 22.3588 24.6849 23.122 24.5938 23.7427C24.5002 24.3796 24.3498 24.974 24.0323 25.5313C23.5432 26.3896 22.8057 27.0796 21.9167 27.5104C21.3395 27.7901 20.7365 27.9001 20.0948 27.951C19.4694 28.0007 18.7045 28 17.7885 28H14.2115C13.2955 28 12.5306 28.0007 11.9052 27.951C11.2635 27.9001 10.6605 27.7901 10.0833 27.5104C9.19432 27.0796 8.45677 26.3896 7.96771 25.5313C7.65023 24.974 7.49976 24.3796 7.40625 23.7427C7.31512 23.122 7.2651 22.3588 7.20417 21.4448L6.45625 10.2219H5.33333C4.59695 10.2219 4 9.62492 4 8.88854C4.00019 8.15232 4.59707 7.55521 5.33333 7.55521H26.6667ZM9.86563 21.2677C9.92937 22.2239 9.97261 22.8635 10.0448 23.3552C10.1146 23.8309 10.1979 24.0596 10.2844 24.2115C10.5066 24.6014 10.842 24.9146 11.2458 25.1104C11.4031 25.1866 11.6365 25.2547 12.1156 25.2927C12.6111 25.332 13.2529 25.3333 14.2115 25.3333H17.7885C18.7471 25.3333 19.3889 25.332 19.8844 25.2927C20.3635 25.2547 20.5969 25.1866 20.7542 25.1104C21.158 24.9146 21.4934 24.6014 21.7156 24.2115C21.8021 24.0596 21.8854 23.8309 21.9552 23.3552C22.0274 22.8635 22.0706 22.2239 22.1344 21.2677L22.8708 10.2219H9.12917L9.86563 21.2677ZM12.2958 20.1479V14.2219C12.296 13.4858 12.8931 12.8888 13.6292 12.8885C14.3654 12.8885 14.9623 13.4857 14.9625 14.2219V20.1479C14.9625 20.8843 14.3655 21.4813 13.6292 21.4813C12.893 21.481 12.2958 20.8841 12.2958 20.1479ZM17.0375 20.1479V14.2219C17.0377 13.4857 17.6346 12.8885 18.3708 12.8885C19.1069 12.8888 19.704 13.4858 19.7042 14.2219V20.1479C19.7042 20.8841 19.107 21.481 18.3708 21.4813C17.6345 21.4813 17.0375 20.8843 17.0375 20.1479ZM19.5552 4C20.2916 4 20.8885 4.59695 20.8885 5.33333C20.8885 6.06971 20.2916 6.66667 19.5552 6.66667H12.4448C11.7084 6.66667 11.1115 6.06971 11.1115 5.33333C11.1115 4.59695 11.7084 4 12.4448 4H19.5552Z" fill="currentColor"/>
</svg>
