<svg width="32" height="32" viewBox="0 0 32 32" fill="none" xmlns="http://www.w3.org/2000/svg">
<g clip-path="url(#clip0_611_47)">
<path d="M20.1682 9.49955C20.1681 7.17158 18.2947 5.29723 16 5.29723C13.7053 5.29723 11.8319 7.17158 11.8318 9.49955C11.8318 11.8276 13.7052 13.7028 16 13.7028C18.2948 13.7028 20.1682 11.8276 20.1682 9.49955ZM22.4655 9.49955C22.4655 13.0822 19.5776 16 16 16C12.4224 16 9.53455 13.0822 9.53455 9.49955C9.5347 5.91699 12.4225 3 16 3C19.5775 3 22.4653 5.91699 22.4655 9.49955Z" fill="currentColor"/>
<path d="M21.5 24V26.75C21.5 27.4404 22.0596 28 22.75 28C23.4404 28 24 27.4404 24 26.75V24H26.75C27.4404 24 28 23.4404 28 22.75C28 22.0596 27.4404 21.5 26.75 21.5H24V18.75C24 18.0596 23.4404 17.5 22.75 17.5C22.0596 17.5 21.5 18.0596 21.5 18.75V21.5H18.75C18.0596 21.5 17.5 22.0596 17.5 22.75C17.5 23.4404 18.0596 24 18.75 24H21.5Z" fill="currentColor"/>
<path d="M17.5713 20.4268C15.6856 20.4268 11.7712 20.4401 11.2646 20.5947C10.023 20.9739 9.04687 21.9537 8.66797 23.2109C8.60769 23.411 8.54829 23.5799 8.53125 23.6318C8.51595 23.6785 8.51834 23.6737 8.51758 23.6797C8.50259 23.7989 8.5 25.7902 8.5 26.75C8.5 27.4404 7.94036 28 7.25 28C6.55965 28 6 27.4404 6 26.75C6 25.9041 5.99675 23.6877 6.03711 23.3672C6.06402 23.1535 6.10833 22.9956 6.15527 22.8525C6.2006 22.7144 6.22405 22.6564 6.27442 22.4893C6.89274 20.4379 8.48969 18.8286 10.5352 18.2041C11.4885 17.913 15.8686 17.9268 17.5713 17.9268C17.5713 17.9268 19 17.9268 19 19.1768C19 20.5947 17.5713 20.4268 17.5713 20.4268Z" fill="currentColor"/>
</g>
<defs>
<clipPath id="clip0_611_47">
<rect width="32" height="32" fill="white"/>
</clipPath>
</defs>
</svg>
