<svg width="24" height="24" viewBox="0 0 24 24" fill="none" xmlns="http://www.w3.org/2000/svg">
<g clip-path="url(#clip0_611_43)">
<path d="M16 20V18H14C13.4477 18 13 17.5523 13 17C13 16.4477 13.4477 16 14 16H16V14C16 13.4477 16.4477 13 17 13C17.5523 13 18 13.4477 18 14V16H20C20.5523 16 21 16.4477 21 17C21 17.5523 20.5523 18 20 18H18V20C18 20.5523 17.5523 21 17 21C16.4477 21 16 20.5523 16 20ZM4.00002 20C4.00002 19.3484 3.99753 17.9843 4.02931 17.7334C4.05067 17.5649 4.08605 17.4402 4.12306 17.3281C4.15872 17.2202 4.17592 17.1772 4.21486 17.0488C4.69961 15.4508 5.95084 14.1996 7.54884 13.7148C8.29429 13.4888 9.17742 13.5 10.5 13.5H13C13.5523 13.5 14 13.9477 14 14.5C14 15.0523 13.5523 15.5 13 15.5H10.5C9.0317 15.5 8.51899 15.5106 8.12892 15.6289C7.17023 15.9198 6.41979 16.6702 6.12892 17.6289C6.08196 17.7837 6.03539 17.916 6.02248 17.9551C6.01229 17.9859 6.01369 17.9844 6.01369 17.9844C6.00243 18.0732 6.00002 19.2562 6.00002 20C6.00002 20.5523 5.5523 21 5.00002 21C4.44773 21 4.00002 20.5523 4.00002 20ZM15.1818 7C15.1818 5.24273 13.7573 3.81818 12 3.81818C10.2427 3.81818 8.81818 5.24273 8.81818 7C8.81818 8.75727 10.2427 10.1818 12 10.1818C13.7573 10.1818 15.1818 8.75727 15.1818 7ZM17 7C17 9.76142 14.7614 12 12 12C9.23858 12 7 9.76142 7 7C7 4.23858 9.23858 2 12 2C14.7614 2 17 4.23858 17 7Z" fill="currentColor"/>
</g>
<defs>
<clipPath id="clip0_611_43">
<rect width="24" height="24" fill="white"/>
</clipPath>
</defs>
</svg>
