<svg width="16" height="16" viewBox="0 0 16 16" fill="none" xmlns="http://www.w3.org/2000/svg">
<g clip-path="url(#clip0_611_39)">
<path d="M10.0891 4.5C10.0891 3.33191 9.1495 2.39275 8 2.39275C6.8505 2.39275 5.91092 3.33191 5.91088 4.5C5.91088 5.66813 6.85048 6.60725 8 6.60725C9.14952 6.60725 10.0891 5.66813 10.0891 4.5ZM11.4819 4.5C11.4819 6.42875 9.92725 8 8 8C6.07275 8 4.51813 6.42875 4.51813 4.5C4.51817 2.57128 6.07277 1 8 1C9.92723 1 11.4818 2.57128 11.4819 4.5Z" fill="currentColor"/>
<path d="M11 13.75V12.5H9.75C9.33579 12.5 9 12.1642 9 11.75C9 11.3358 9.33579 11 9.75 11H11V9.75C11 9.33579 11.3358 9 11.75 9C12.1642 9 12.5 9.33579 12.5 9.75V11H13.75C14.1642 11 14.5 11.3358 14.5 11.75C14.5 12.1642 14.1642 12.5 13.75 12.5H12.5V13.75C12.5 14.1642 12.1642 14.5 11.75 14.5C11.3358 14.5 11 14.1642 11 13.75Z" fill="currentColor"/>
<path d="M8.46387 10.5H7.53613C6.5841 10.5 5.27491 10.5076 5.04394 10.5781C4.46331 10.7554 4.00663 11.2139 3.8291 11.8027C3.79842 11.9045 3.76682 11.9951 3.75976 12.0166C3.7591 12.0186 3.75683 12.0215 3.75683 12.0215C3.75526 12.037 3.75344 12.0773 3.75195 12.1758C3.75033 12.283 3.75 13.0219 3.75 13.25C3.75 13.6642 3.41421 14 3 14C2.58578 14 2.25 13.6642 2.25 13.25C2.25 12.8329 2.24808 11.9994 2.26953 11.8291C2.28428 11.7121 2.30896 11.6251 2.33398 11.5488C2.35805 11.4755 2.36792 11.4519 2.39258 11.3701C2.71368 10.3047 3.54348 9.46811 4.60644 9.14355C5.10541 8.99132 6.69413 9 7.53613 9H8.46387C8.46387 9 9.25044 9 9.25044 9.75C9.25044 10.5 8.46387 10.5 8.46387 10.5Z" fill="currentColor"/>
</g>
<defs>
<clipPath id="clip0_611_39">
<rect width="16" height="16" fill="white"/>
</clipPath>
</defs>
</svg>
