<svg width="16" height="16" viewBox="0 0 16 16" fill="none" xmlns="http://www.w3.org/2000/svg">
<g clip-path="url(#clip0_605_12)">
<path d="M12.25 13.25C12.25 13.0219 12.2497 12.283 12.248 12.1758C12.2466 12.0771 12.2438 12.0369 12.2422 12.0215C12.2422 12.0215 12.2409 12.0185 12.2402 12.0166C12.2332 11.9951 12.2016 11.9045 12.1709 11.8027C11.9934 11.2139 11.5367 10.7554 10.9561 10.5781C10.7251 10.5076 10.4159 10.5 9.46387 10.5H6.53613C5.5841 10.5 5.27491 10.5076 5.04395 10.5781C4.46331 10.7554 4.00664 11.2139 3.8291 11.8027C3.79842 11.9045 3.76683 11.9951 3.75977 12.0166C3.7591 12.0186 3.75684 12.0215 3.75684 12.0215C3.75527 12.037 3.75344 12.0773 3.75195 12.1758C3.75034 12.283 3.75 13.0219 3.75 13.25C3.75 13.6642 3.41421 14 3 14C2.58579 14 2.25 13.6642 2.25 13.25C2.25 12.8329 2.24809 11.9994 2.26953 11.8291C2.28428 11.7121 2.30896 11.6251 2.33398 11.5488C2.35805 11.4755 2.36792 11.4519 2.39258 11.3701C2.71368 10.3047 3.54348 9.46811 4.60645 9.14355C5.10541 8.99132 5.69413 9 6.53613 9H9.46387C10.3059 9 10.8946 8.99132 11.3936 9.14355C12.4565 9.46811 13.2863 10.3047 13.6074 11.3701C13.6321 11.4519 13.6419 11.4755 13.666 11.5488C13.691 11.6251 13.7157 11.7121 13.7305 11.8291C13.7519 11.9994 13.75 12.8329 13.75 13.25C13.75 13.6642 13.4142 14 13 14C12.5858 14 12.25 13.6642 12.25 13.25ZM10.0891 4.5C10.0891 3.33191 9.1495 2.39275 8 2.39275C6.85051 2.39275 5.91092 3.33191 5.91088 4.5C5.91088 5.66813 6.85048 6.60725 8 6.60725C9.14952 6.60725 10.0891 5.66813 10.0891 4.5ZM11.4819 4.5C11.4819 6.42875 9.92725 8 8 8C6.07275 8 4.51814 6.42875 4.51814 4.5C4.51817 2.57128 6.07277 1 8 1C9.92723 1 11.4818 2.57128 11.4819 4.5Z" fill="currentColor"/>
</g>
<defs>
<clipPath id="clip0_605_12">
<rect width="16" height="16" fill="white"/>
</clipPath>
</defs>
</svg>
