<svg width="24" height="24" viewBox="0 0 24 24" fill="none" xmlns="http://www.w3.org/2000/svg">
<g clip-path="url(#clip0_605_15)">
<path d="M18 20C18 19.2562 17.9976 18.0732 17.9863 17.9844C17.9863 17.9844 17.9877 17.9859 17.9775 17.9551C17.9646 17.9161 17.9181 17.7837 17.8711 17.6289C17.5802 16.6702 16.8298 15.9198 15.8711 15.6289C15.481 15.5106 14.9683 15.5 13.5 15.5H10.5C9.03168 15.5 8.51897 15.5106 8.12891 15.6289C7.17022 15.9198 6.41977 16.6702 6.12891 17.6289C6.08194 17.7837 6.03537 17.916 6.02246 17.9551C6.01227 17.9859 6.01367 17.9844 6.01367 17.9844C6.00242 18.0732 6 19.2562 6 20C6 20.5523 5.55228 21 5 21C4.44771 21 4 20.5523 4 20C4 19.3484 3.99751 17.9843 4.0293 17.7334C4.05065 17.5649 4.08603 17.4402 4.12305 17.3281C4.15871 17.2202 4.17591 17.1772 4.21484 17.0488C4.69959 15.4508 5.95082 14.1996 7.54883 13.7148C8.29428 13.4888 9.1774 13.5 10.5 13.5H13.5C14.8226 13.5 15.7057 13.4888 16.4512 13.7148C18.0492 14.1996 19.3004 15.4508 19.7852 17.0488C19.8241 17.1772 19.8413 17.2202 19.877 17.3281C19.914 17.4402 19.9493 17.5649 19.9707 17.7334C20.0025 17.9843 20 19.3484 20 20C20 20.5523 19.5523 21 19 21C18.4477 21 18 20.5523 18 20ZM15.1818 7C15.1818 5.24273 13.7573 3.81818 12 3.81818C10.2427 3.81818 8.81818 5.24273 8.81818 7C8.81818 8.75727 10.2427 10.1818 12 10.1818C13.7573 10.1818 15.1818 8.75727 15.1818 7ZM17 7C17 9.76142 14.7614 12 12 12C9.23858 12 7 9.76142 7 7C7 4.23858 9.23858 2 12 2C14.7614 2 17 4.23858 17 7Z" fill="currentColor"/>
</g>
<defs>
<clipPath id="clip0_605_15">
<rect width="24" height="24" fill="white"/>
</clipPath>
</defs>
</svg>
