<svg width="32" height="32" viewBox="0 0 32 32" fill="none" xmlns="http://www.w3.org/2000/svg">
<g clip-path="url(#clip0_605_18)">
<path d="M23.5 26.75C23.5 25.7902 23.4974 23.7989 23.4824 23.6797C23.4817 23.6737 23.4841 23.6785 23.4687 23.6318C23.4517 23.5799 23.3923 23.411 23.332 23.2109C22.9531 21.9537 21.977 20.9739 20.7353 20.5947C20.2288 20.4401 19.5644 20.4268 17.6787 20.4268H14.0713C12.1856 20.4268 11.7712 20.4401 11.2646 20.5947C10.023 20.9739 9.04686 21.9537 8.66796 23.2109C8.60768 23.411 8.54828 23.5799 8.53124 23.6318C8.51594 23.6785 8.51833 23.6737 8.51757 23.6797C8.50258 23.7989 8.49999 25.7902 8.49999 26.75C8.49999 27.4404 7.94035 28 7.24999 28C6.55964 28 5.99999 27.4404 5.99999 26.75C5.99999 25.9041 5.99674 23.6877 6.0371 23.3672C6.06401 23.1535 6.10832 22.9956 6.15527 22.8525C6.20059 22.7144 6.22405 22.6564 6.27441 22.4893C6.89273 20.4379 8.48968 18.8286 10.5351 18.2041C11.4885 17.913 12.3686 17.9268 14.0713 17.9268H17.6787C19.3814 17.9268 20.5115 17.913 21.4648 18.2041C23.5103 18.8286 25.1073 20.4379 25.7256 22.4893C25.7759 22.6564 25.7994 22.7144 25.8447 22.8525C25.8917 22.9956 25.936 23.1535 25.9629 23.3672C26.0032 23.6877 26 25.9041 26 26.75C26 27.4404 25.4404 28 24.75 28C24.0596 28 23.5 27.4404 23.5 26.75ZM20.1682 9.49955C20.1681 7.17158 18.2947 5.29723 16 5.29723C13.7053 5.29723 11.8319 7.17158 11.8318 9.49955C11.8318 11.8276 13.7052 13.7028 16 13.7028C18.2948 13.7028 20.1682 11.8276 20.1682 9.49955ZM22.4654 9.49955C22.4654 13.0822 19.5776 16 16 16C12.4224 16 9.53455 13.0822 9.53455 9.49955C9.53469 5.91699 12.4225 3 16 3C19.5775 3 22.4653 5.91699 22.4654 9.49955Z" fill="currentColor"/>
</g>
<defs>
<clipPath id="clip0_605_18">
<rect width="32" height="32" fill="white"/>
</clipPath>
</defs>
</svg>
