<svg width="16" height="16" viewBox="0 0 16 16" fill="none" xmlns="http://www.w3.org/2000/svg">
<path d="M6.17081 4.03129C5.91584 3.76919 5.95024 3.37515 6.24771 3.1505C6.54518 2.92585 6.9924 2.95616 7.24738 3.21825L8.73343 4.74555C10.2445 6.29853 11 7.07502 11 8C11 8.92498 10.2445 9.70147 8.73343 11.2544L7.24738 12.7817C6.9924 13.0438 6.54518 13.0741 6.24771 12.8495C5.95024 12.6248 5.91584 12.2308 6.17081 11.9687L8.7771 9.19607C9.31491 8.62394 9.58381 8.33787 9.58381 8.00004C9.58381 7.66221 9.31491 7.37614 8.77711 6.804L6.17081 4.03129Z" fill="#1C1C1C"/>
</svg>
