<svg width="24" height="24" viewBox="0 0 24 24" fill="none" xmlns="http://www.w3.org/2000/svg">
<path d="M18.3497 15.8079C18.769 16.1673 19.3994 16.1188 19.7589 15.6995C20.1183 15.2802 20.0698 14.6498 19.6505 14.2903L17.2069 12.1955C14.7223 10.0655 13.48 9.00043 12.0001 9.00043C10.5202 9.00043 9.27786 10.0655 6.79323 12.1955L4.34968 14.2903C3.93035 14.6498 3.88186 15.2802 4.24128 15.6995C4.6007 16.1188 5.23113 16.1673 5.65046 15.8079L10.0865 12.134C11.0018 11.3758 11.4595 10.9968 12 10.9968C12.5405 10.9968 12.9982 11.3758 13.9136 12.1339L18.3497 15.8079Z" fill="currentColor"/>
</svg>
