<svg width="24" height="24" viewBox="0 0 24 24" fill="none" xmlns="http://www.w3.org/2000/svg">
<path d="M9.23914 5.65006C8.88218 5.23071 8.93034 4.60024 9.3468 4.2408C9.76325 3.88136 10.3894 3.92986 10.7463 4.34921L12.8268 6.79288C14.9423 9.27765 16 10.52 16 12C16 13.48 14.9423 14.7223 12.8268 17.2071L10.7463 19.6508C10.3894 20.0701 9.76325 20.1186 9.3468 19.7592C8.93034 19.3998 8.88218 18.7693 9.23914 18.3499L12.8879 13.9137C13.6409 12.9983 14.0173 12.5406 14.0173 12.0001C14.0173 11.4595 13.6409 11.0018 12.888 10.0864L9.23914 5.65006Z" fill="currentColor"/>
</svg>
