<svg width="32" height="32" viewBox="0 0 32 32" fill="none" xmlns="http://www.w3.org/2000/svg">
<path d="M23.9374 13.2733C24.4616 12.8653 25.2497 12.9204 25.699 13.3963C26.1483 13.8723 26.0877 14.5878 25.5635 14.9958L22.5089 17.3735C19.4029 19.7912 17.85 21 16 21C14.15 21 12.5971 19.7912 9.49111 17.3735L6.43651 14.9958C5.91232 14.5878 5.8517 13.8723 6.301 13.3963C6.7503 12.9204 7.53839 12.8653 8.06257 13.2733L13.6079 17.4434C14.7521 18.3038 15.3243 18.7341 15.9999 18.7341C16.6756 18.7341 17.2477 18.3039 18.392 17.4434L23.9374 13.2733Z" fill="#1C1C1C"/>
</svg>
