<svg width="24" height="24" viewBox="0 0 24 24" fill="none" xmlns="http://www.w3.org/2000/svg">
<path d="M14.7607 5.65006C15.1177 5.23071 15.0695 4.60024 14.6531 4.2408C14.2366 3.88136 13.6105 3.92986 13.2536 4.34921L11.1731 6.79288C9.05761 9.27765 7.99988 10.52 7.99988 12C7.99988 13.48 9.05761 14.7223 11.1731 17.2071L13.2536 19.6508C13.6105 20.0701 14.2366 20.1186 14.6531 19.7592C15.0695 19.3998 15.1177 18.7693 14.7607 18.3499L11.1119 13.9137C10.359 12.9983 9.98255 12.5406 9.98254 12.0001C9.98254 11.4595 10.359 11.0018 11.1119 10.0864L14.7607 5.65006Z" fill="currentColor"/>
</svg>
