<svg width="32" height="32" viewBox="0 0 32 32" fill="none" xmlns="http://www.w3.org/2000/svg">
<path d="M11.3758 6.47508C10.8149 5.84606 10.8905 4.90037 11.545 4.3612C12.1994 3.82204 13.1833 3.89479 13.7442 4.52381L17.0136 8.18933C20.3379 11.9165 22 13.7801 22 16C22 18.2199 20.3379 20.0835 17.0136 23.8107L13.7442 27.4762C13.1833 28.1052 12.1994 28.178 11.545 27.6388C10.8905 27.0996 10.8149 26.1539 11.3758 25.5249L17.1096 18.8706C18.2928 17.4975 18.8844 16.8109 18.8844 16.0001C18.8844 15.1893 18.2928 14.5027 17.1097 13.1296L11.3758 6.47508Z" fill="#1C1C1C"/>
</svg>
