<svg width="32" height="32" viewBox="0 0 32 32" fill="none" xmlns="http://www.w3.org/2000/svg">
<path d="M20.6242 6.47508C21.1851 5.84606 21.1095 4.90037 20.455 4.3612C19.8006 3.82204 18.8167 3.89479 18.2558 4.52381L14.9864 8.18933C11.6621 11.9165 10 13.7801 10 16C10 18.2199 11.6621 20.0835 14.9864 23.8107L18.2558 27.4762C18.8167 28.1052 19.8006 28.178 20.455 27.6388C21.1095 27.0996 21.1851 26.1539 20.6242 25.5249L14.8904 18.8706C13.7072 17.4975 13.1156 16.8109 13.1156 16.0001C13.1156 15.1893 13.7072 14.5027 14.8903 13.1296L20.6242 6.47508Z" fill="currentColor"/>
</svg>
