<svg width="16" height="16" viewBox="0 0 16 16" fill="none" xmlns="http://www.w3.org/2000/svg">
<path d="M9.82919 4.03129C10.0842 3.76919 10.0498 3.37515 9.75229 3.1505C9.45482 2.92585 9.0076 2.95616 8.75262 3.21825L7.26657 4.74555C5.75552 6.29853 5 7.07502 5 8C5 8.92498 5.75552 9.70147 7.26657 11.2544L8.75262 12.7817C9.0076 13.0438 9.45482 13.0741 9.75229 12.8495C10.0498 12.6248 10.0842 12.2308 9.82919 11.9687L7.2229 9.19607C6.68509 8.62394 6.41619 8.33787 6.41619 8.00004C6.41619 7.66221 6.68509 7.37614 7.22289 6.804L9.82919 4.03129Z" fill="currentColor"/>
</svg>
