<svg width="24" height="24" viewBox="0 0 24 24" fill="none" xmlns="http://www.w3.org/2000/svg">
<path d="M18.3496 9.24116C18.7689 8.88173 19.3994 8.93023 19.7588 9.34955C20.1182 9.76888 20.0697 10.3993 19.6504 10.7587L17.2068 12.8536C14.7222 14.9836 13.4799 16.0486 12 16.0486C10.5201 16.0486 9.2778 14.9836 6.79316 12.8536L4.34962 10.7587C3.93029 10.3993 3.8818 9.76888 4.24122 9.34955C4.60064 8.93023 5.23107 8.88173 5.6504 9.24116L10.0864 12.9151C11.0018 13.6732 11.4594 14.0523 11.9999 14.0523C12.5404 14.0523 12.9981 13.6732 13.9135 12.9151L18.3496 9.24116Z" fill="currentColor"/>
</svg>
