<svg width="32" height="32" viewBox="0 0 32 32" fill="none" xmlns="http://www.w3.org/2000/svg">
<path d="M23.9374 20.7267C24.4616 21.1347 25.2497 21.0796 25.699 20.6037C26.1483 20.1277 26.0877 19.4122 25.5635 19.0042L22.5089 16.6265C19.4029 14.2088 17.85 13 16 13C14.15 13 12.5971 14.2088 9.49111 16.6265L6.43651 19.0042C5.91232 19.4122 5.8517 20.1277 6.301 20.6037C6.7503 21.0796 7.53839 21.1347 8.06257 20.7267L13.6079 16.5566C14.7521 15.6962 15.3243 15.2659 15.9999 15.2659C16.6756 15.2659 17.2477 15.6961 18.392 16.5566L23.9374 20.7267Z" fill="currentColor"/>
</svg>
