<svg width="16" height="16" viewBox="0 0 16 16" fill="none" xmlns="http://www.w3.org/2000/svg">
<g clip-path="url(#clip0_558_65)">
<path d="M2 12.6935V9.17384C2 8.77616 2.29848 8.45378 2.66667 8.45378H5.86632C6.23451 8.45378 6.53299 8.77616 6.53299 9.17384C6.53278 9.57132 6.23438 9.89389 5.86632 9.89389H3.94097C4.20566 10.2298 4.57185 10.6682 5.0816 11.229C6.69481 13.0037 9.30519 13.0037 10.9184 11.229C11.4918 10.5982 11.862 9.829 12.0295 9.01726C12.1096 8.62912 12.4662 8.38422 12.8255 8.47066C13.1849 8.55713 13.4117 8.94225 13.3316 9.33041C13.112 10.3948 12.6243 11.4077 11.8698 12.2378C9.73397 14.5874 6.26603 14.5874 4.13021 12.2378C3.81934 11.8958 3.55753 11.5919 3.33333 11.3256V12.6935C3.33333 13.0912 3.03486 13.4135 2.66667 13.4135C2.29848 13.4135 2 13.0912 2 12.6935ZM4.13021 3.76218C6.26603 1.41261 9.73397 1.41261 11.8698 3.76218C12.1805 4.10395 12.4426 4.4073 12.6667 4.6735V3.30652C12.6667 2.90885 12.9651 2.58647 13.3333 2.58647C13.7015 2.58647 14 2.90885 14 3.30652V6.82616C14 7.22384 13.7015 7.54622 13.3333 7.54622H10.1337C9.76549 7.54622 9.46701 7.22384 9.46701 6.82616C9.46722 6.42868 9.76562 6.10611 10.1337 6.10611H12.059C11.7943 5.7702 11.4281 5.33178 10.9184 4.77101C9.30519 2.99634 6.69481 2.99634 5.0816 4.77101C4.50822 5.40184 4.13799 6.171 3.97049 6.98274C3.89043 7.37088 3.53384 7.61578 3.17448 7.52934C2.8151 7.44287 2.58834 7.05775 2.6684 6.66959C2.888 5.60516 3.37569 4.5923 4.13021 3.76218Z" fill="currentColor"/>
</g>
<defs>
<clipPath id="clip0_558_65">
<rect width="16" height="16" fill="white"/>
</clipPath>
</defs>
</svg>
