<svg width="24" height="24" viewBox="0 0 24 24" fill="none" xmlns="http://www.w3.org/2000/svg">
<g clip-path="url(#clip0_558_68)">
<path d="M3 18.3999V13.6C3 13.1581 3.36631 12.8 3.81818 12.8H8.72727C9.17914 12.8 9.54545 13.1581 9.54545 13.6C9.54545 14.0418 9.17914 14.3999 8.72727 14.3999H5.35307C5.77197 14.8934 6.40767 15.5834 7.37136 16.5257C9.92752 19.025 14.0725 19.025 16.6286 16.5257C17.5352 15.6393 18.1187 14.5592 18.3825 13.4226C18.4825 12.992 18.9208 12.722 19.3612 12.8195C19.8019 12.9173 20.0781 13.3464 19.9781 13.7773C19.648 15.1994 18.9167 16.551 17.7856 17.6569C14.5904 20.781 9.4096 20.781 6.2144 17.6569C5.56096 17.018 5.04541 16.4821 4.63636 16.0351V18.3999C4.63636 18.8417 4.27005 19.1998 3.81818 19.1998C3.36631 19.1998 3 18.8417 3 18.3999ZM6.2144 6.34309C9.4096 3.21897 14.5904 3.21897 17.7856 6.34309C18.4388 6.98179 18.9547 7.51723 19.3636 7.96415V5.60014C19.3636 5.15832 19.7299 4.80016 20.1818 4.80016C20.6337 4.80016 21 5.15832 21 5.60014V10.4C21 10.8419 20.6337 11.2 20.1818 11.2H15.2727C14.8209 11.2 14.4545 10.8419 14.4545 10.4C14.4545 9.95822 14.8209 9.60005 15.2727 9.60005H18.6469C18.228 9.10656 17.5923 8.41657 16.6286 7.47432C14.0725 4.97502 9.92752 4.97502 7.37136 7.47432C6.46482 8.36069 5.88128 9.44084 5.61754 10.5774C5.51746 11.008 5.07921 11.278 4.63876 11.1805C4.19809 11.0827 3.92194 10.6536 4.02193 10.2227C4.35201 8.80057 5.08332 7.44901 6.2144 6.34309Z" fill="currentColor"/>
</g>
<defs>
<clipPath id="clip0_558_68">
<rect width="24" height="24" fill="white"/>
</clipPath>
</defs>
</svg>
