<svg width="32" height="32" viewBox="0 0 32 32" fill="none" xmlns="http://www.w3.org/2000/svg">
<g clip-path="url(#clip0_558_71)">
<path d="M4 24.5852V18.1463C4 17.4054 4.59695 16.8049 5.33333 16.8049H11.7333C12.4697 16.8049 13.0667 17.4054 13.0667 18.1463C13.0667 18.8872 12.4697 19.4877 11.7333 19.4877H7.91146C8.43739 20.0954 9.16009 20.8812 10.1542 21.8814C13.3825 25.1293 18.6175 25.1293 21.8458 21.8814C22.9911 20.7292 23.7284 19.3264 24.0615 17.8497C24.2244 17.1272 24.9381 16.6745 25.6563 16.8384C26.3743 17.0023 26.8243 17.7205 26.6615 18.4429C26.2204 20.3987 25.2426 22.2577 23.7313 23.7782C19.4615 28.0739 12.5385 28.0739 8.26875 23.7782C7.6447 23.1504 7.11629 22.5953 6.66667 22.1067V24.5852C6.66667 25.3261 6.06971 25.9266 5.33333 25.9266C4.59695 25.9266 4 25.3261 4 24.5852ZM8.26875 8.22176C12.5385 3.92608 19.4615 3.92608 23.7313 8.22176C24.3551 8.84936 24.8838 9.4038 25.3333 9.89227V7.4148C25.3333 6.67395 25.9303 6.07337 26.6667 6.07337C27.403 6.07337 28 6.67395 28 7.4148V13.8537C28 14.5946 27.403 15.1951 26.6667 15.1951H20.2667C19.5303 15.1951 18.9333 14.5946 18.9333 13.8537C18.9333 13.1128 19.5303 12.5123 20.2667 12.5123H24.0885C23.5626 11.9046 22.8399 11.1188 21.8458 10.1186C18.6175 6.87068 13.3825 6.87068 10.1542 10.1186C9.00895 11.2708 8.27159 12.6736 7.93854 14.1503C7.7756 14.8728 7.06188 15.3255 6.34375 15.1616C5.62571 14.9977 5.17574 14.2795 5.33854 13.5571C5.77963 11.6013 6.75742 9.74228 8.26875 8.22176Z" fill="currentColor"/>
</g>
<defs>
<clipPath id="clip0_558_71">
<rect width="32" height="32" fill="white"/>
</clipPath>
</defs>
</svg>
