<svg width="32" height="32" viewBox="0 0 32 32" fill="none" xmlns="http://www.w3.org/2000/svg">
<path fill-rule="evenodd" clip-rule="evenodd" d="M16 6.00928L23.9999 12.1045L24 23.2425C24 23.4997 23.8946 23.7463 23.7071 23.9282C23.5196 24.11 23.2652 24.2122 23 24.2122H18C17.4477 24.2122 17 23.778 17 23.2425V18.937H15V23.2425C15 23.778 14.5523 24.2122 14 24.2122H9C8.44772 24.2122 8 23.778 8 23.2425V12.1045L16 6.00928ZM10 13.0471V22.2728H13V16.9976H19V22.2728H22L21.9999 13.0471L16 8.47571L10 13.0471Z" fill="currentColor"/>
</svg>
