<svg width="32" height="32" viewBox="0 0 32 32" fill="none" xmlns="http://www.w3.org/2000/svg">
<path fill-rule="evenodd" clip-rule="evenodd" d="M16 26C21.5228 26 26 21.5228 26 16C26 10.4772 21.5228 6 16 6C10.4772 6 6 10.4772 6 16C6 21.5228 10.4772 26 16 26ZM16 24C20.4183 24 24 20.4183 24 16C24 11.5817 20.4183 8 16 8C11.5817 8 8 11.5817 8 16C8 20.4183 11.5817 24 16 24Z" fill="#1C1C1C"/>
<path fill-rule="evenodd" clip-rule="evenodd" d="M16 24C20.4183 24 24 20.4183 24 16C24 11.5817 20.4183 8 16 8C11.5817 8 8 11.5817 8 16C8 20.4183 11.5817 24 16 24ZM17 12C17 11.4477 16.5523 11 16 11C15.4477 11 15 11.4477 15 12V13C15 13.5523 15.4477 14 16 14C16.5523 14 17 13.5523 17 13V12ZM14 17C13.4477 17 13 16.5523 13 16C13 15.4477 13.4477 15 14 15H16C16.5523 15 17 15.4477 17 16V21C17 21.5523 16.5523 22 16 22C15.4477 22 15 21.5523 15 21V18C15 17.4477 14.5523 17 14 17Z" fill="#1C1C1C"/>
</svg>
