<svg width="24" height="24" viewBox="0 0 24 24" fill="none" xmlns="http://www.w3.org/2000/svg">
<path d="M12 8C12.4418 8 12.8 8.35817 12.8 8.8V9.6C12.8 10.0418 12.4418 10.4 12 10.4C11.5582 10.4 11.2 10.0418 11.2 9.6V8.8C11.2 8.35817 11.5582 8 12 8Z" fill="#1C1C1C"/>
<path d="M10.4 11.2C9.95817 11.2 9.6 11.5582 9.6 12C9.6 12.4418 9.95817 12.8 10.4 12.8C10.8418 12.8 11.2 13.1582 11.2 13.6V16C11.2 16.4418 11.5582 16.8 12 16.8C12.4418 16.8 12.8 16.4418 12.8 16V12C12.8 11.5582 12.4418 11.2 12 11.2H10.4Z" fill="#1C1C1C"/>
<path fill-rule="evenodd" clip-rule="evenodd" d="M12 20C16.4183 20 20 16.4183 20 12C20 7.58172 16.4183 4 12 4C7.58172 4 4 7.58172 4 12C4 16.4183 7.58172 20 12 20ZM12 18.4C15.5346 18.4 18.4 15.5346 18.4 12C18.4 8.46538 15.5346 5.6 12 5.6C8.46538 5.6 5.6 8.46538 5.6 12C5.6 15.5346 8.46538 18.4 12 18.4Z" fill="#1C1C1C"/>
</svg>
