<svg width="24" height="24" viewBox="0 0 24 24" fill="none" xmlns="http://www.w3.org/2000/svg">
<path d="M11.1203 15.2747L11.1203 15.28V15.2694L11.1203 15.2747Z" fill="currentColor"/>
<path d="M12.8803 15.2747L12.8803 15.2694V15.28L12.8803 15.2747Z" fill="currentColor"/>
<path fill-rule="evenodd" clip-rule="evenodd" d="M12 20C16.4183 20 20 16.4183 20 12C20 7.58172 16.4183 4 12 4C7.58172 4 4 7.58172 4 12C4 16.4183 7.58172 20 12 20ZM12 18.4C15.5346 18.4 18.4 15.5346 18.4 12C18.4 8.46538 15.5346 5.6 12 5.6C8.46538 5.6 5.6 8.46538 5.6 12C5.6 15.5346 8.46538 18.4 12 18.4Z" fill="currentColor"/>
<path fill-rule="evenodd" clip-rule="evenodd" d="M12 18.4C15.5346 18.4 18.4 15.5346 18.4 12C18.4 8.46538 15.5346 5.6 12 5.6C8.46538 5.6 5.6 8.46538 5.6 12C5.6 15.5346 8.46538 18.4 12 18.4ZM12.0003 14.4C12.4846 14.4 12.8774 14.7911 12.8803 15.2747L12.8803 15.2694V15.28L12.8803 15.2747C12.8774 15.7583 12.4846 16.1494 12.0003 16.1494C11.5161 16.1494 11.1232 15.7583 11.1203 15.2747L11.1203 15.28V15.2694L11.1203 15.2747C11.1232 14.7911 11.5161 14.4 12.0003 14.4ZM9.72506 9.65362C9.59395 10.0524 9.94026 10.4 10.36 10.4C10.7797 10.4 11.1154 10.0069 11.4326 9.73192C11.5816 9.60273 11.7763 9.52008 12 9.52008C12.4748 9.52008 12.88 9.80122 12.88 10.4C12.88 10.8816 12.4584 11.2436 12.0376 11.6048L12.0107 11.6279C11.6165 11.9659 11.2021 12.3214 11.2021 12.9875C11.2021 13.3212 11.4792 13.6 11.8128 13.6H12.3589C12.6025 13.6 12.8 13.4025 12.8 13.1589C12.8 12.7509 13.131 12.4725 13.4166 12.2324C13.4575 12.198 13.4975 12.1644 13.5354 12.1313C13.957 11.7634 14.4 11.139 14.4 10.4C14.4 9.0881 13.5458 7.99688 12.0123 7.99688C10.7283 7.99688 9.99813 8.82311 9.72506 9.65362Z" fill="currentColor"/>
</svg>
