<svg width="32" height="32" viewBox="0 0 32 32" fill="none" xmlns="http://www.w3.org/2000/svg">
<path d="M14.9004 20.0934L14.9004 20.1V20.0867L14.9004 20.0934Z" fill="currentColor"/>
<path d="M17.1004 20.0934L17.1004 20.0867V20.1L17.1004 20.0934Z" fill="currentColor"/>
<path fill-rule="evenodd" clip-rule="evenodd" d="M16 26C21.5228 26 26 21.5228 26 16C26 10.4772 21.5228 6 16 6C10.4772 6 6 10.4772 6 16C6 21.5228 10.4772 26 16 26ZM16 24C20.4183 24 24 20.4183 24 16C24 11.5817 20.4183 8 16 8C11.5817 8 8 11.5817 8 16C8 20.4183 11.5817 24 16 24Z" fill="currentColor"/>
<path fill-rule="evenodd" clip-rule="evenodd" d="M16 24C20.4183 24 24 20.4183 24 16C24 11.5817 20.4183 8 16 8C11.5817 8 8 11.5817 8 16C8 20.4183 11.5817 24 16 24ZM16.0004 19C16.6057 19 17.0968 19.4889 17.1004 20.0934L17.1004 20.0867V20.1L17.1004 20.0934C17.0968 20.6978 16.6057 21.1867 16.0004 21.1867C15.3951 21.1867 14.904 20.6978 14.9004 20.0934L14.9004 20.1V20.0867L14.9004 20.0934C14.904 19.4889 15.3951 19 16.0004 19ZM13.1563 13.067C12.9924 13.5654 13.4253 14 13.95 14C14.4747 14 14.8943 13.5086 15.2907 13.1649C15.477 13.0034 15.7204 12.9001 16 12.9001C16.5936 12.9001 17.1 13.2515 17.1 14C17.1 14.602 16.573 15.0544 16.047 15.506L16.0134 15.5348C15.5207 15.9574 15.0026 16.4017 15.0026 17.2344C15.0026 17.6515 15.3489 18 15.766 18H16.4486C16.7531 18 17 17.7531 17 17.4486C17 16.9386 17.4137 16.5907 17.7708 16.2904C17.7915 16.273 17.8121 16.2557 17.8324 16.2385C17.8621 16.2134 17.8911 16.1886 17.9193 16.1641C18.4463 15.7043 19 14.9237 19 14C19 12.3601 17.9323 10.9961 16.0154 10.9961C14.4104 10.9961 13.4977 12.0289 13.1563 13.067Z" fill="currentColor"/>
</svg>
