<svg width="32" height="32" viewBox="0 0 32 32" fill="none" xmlns="http://www.w3.org/2000/svg">
<path d="M17.1004 20.0934C17.1004 20.0956 17.1004 20.0978 17.1004 20.1V20.0867C17.1004 20.0889 17.1004 20.0912 17.1004 20.0934Z" fill="currentColor"/>
<path fill-rule="evenodd" clip-rule="evenodd" d="M16 26C21.5228 26 26 21.5228 26 16C26 10.4772 21.5228 6 16 6C10.4772 6 6 10.4772 6 16C6 21.5228 10.4772 26 16 26ZM16 24C20.4183 24 24 20.4183 24 16C24 11.5817 20.4183 8 16 8C11.5817 8 8 11.5817 8 16C8 20.4183 11.5817 24 16 24Z" fill="currentColor"/>
<path fill-rule="evenodd" clip-rule="evenodd" d="M16 24C20.4183 24 24 20.4183 24 16C24 11.5817 20.4183 8 16 8C11.5817 8 8 11.5817 8 16C8 20.4183 11.5817 24 16 24ZM14.9004 11L15.0005 18H17.0005L17.1005 11H14.9004ZM16.0004 19C16.6057 19 17.0968 19.4889 17.1004 20.0934L17.1004 20.0867V20.1L17.1004 20.0934C17.0968 20.6978 16.6057 21.1867 16.0004 21.1867C15.3951 21.1867 14.904 20.6978 14.9004 20.0934L14.9004 20.1V20.0867L14.9004 20.0934C14.904 19.4889 15.3951 19 16.0004 19Z" fill="currentColor"/>
<path fill-rule="evenodd" clip-rule="evenodd" d="M14.9004 20.0867L14.9004 20.0934L14.9004 20.1V20.0867Z" fill="currentColor"/>
</svg>
