<svg width="24" height="24" viewBox="0 0 24 24" fill="none" xmlns="http://www.w3.org/2000/svg">
<path d="M11.2004 13.6L11.1203 8H12.8804L12.8004 13.6H11.2004Z" fill="#1C1C1C"/>
<path d="M12.8803 15.2747C12.8774 14.7911 12.4846 14.4 12.0003 14.4C11.5161 14.4 11.1232 14.7911 11.1203 15.2747C11.1203 15.2729 11.1203 15.2712 11.1203 15.2694V15.28C11.1203 15.2782 11.1203 15.2765 11.1203 15.2747C11.1232 15.7583 11.5161 16.1494 12.0003 16.1494C12.4846 16.1494 12.8774 15.7583 12.8803 15.2747Z" fill="#1C1C1C"/>
<path d="M12.8803 15.2747C12.8803 15.2765 12.8803 15.2782 12.8803 15.28V15.2694C12.8803 15.2712 12.8803 15.2729 12.8803 15.2747Z" fill="#1C1C1C"/>
<path fill-rule="evenodd" clip-rule="evenodd" d="M12 20C16.4183 20 20 16.4183 20 12C20 7.58172 16.4183 4 12 4C7.58172 4 4 7.58172 4 12C4 16.4183 7.58172 20 12 20ZM12 18.4C15.5346 18.4 18.4 15.5346 18.4 12C18.4 8.46538 15.5346 5.6 12 5.6C8.46538 5.6 5.6 8.46538 5.6 12C5.6 15.5346 8.46538 18.4 12 18.4Z" fill="#1C1C1C"/>
</svg>
